<svg xmlns="http://www.w3.org/2000/svg" viewBox="0 0 750 511.42"><defs><style>.cls-1{isolation:isolate;}.cls-2,.cls-3,.cls-66{fill:#2d3b56;}.cls-3{opacity:0.34;}.cls-17,.cls-18,.cls-22,.cls-23,.cls-24,.cls-26,.cls-27,.cls-28,.cls-3,.cls-33,.cls-34,.cls-35,.cls-36,.cls-37,.cls-38,.cls-39,.cls-4,.cls-40,.cls-41,.cls-42,.cls-43,.cls-44,.cls-50,.cls-53,.cls-54,.cls-55,.cls-56,.cls-57,.cls-58,.cls-59,.cls-60,.cls-61,.cls-64,.cls-65,.cls-66,.cls-67{mix-blend-mode:multiply;}.cls-4,.cls-8{fill:#343363;}.cls-4{opacity:0.6;}.cls-5,.cls-69{fill:#fff;}.cls-6{fill:#e9effd;}.cls-67,.cls-7{fill:#414182;}.cls-68,.cls-9{fill:#4d49a0;}.cls-10,.cls-19,.cls-20,.cls-30,.cls-31,.cls-32,.cls-41,.cls-45,.cls-46,.cls-50,.cls-72,.cls-73,.cls-74{fill:none;}.cls-10{stroke:#000;}.cls-10,.cls-19,.cls-20,.cls-30,.cls-31,.cls-32,.cls-41,.cls-45,.cls-46,.cls-47,.cls-48,.cls-49,.cls-50,.cls-71,.cls-72,.cls-73{stroke-miterlimit:10;}.cls-11,.cls-52,.cls-55,.cls-56,.cls-60{fill:#5e5ebc;}.cls-12,.cls-24,.cls-35,.cls-36,.cls-42,.cls-43,.cls-54,.cls-63{fill:#5f82d6;}.cls-13{fill:#5ed2bd;}.cls-14{fill:#ace8c8;}.cls-15,.cls-33,.cls-37,.cls-38,.cls-39,.cls-40,.cls-57,.cls-58,.cls-64,.cls-65{fill:#dd9885;}.cls-16,.cls-47{fill:#ffd98a;}.cls-17,.cls-18,.cls-29,.cls-59{fill:#9b3151;}.cls-17{opacity:0.32;}.cls-18{opacity:0.25;}.cls-19,.cls-30,.cls-71{stroke:#fff;}.cls-19,.cls-30,.cls-31,.cls-32,.cls-41,.cls-45,.cls-46,.cls-50,.cls-71,.cls-72,.cls-73{stroke-linecap:round;}.cls-19,.cls-72{stroke-width:2px;}.cls-20{stroke:#343363;}.cls-21,.cls-22,.cls-23,.cls-61{fill:#c1d7e0;}.cls-22,.cls-38{opacity:0.63;}.cls-24{opacity:0.62;}.cls-25,.cls-26,.cls-27,.cls-53{fill:#a94d66;}.cls-26{opacity:0.42;}.cls-28,.cls-61{opacity:0.7;}.cls-31{stroke:#5e5ebc;}.cls-32{stroke:#ffe6bb;}.cls-33{opacity:0.74;}.cls-35{opacity:0.59;}.cls-37,.cls-42{opacity:0.57;}.cls-39,.cls-55{opacity:0.5;}.cls-41{stroke:#dd9885;}.cls-43{opacity:0.26;}.cls-44{opacity:0.45;}.cls-45{stroke:#2d3b56;stroke-width:5px;}.cls-46{stroke:#414182;stroke-width:10px;}.cls-47,.cls-48,.cls-49,.cls-50{stroke:#ffd98a;}.cls-48,.cls-71{fill:#ffe6bb;}.cls-49{fill:#f7f2df;}.cls-50{opacity:0.69;}.cls-51{fill:#fccc77;}.cls-52{font-size:24.32px;font-family:Aller-Light, Aller Light;font-weight:300;}.cls-53,.cls-62{opacity:0.61;}.cls-54{opacity:0.47;}.cls-56{opacity:0.43;}.cls-57{opacity:0.72;}.cls-58{opacity:0.4;}.cls-59{opacity:0.36;}.cls-60,.cls-65,.cls-66{opacity:0.53;}.cls-63,.cls-69{font-size:22.65px;}.cls-63,.cls-68{font-family:Aller-Bold, Aller Bold;font-weight:700;}.cls-64{opacity:0.78;}.cls-67{opacity:0.38;}.cls-68{font-size:35.94px;}.cls-69{font-family:Impact;}.cls-70{letter-spacing:-0.02em;}.cls-71{stroke-width:4px;}.cls-72{stroke:#9b3151;}.cls-73{stroke:#a94d66;}</style></defs><title>chara</title><g class="cls-1"><g id="Layer_2" data-name="Layer 2"><g id="OBJECTS"><path class="cls-2" d="M230.91,468.5c-13.1-70.67-26.26-141.56-48.14-210-3.69-11.55-7.65-23.07-13.19-33.86-1.61-3.13-3.71-6.48-7.12-7.32-2.16-.54-4.42.06-6.56.68-25.7,7.39-50.91,17-74.54,29.55a257.24,257.24,0,0,0-33.59,21.15c-6.87,5.16-25.18,16.39-25.87,25.68-.25,3.32,1,6.55,2.13,9.66,25.54,67.27,50.25,134.93,76.88,201.77a3.37,3.37,0,0,0,3.68,2.63c20.23,1.89,40.44,1.68,60.72,1.92l44.61.51c4.4.05,42-2,43,.58C246.42,495.57,234,485.35,230.91,468.5Z"/><path class="cls-3" d="M230.57,468.18c-4.34-13.46-5.12-29.56-7.67-42.9-3.56-18.68-7.25-37.32-11.22-55.91-8-37.16-17.06-74.1-28.59-110.32l-.32-1c-3.69-11.55-7.65-23.07-13.19-33.86-1.61-3.13-3.71-6.48-7.12-7.33-2.16-.53-4.42.07-6.56.68-15.47,4.45-30.4,8.53-45.15,15.21-7.27,3.3-14.4,6.9-21.4,10.72-5.08,2.77-13,5.4-15.15,10.61-3.79,9.07-1.9,24.13.56,33.29a42.37,42.37,0,0,0,7.82,15.84c3.25,4,11.68,6.12,10.88,12.14-2.61-1.54-5.43,1.83-6.21,4.77a27.43,27.43,0,0,0,9.61,28.14c-4.54,4.6-3.34,12.14-1.83,18.42q4.18,17.4,8.36,34.79,3.26,13.52,6.5,27a3.4,3.4,0,0,0,1.16,2.18c1.17.74,2.79-.18,4.08.32a4,4,0,0,1,1.87,2.28c9.14,19.9,18.41,40.21,20.91,62,.11,1,43.77-3.31,47.62-4,16.59-2.82,33.12-7.65,47.83-16A59.48,59.48,0,0,1,230.57,468.18Z"/><path class="cls-4" d="M132,503.85c-.63-1.7-1.7-3.63-2.56-5.61-6.58-15.15-12.49-30.59-18.06-46.15-10.87-30.4-20.53-61.64-31-91.9q-8.53-24.53-17.82-48.8a136.48,136.48,0,0,0-8.33-18.64c-2.12-3.75-4.74-7.46-8.58-9.39-6-3-13-.52-17.88,3.51-6.42,5.28-6.6,9.55-3.72,17.14,25.54,67.27,50.25,134.93,76.88,201.77a3.37,3.37,0,0,0,3.68,2.63c7.39.69,16,2.31,23.35,1.3C132.88,509,133.12,506.78,132,503.85Z"/><path class="cls-2" d="M300.71,382.52a20.48,20.48,0,0,1,6.63,2.73c15.44,10.14,11,30.4,11.93,45.84q-22.54.87-45,3c-2.42.22-38.29,5-38.41,3.47q-1.86-25.92-1.66-51.92a3,3,0,0,1,.62-2.23,3,3,0,0,1,1.8-.61,319.2,319.2,0,0,1,55.21-1.35A52.08,52.08,0,0,1,300.71,382.52Z"/><polygon class="cls-5" points="293.94 335.99 519.81 326.54 728.13 473.61 728.13 501.08 361.84 501.69 293.94 335.99"/><polygon class="cls-6" points="293.94 335.99 293.94 368.48 349.24 506.91 361.84 501.69 293.94 335.99"/><polygon class="cls-7" points="426.95 312.51 426.95 356.49 538.47 501.69 649.74 491.74 660.4 450.02 499.82 308.76 426.95 312.51"/><polygon class="cls-8" points="660.4 450.02 549.79 459.1 538.47 501.69 649.74 491.74 660.4 450.02"/><polygon class="cls-9" points="426.95 312.51 549.79 459.1 660.4 450.02 499.82 308.76 426.95 312.51"/><polygon class="cls-8" points="431.86 326.54 431.86 348.27 481.61 409.29 481.61 385.37 431.86 326.54"/><polygon class="cls-8" points="495.3 401.63 543.67 459.1 535.47 489.08 494.31 436.44 495.3 401.63"/><polygon class="cls-4" points="431.86 341.83 481.61 403.13 481.61 396.23 431.86 335.99 431.86 341.83"/><polygon class="cls-4" points="498.71 411.12 497.82 435.44 508.15 448.1 509.36 424.31 498.71 411.12"/><polygon class="cls-4" points="510.49 449.36 534.46 478.78 536.55 470 511.04 440.44 510.49 449.36"/><polygon class="cls-4" points="511.27 435.89 537.63 465.89 538.47 462.39 511.61 431.33 511.27 435.89"/><polygon class="cls-8" points="511.04 293.63 503.38 349.6 538.47 385.37 551.32 307.52 511.04 293.63"/><polygon class="cls-10" points="551.32 307.52 562.45 308.76 549.13 383.93 538.47 385.37 551.32 307.52"/><path class="cls-8" d="M447.18,60.65c-2.31,57-10.5,141.84-15.32,200.28,68.52,34.25,148.92,91.88,222.54,144.29L717,150.61C653.74,111,510.83,70.6,447.18,60.65Z"/><path class="cls-11" d="M704.38,155.74C658.89,122,514.48,79.21,453.18,70.51c-2,54.11-9.44,124.15-14,184,68.61,37.72,137.48,82.6,206.55,133.22Z"/><polygon class="cls-7" points="654.4 405.22 668.17 405.22 728.13 155.04 717.03 150.61 654.4 405.22"/><path class="cls-9" d="M447.18,60.65h17.11C604.17,91,691.27,128.39,728.13,155a92.61,92.61,0,0,0-11.1-4.43C657.07,114.18,534.25,75.53,447.18,60.65Z"/><path class="cls-6" d="M460.35,79.21,447.18,251c62.42,33.66,127.11,78.11,193.9,122.78l53.47-215C634.41,123.94,542.57,94.68,460.35,79.21Z"/><path class="cls-12" d="M560.06,120,538.47,264.25l99,52.93,39.25-159.09C641.57,140.46,602.33,128.2,560.06,120Z"/><polygon class="cls-13" points="466.95 181.25 460.35 250.1 591.89 324.75 609.88 238.98 466.95 181.25"/><polygon class="cls-14" points="471.17 190.25 464.84 245.22 489.5 257.21 497.49 200.91 471.17 190.25"/><path class="cls-9" d="M472.37,225.32c-1.64,3-2.25,6.62-3.47,9.84a4,4,0,0,0,1.7.53,104.71,104.71,0,0,1-2.54,11.16l17.62,8.5s1.57-15,1.34-15l1.55.39c.12,0,.26.06.34,0a.41.41,0,0,0,.08-.25c.3-3.9,1.7-10-.93-13.32-1.21-1.51-2.68-1.67-4.26-2.43a.76.76,0,0,1-.41-.34,1,1,0,0,1,0-.62l.64-3a1.13,1.13,0,0,0,0-.63c-.11-.35-.48-.48-.81-.56a13.48,13.48,0,0,0-2.76-.37.73.73,0,0,0-.52.13.84.84,0,0,0-.19.44l-.87,3.64c-.49-.37-1.93-.26-2.53-.26-1.32,0-2.62.07-3.45,1.34C472.72,224.7,472.54,225,472.37,225.32Z"/><path class="cls-15" d="M477.24,218.77c1.73,2.31,4.42,3.55,8.11,2.25,3.54-1.25,4.54-5.55,5.3-8.89a13.36,13.36,0,0,0,.42-4.4,8,8,0,0,0-15-2.86,11.77,11.77,0,0,0-1.16,4.41A14.28,14.28,0,0,0,477.24,218.77Z"/><path class="cls-16" d="M472.55,214.39a33.14,33.14,0,0,0,.65,4.45,4.93,4.93,0,0,0-1.95.09,4.53,4.53,0,0,0,2.87,2.37h-1.25a7.45,7.45,0,0,0,6.48,1.68,5.67,5.67,0,0,1,.25-2c-3-2-4.32-5.31-4.52-8.84a13.11,13.11,0,0,1,.28-3.64,7.07,7.07,0,0,1,.62-1.6,12.84,12.84,0,0,0,1-1.55,3.27,3.27,0,0,0,.2,2.4,3.56,3.56,0,0,0,1.45-1.5c.12.46.25.92.37,1.37,0,.2.15.43.35.43a.43.43,0,0,0,.32-.21,6.51,6.51,0,0,0,.86-1.34,3.27,3.27,0,0,0,2.6,2.53,5.58,5.58,0,0,0-.76-2,4.53,4.53,0,0,0,3.38,2,14.57,14.57,0,0,1-1.23-2.08,5.88,5.88,0,0,0,3.33,2.1,3,3,0,0,0-.89-1.34,4.19,4.19,0,0,0,3.31,1c.45,2.95-.63,5.9-1.74,8.67a7.28,7.28,0,0,1-4.73,4.11.41.41,0,0,0-.2.12.42.42,0,0,0,0,.19l-.07,2.1a1.78,1.78,0,0,0,.06.69c.32.88,1.76,1.12,2.55,1.26a8.11,8.11,0,0,0,1.71.12c.16,0,1.68-.27,1.7-.24a4.17,4.17,0,0,0-1.55-1.34,3.31,3.31,0,0,0,3-.75,3.88,3.88,0,0,0-1-1c.37.24,2.22-6.54,2.3-7.16a65.18,65.18,0,0,0,.61-7.65,11,11,0,0,0-.47-3.56c-.92-2.67-3.5-4.49-6.22-5.25-6.73-1.86-12.79,2.87-13.51,9.55A33.28,33.28,0,0,0,472.55,214.39Z"/><path class="cls-17" d="M472.69,232c.19-1.7.35-3.4.48-5.11a30.93,30.93,0,0,0-1.91,6.3,4.66,4.66,0,0,1-.52,1.45,1.59,1.59,0,0,1-1.24.79c.63.27,1-.24,1.06.59a7.81,7.81,0,0,1-.3,1.77c-.26,1.36-.57,2.71-.89,4.05-.08.32-1.41,5-1.31,5l17.62,8.5s1.57-15,1.34-15l1.55.39c.12,0,.26.06.34,0a.41.41,0,0,0,.08-.25c.3-3.9,1.7-10-.93-13.32a4.86,4.86,0,0,0-1.41-1.2,8.7,8.7,0,0,0,1.14.05c.16,0,1.68-.27,1.7-.24a4.17,4.17,0,0,0-1.55-1.34,3.13,3.13,0,0,0,1.58,0c.25-.07.85-.55,1-.54a6.05,6.05,0,0,1-2.75-1,9.73,9.73,0,0,1,1.3-3.63,22.88,22.88,0,0,0,2.17-6.15,11.86,11.86,0,0,0-.54-6.44,8,8,0,0,0-4.46-4.53,5.48,5.48,0,0,0-1.27-.31l.75,2a13,13,0,0,0-2.36-1.81,2.2,2.2,0,0,0-.76-.32c-1.4-.18-2.31,1.68-2.91,2.61a10.86,10.86,0,0,1,.57-2.38,10.68,10.68,0,0,0-4.57,4.69,1.15,1.15,0,0,0-.15.54,1.05,1.05,0,0,0,.16.48,10.69,10.69,0,0,0,2.1,2.84,6.3,6.3,0,0,0,.47-1.22,5.26,5.26,0,0,0,2.25,1.46c0-.37,0-.74.07-1.11a7.62,7.62,0,0,0,3.9,2.35,4.2,4.2,0,0,0-.37-1.7,8.69,8.69,0,0,0,2.5,1.23,5.48,5.48,0,0,0-.38-1,9.19,9.19,0,0,0,1.94.7c-.56,3.28-1.61,5.92-4.26,8a4.28,4.28,0,0,1-3.74,1.1,4.63,4.63,0,0,1-2.45-2.25,14.21,14.21,0,0,1-1.25-11.6c-1.74,2.27-2.07,5.32-1.9,8.17a13.2,13.2,0,0,0,1.09,4.9l-2,.37a14.55,14.55,0,0,0,2.66,1.95,5.7,5.7,0,0,1-2.08.36,4.22,4.22,0,0,0,2.42,1h-.32c-1.81,0-2.94.38-3.74,2,1-.54,2.37-1.26,3.07-.06a13.32,13.32,0,0,1,1.2,3.07c.15.54.34,2.57,1,2.66.3,0,.61-.38.84-.51a9.41,9.41,0,0,1,1.71-.69l3.66-1.35a53.26,53.26,0,0,1,.63,7.79,1.67,1.67,0,0,1-.13.8,1.86,1.86,0,0,1-.59.56c-2.37,1.77-3.44,4.74-4.39,7.54l-2-2.08a3.84,3.84,0,0,0-2.37-1.48,3,3,0,0,0-1.85.66,13.93,13.93,0,0,0-2.38,2.29C471.66,240.21,472.24,236.12,472.69,232Zm6.81-11.22,0,.1a9.54,9.54,0,0,1-1-.84A6.58,6.58,0,0,0,479.5,220.78Zm4.37.63h0Zm-5.57,1.71A5,5,0,0,0,479,223l-.07.29A1.56,1.56,0,0,0,478.3,223.12Zm5.08.58.11-.51c0,.23,0,.46,0,.68a2.39,2.39,0,0,0,0,.6.61.61,0,0,1-.12-.15A1,1,0,0,1,483.38,223.7Z"/><path class="cls-18" d="M483.46,210.46l.42.16-.05-1.24a8.31,8.31,0,0,0,2.76.91l-.2-1,2.09,1.19a2.94,2.94,0,0,1-.31-.92c.71.21,2.15,1,2,1.93a15,15,0,0,0,.24-3.07,4.28,4.28,0,0,1-3.07-.42c.11.24.22.48.34.72a9,9,0,0,1-2.95-1.69,6.6,6.6,0,0,0,.65,1.87,9.66,9.66,0,0,1-2.87-1.69,7.17,7.17,0,0,0,.17,1.53,5.19,5.19,0,0,1-2.27-2.27,5.84,5.84,0,0,1-1.1,1.23c-.18-.63-.37-1.26-.55-1.89a10.3,10.3,0,0,0-1.49,1.74,4.92,4.92,0,0,1-.35-2.11,9.72,9.72,0,0,0-1.43,2.37,3.68,3.68,0,0,1,.85-.91c.16.39.27.82.44,1.2a7.89,7.89,0,0,0,.78.92,6.4,6.4,0,0,0,.68-1.39,4.44,4.44,0,0,0,1.87,2,6.63,6.63,0,0,0,.3-1.39A7.76,7.76,0,0,0,483.46,210.46Zm-4,10.32,0,.1a9.54,9.54,0,0,1-1-.84A6.58,6.58,0,0,0,479.5,220.78Zm4.37.63h0Zm-5.57,1.71A5,5,0,0,0,479,223l-.07.29A1.56,1.56,0,0,0,478.3,223.12Zm5.08.58.11-.51c0,.23,0,.46,0,.68a2.39,2.39,0,0,0,0,.6.61.61,0,0,1-.12-.15A1,1,0,0,1,483.38,223.7Z"/><line class="cls-19" x1="503.13" y1="207.72" x2="600.52" y2="246.7"/><line class="cls-19" x1="504.08" y1="216.85" x2="594.47" y2="253.29"/><line class="cls-19" x1="503.13" y1="223.98" x2="569.92" y2="251.55"/><line class="cls-19" x1="501.71" y1="231.88" x2="587.66" y2="270.17"/><line class="cls-19" x1="497.82" y1="246.7" x2="587.66" y2="293.63"/><line class="cls-19" x1="497.49" y1="254.54" x2="587.66" y2="303.52"/><path class="cls-8" d="M333.25,373.81v-6c22.54-6.48,48.05-9.67,76-10.2L503,483.4l.18,9.14-106.54,9.15Z"/><path class="cls-7" d="M503,483.4c-36.56-.09-72.09,3.22-106.36,10.68v7.61l106.54-9.15Z"/><polygon class="cls-4" points="333.25 367.8 396.59 494.08 396.59 501.69 333.25 373.81 333.25 367.8"/><path class="cls-9" d="M387.15,456.43c24-7,46-12.13,67.84-11.08-12.47-17.4-41.44-62.63-56.15-81.53-18.29.4-38.34,2.34-55.6,8.21C354.6,398.56,370.06,427.09,387.15,456.43Z"/><polygon class="cls-11" points="401.76 362.06 481.61 475.86 493.38 475.86 409.27 361.6 401.76 362.06"/><path class="cls-11" d="M348.35,375.37l9.11-2.89q18.14,37.78,37,72.87l-8.28,2.72C373,424.71,359.37,400.76,348.35,375.37Z"/><line class="cls-20" x1="363.98" y1="366.89" x2="409.49" y2="450.02"/><line class="cls-20" x1="418.19" y1="448.16" x2="372.81" y2="365.6"/><line class="cls-20" x1="380.76" y1="364.77" x2="428.58" y2="446.79"/><line class="cls-20" x1="437.72" y1="445.73" x2="387.65" y2="364.17"/><line class="cls-20" x1="393.44" y1="363.82" x2="447.18" y2="445.24"/><path class="cls-20" d="M398.07,446.79c18.05-5.75,35.75-8.41,53-7"/><path class="cls-20" d="M395.09,439.41c16.79-5.83,33.54-7.59,50.23-8.08"/><path class="cls-20" d="M391.71,434.06a135.83,135.83,0,0,1,48.88-9.75"/><path class="cls-20" d="M389,428.59a175,175,0,0,1,47.18-10.91"/><path class="cls-20" d="M385.6,421.85a143.6,143.6,0,0,1,45.77-11.3"/><path class="cls-20" d="M381.76,414.17c14.13-6.29,29.89-8.31,45.22-10.17"/><path class="cls-20" d="M379.26,406.88a114.34,114.34,0,0,1,43.8-8.7"/><path class="cls-20" d="M375.41,400c13.72-4.65,27.31-8.15,43.61-7.8"/><path class="cls-20" d="M371.46,393.58c14-4.44,28.33-7.45,43.28-7.63"/><path class="cls-20" d="M368.54,387.76c14-5.3,28-8.24,42.21-7.56"/><path class="cls-20" d="M365.4,381.47c14.49-5.15,28.62-7.85,42.08-5.92"/><path class="cls-20" d="M362.12,374.92a123.47,123.47,0,0,1,41-5.36"/><line class="cls-20" x1="358.62" y1="367.92" x2="400.98" y2="452.59"/><path class="cls-7" d="M401.76,486.44c25.55-6.47,53.47-10.82,74.52-10.58-5.33-11.94-12.42-21.71-19.54-27.76-24.11-.43-47,4.06-68.93,11.51Z"/><path class="cls-20" d="M391.07,465.89c24.67-8.08,49.34-11.89,71.82-11.62"/><path class="cls-20" d="M395.09,473.61c22.44-8.77,47.76-12.91,73.18-12.27"/><path class="cls-20" d="M398.84,480.82c24-10.06,49.56-12.84,74-12.16"/><path class="cls-20" d="M394.48,457.45a124.42,124.42,0,0,1,14.11,27.34"/><path class="cls-20" d="M401.76,455.33c6.83,6.18,11.51,17.54,15,27.66"/><path class="cls-20" d="M410.75,453.06c6.09,7.07,11.13,16.72,14.27,28.33"/><path class="cls-20" d="M419.82,451.19c6,6.1,11.16,16.37,14.21,28.42"/><path class="cls-20" d="M430.21,449.58c5.84,7.68,10.72,17.51,15,28.68"/><path class="cls-20" d="M439.19,448.61c6.87,8.89,13,18.39,15.8,28.57"/><path class="cls-20" d="M448,448.16c7.66,6.8,13.72,16.65,18.91,28.15"/><path class="cls-21" d="M509.36,48.66l-7.65,109,25.64,9.25c-6.56,9.34-3.61,21,4,33.69-2.09-13.39-2.13-25,5.17-30.38l113.21,40.85L674.39,75.7Z"/><polygon class="cls-22" points="509.36 48.66 509.04 53.17 638.48 78.27 622.91 201.39 649.74 211.07 674.39 75.7 509.36 48.66"/><polygon class="cls-23" points="573.63 71.92 564.67 162.82 645.08 190.25 663.66 87.91 573.63 71.92"/><polygon class="cls-23" points="517.65 61.98 511.15 145.27 557.46 159.93 565.29 70.51 517.65 61.98"/><path class="cls-12" d="M512.72,145.77a84.73,84.73,0,0,1,2-8.54c1.46-4.29,3.22-8.57,6-11.84,3.53-4.07,8-5.14,12.78-4.66l3.39.34a16.23,16.23,0,0,1,10.18,5.14c2.85,3,3.06,8.14,3.36,12.39.48,6.86,1.32,19.55,1.32,19.55Z"/><path class="cls-24" d="M512.88,145.56l0,0a34.76,34.76,0,0,0,16.38-1.38,12.58,12.58,0,0,0,5.6-3.27c2.7-3.07,2.58-7.74,4.71-11.24-2.54.45-5.34.86-7.55-.47a9.71,9.71,0,0,1-3-3.18c-.72-1.1-1.51-2.33-2.77-2.71s-2.78.29-4,1c2.47-3.32,7.51-3.91,11.35-3.53l3.39.34a16.23,16.23,0,0,1,10.18,5.14c2.85,3,3.06,8.14,3.36,12.39.48,6.86,1.32,19.55,1.32,19.55a3.36,3.36,0,0,0-.61-.19l-18.05-5.72-11.51-3.64-4.6-1.46C515.74,146.72,514,146.43,512.88,145.56Z"/><path class="cls-15" d="M535,109.88c-.53,4.29.17,11.09-4.32,12.36a5.8,5.8,0,0,0,4.73,4.5,6.48,6.48,0,0,0,5.8-2.58c-3.24-2.24-1.88-9.2-1.88-12.9Z"/><path class="cls-15" d="M526.6,102.36c0,.54,0,1.08.1,1.61.59,6.74,3.87,12,9.84,13.21,11.45,2.21,16.26-12,14.44-23-.77-4.71-3.09-9.17-6.63-11.72-6.15-4.43-12.62,0-15.49,7.08A31.19,31.19,0,0,0,526.6,102.36Z"/><path class="cls-25" d="M529.56,116a12.83,12.83,0,0,0,6.37,3,17.45,17.45,0,0,0,5.87.59,7.82,7.82,0,0,0,5.26-2.73,13.52,13.52,0,0,0,2.19-4.84,56.71,56.71,0,0,0,1.81-9.2c-1.67,3.09-3.64,6.45-6.73,7.27-.18-3-.6-6.24-2.55-8.22a6,6,0,0,0-7.09-.86,13.22,13.22,0,0,0-5.27,6c-.41-.69-3.44-4.83-3.32-5.51a19.91,19.91,0,0,0,.1,5.87C526.53,110.52,527.35,113.8,529.56,116Z"/><path class="cls-25" d="M527.61,93.83a1.76,1.76,0,0,0,.69-.59q3.13-3.69,6.25-7.39a4.66,4.66,0,0,0,2.91,4.52A3.89,3.89,0,0,0,542,88.2a3.61,3.61,0,0,0,2.7,3.61,3.3,3.3,0,0,0,3.48-2.62c-.62,1.92,1.42,4,3.15,3.45s2.69-2.84,2.45-4.87A9.11,9.11,0,0,0,551,82.65c1.72-1.39,1-4.69-.6-6.21a5.61,5.61,0,0,0-6.42-.91,2.3,2.3,0,0,1-1.29.44c-.57-.08-1-.67-1.32-1.17-1.64-2.27-4.35-3.8-6.82-3s-4,4.64-2.45,7c-1.52-1.22-3.52-1.93-5.26-1.19A4,4,0,0,0,525,82.76c.39.71,1.25,1.21,1.86.74.19.52-.27.29.21.17-1.9,1-1.74,3.9.09,2.26a12.34,12.34,0,0,0-3.49,3.56,1.44,1.44,0,0,0-.31.83c.07,1.67,2,0,2.46.33C526.53,91.28,525.74,94.52,527.61,93.83Z"/><path class="cls-26" d="M550.41,76.44A5.79,5.79,0,0,0,547,74.92a5.68,5.68,0,0,0-3.44,1,4.39,4.39,0,0,1,4.23.15,3.53,3.53,0,0,1,1.51,3.84.94.94,0,0,1-.34.53c-.49.34-1.08-.22-1.64-.4a1.78,1.78,0,0,0-2,1.17,4.92,4.92,0,0,0-.13,2.53c0,.24,0,.55-.19.65a.54.54,0,0,1-.54-.17c-.88-.79-1.11-2-1.61-3.13a1.39,1.39,0,0,0-.71-.81,1.08,1.08,0,0,0-1.14.37,3.32,3.32,0,0,0-.56,1.13,6.15,6.15,0,0,0-.32-3,3.51,3.51,0,0,0-2.15-2.08,3.42,3.42,0,0,0-3.84,1.78,5,5,0,0,0,.08,4.42,8.75,8.75,0,0,1-1.53-.69,4,4,0,0,0-1.58-.51,1.63,1.63,0,0,0-1.45.67,1,1,0,0,0,.33,1.45,3.11,3.11,0,0,0-1.41.4,1.14,1.14,0,0,0-.53,1.27c.2.57.9.74,1.5.8a12.64,12.64,0,0,0-3,1.44,2.3,2.3,0,0,0-.76.82,1,1,0,0,0,.14,1,.62.62,0,0,0,1-.12,3.23,3.23,0,0,0,.18,2,.61.61,0,0,0-.74.32,1.46,1.46,0,0,0-.08.88c.1.63.49,1.43,1.26,1.39s1.46-1.08,2-1.54l4.47-4.15a6.17,6.17,0,0,0,2.77,4.08,3.77,3.77,0,0,0,4.63-.65,3.29,3.29,0,0,0,2.66,2.41,5.51,5.51,0,0,0,3.25-.82,9.71,9.71,0,0,1,.25,4.19c-.09,1.48-.23,3-.45,4.43a27.23,27.23,0,0,1-1,4.27,20.9,20.9,0,0,1-.75,2c-.18.41-.58,1.75-1,2A15,15,0,0,0,550,105a22.33,22.33,0,0,1-1.4,4.59,6.15,6.15,0,0,1-1.74,2.55,3.66,3.66,0,0,1-4.34,0c-.45-.35-.89-.84-1.46-.82a1.36,1.36,0,0,0-1.11.91.93.93,0,0,1-.31.47.65.65,0,0,1-.39,0c-.95-.15-1.59-1-2.41-1.52a3.28,3.28,0,0,0-4.94,3.26,14,14,0,0,1-5.41-5.69,11.09,11.09,0,0,0,3,7.25,10.62,10.62,0,0,0,4.48,2.48,10.64,10.64,0,0,1-.94,2.05,6.63,6.63,0,0,1-1.68,1.53,2.94,2.94,0,0,0,2.66.54,10.48,10.48,0,0,0,3.07-.92c.71-.36,2.19-1.18,2-2.1.88,0,1.74.1,2.63,0a7.82,7.82,0,0,0,5.26-2.73,13.52,13.52,0,0,0,2.19-4.84,56.65,56.65,0,0,0,1.62-7.81,29.28,29.28,0,0,0,.11-10c-.08-.49-.18-1-.3-1.45a2.27,2.27,0,0,0,.63-.08c1.72-.53,2.69-2.84,2.45-4.87A9.11,9.11,0,0,0,551,82.65C552.73,81.26,552.05,78,550.41,76.44Z"/><path class="cls-27" d="M526.89,83.74c-.06,0-.07.06-.06.07l0,0A.08.08,0,0,1,526.89,83.74Z"/><g class="cls-28"><path class="cls-29" d="M535.58,104.58c.38.63.62,1.32.94,1.87s.72.89,1.2.86a2.17,2.17,0,0,0,1.48-.75c.46-.45.86-1,1.34-1.59a5.19,5.19,0,0,1-.73,2.08,2.59,2.59,0,0,1-2.07,1.26,1.86,1.86,0,0,1-1.29-.48,2.42,2.42,0,0,1-.64-1.06A6.32,6.32,0,0,1,535.58,104.58Z"/></g><path d="M533,94.94a1.54,1.54,0,0,1,.41,1.18,1.47,1.47,0,0,1-.59,1.09,1.56,1.56,0,0,1-.41-1.17A1.58,1.58,0,0,1,533,94.94Z"/><path d="M544.59,97.22a1.52,1.52,0,0,1,.41,1.17.68.68,0,1,1-.41-1.17Z"/><g class="cls-28"><path class="cls-29" d="M538.43,93.91a12,12,0,0,1-.06,2.94,17.69,17.69,0,0,1-.62,2.85l-.47-.44a9.2,9.2,0,0,1,1.9-.13,10.11,10.11,0,0,1-1.7.87l-.52.21,0-.65a17.42,17.42,0,0,1,.44-2.88A12.09,12.09,0,0,1,538.43,93.91Z"/></g><polygon class="cls-12" points="573.63 71.92 572.67 81.75 661.76 98.35 663.66 87.91 573.63 71.92"/><polygon class="cls-29" points="663.66 87.91 651.98 85.83 650.23 96.2 661.76 98.35 663.66 87.91"/><line class="cls-30" x1="653.55" y1="94.74" x2="661.03" y2="89.72"/><line class="cls-30" x1="655.07" y1="88.8" x2="659.78" y2="95.66"/><path class="cls-5" d="M579.61,78.27A1.72,1.72,0,1,1,578,76.14,1.93,1.93,0,0,1,579.61,78.27Z"/><path class="cls-5" d="M584.61,79.21a1.72,1.72,0,1,1-1.67-2.13A1.94,1.94,0,0,1,584.61,79.21Z"/><path class="cls-5" d="M589.94,80.39a1.71,1.71,0,1,1-1.67-2.12A1.95,1.95,0,0,1,589.94,80.39Z"/><line class="cls-31" x1="590.61" y1="94.74" x2="652.57" y2="106.96"/><line class="cls-31" x1="590.61" y1="99.49" x2="651.07" y2="111.79"/><line class="cls-31" x1="589.94" y1="103.79" x2="644.58" y2="114.96"/><line class="cls-32" x1="579.61" y1="110.96" x2="629.25" y2="122.95"/><line class="cls-32" x1="578.78" y1="114.96" x2="628.08" y2="126.78"/><line class="cls-32" x1="588.76" y1="121.85" x2="625.74" y2="130.34"/><line class="cls-31" x1="588.76" y1="134.61" x2="637.08" y2="147.1"/><line class="cls-31" x1="588.76" y1="138.61" x2="631.75" y2="149.73"/><line class="cls-31" x1="587.66" y1="143.52" x2="633.41" y2="155.93"/><line class="cls-32" x1="572.67" y1="150.61" x2="615.89" y2="164.21"/><line class="cls-32" x1="571.78" y1="154.27" x2="615.13" y2="167.96"/><line class="cls-32" x1="579.61" y1="161.93" x2="614.17" y2="173.26"/><path class="cls-11" d="M583.61,96.08c-4-.42-4.83,7-4.83,7l7.83,1.45S587.61,96.5,583.61,96.08Z"/><path class="cls-11" d="M586.05,94.94c0,1.92-1.19,3.48-2.66,3.48s-2.67-1.56-2.67-3.48,1.2-3.47,2.67-3.47S586.05,93,586.05,94.94Z"/><path class="cls-16" d="M637.54,124.82c-2.89-1.13-4.83,7.05-4.83,7.05l7.83,1.46S640.43,126,637.54,124.82Z"/><path class="cls-16" d="M640,123.69c0,1.92-1.19,3.48-2.66,3.48s-2.67-1.56-2.67-3.48,1.19-3.48,2.67-3.48S640,121.77,640,123.69Z"/><path class="cls-11" d="M578.92,131.92c-3.81-.83-4.83,7.05-4.83,7.05l8.27,2.72S582.73,132.76,578.92,131.92Z"/><ellipse class="cls-11" cx="578.7" cy="130.79" rx="2.67" ry="3.48"/><path class="cls-16" d="M625.8,167.94C621.59,167.59,621,175,621,175l8.28,2.74S630,168.28,625.8,167.94Z"/><path class="cls-16" d="M628.24,166.8c0,1.92-1.19,3.48-2.66,3.48s-2.67-1.56-2.67-3.48,1.19-3.48,2.67-3.48S628.24,164.88,628.24,166.8Z"/><path class="cls-15" d="M404.14,406.21a52.64,52.64,0,0,0-8.59-3c-4-.88-7.42.66-11.13.21a14.18,14.18,0,0,1-6.66-2.18c13.87-5.52,28.13-4.51,42.29-1.16a3,3,0,0,0,1.72.05c1-.42,1.21-1.94.61-2.89a5.83,5.83,0,0,0-2.72-1.9,14,14,0,0,0,3.15-.59,9.53,9.53,0,0,0-6.29-5l2.31-.31c-.82-2.17-3.2-3.24-5.37-4-12.92-4.7-29.84-9.61-43.57-6.72-7.17,1.5-13.84,4.65-20.84,6.73-6.8,2-14.34,3.06-21.36,4-10.14,1.41-20.41,1.07-30.62,1q-21.43,0-42.87-1c-.06,9.28,1.75,18.92,3.47,28a1.33,1.33,0,0,0,.31.75,1.3,1.3,0,0,0,1,.2,372.34,372.34,0,0,0,40.48-5.05c13.83-2.49,27-6.38,41.06-7.46a7.88,7.88,0,0,1,2.17,0,7.24,7.24,0,0,1,2.38,1.13c2.61,1.67,5.16,3.6,8.17,4.33a22.22,22.22,0,0,0,6.47.28c7-.39,13.92-.43,20.94-.45,6.12,0,12.31-1,18.4-1.56a9,9,0,0,0,3.35-.75A3,3,0,0,0,404.14,406.21Z"/><path class="cls-33" d="M404.14,406.21a52.64,52.64,0,0,0-8.59-3c-4-.88-7.42.66-11.13.21a14.18,14.18,0,0,1-6.66-2.18c13.87-5.52,28.13-4.51,42.29-1.16a3,3,0,0,0,1.72.05c1-.42,1.21-1.94.61-2.89a5.83,5.83,0,0,0-2.72-1.9,14,14,0,0,0,3.15-.59,9.53,9.53,0,0,0-6.29-5l2.31-.31c-.82-2.17-3.2-3.24-5.37-4a144.47,144.47,0,0,0-20.27-6,32.77,32.77,0,0,0-9.32-.68c-3.29.26-6.26,1.91-9.39,2.29a84.68,84.68,0,0,1,41.34,5.41c-4.23.66-8.45-.83-12.64-1.69a43,43,0,0,0-23.48,1.81,86.78,86.78,0,0,1,32.74,1.7c3.1.77,6.52,2,7.83,4.93-4,0-7.83-1.45-11.72-2.41a51.26,51.26,0,0,0-28.67,1.28,65.88,65.88,0,0,1,42.34,5.15c-.84,1.47-3,1.13-4.64.66a74.05,74.05,0,0,0-29.94-2.42c-4.26.53-8.08.81-11.71,3.1-4.05,2.55-8.34,4.86-13.1,5.73-6.16,1.12-13.84-.27-18.66-4.38a3.11,3.11,0,0,0-1-.66,2.85,2.85,0,0,0-1.39,0l-1.67.33a229.17,229.17,0,0,1-35.75,3.4c-1.61.05-19.13,1.42-19.39.35a25.17,25.17,0,0,1,.63-13.63c-4.71.16-9.42.37-14.13.31-5.76-.08-11.52-.34-17.27-.6-.06,9.28,1.75,18.92,3.47,28a1.33,1.33,0,0,0,.31.75,1.3,1.3,0,0,0,1,.2,372.34,372.34,0,0,0,40.48-5.05c13.83-2.49,27-6.38,41.06-7.46a7.88,7.88,0,0,1,2.17,0,7.24,7.24,0,0,1,2.38,1.13c2.61,1.67,5.16,3.6,8.17,4.33a22.22,22.22,0,0,0,6.47.28c7-.39,13.92-.43,20.94-.45,6.12,0,12.31-1,18.4-1.56a9,9,0,0,0,3.35-.75A3,3,0,0,0,404.14,406.21Z"/><g class="cls-34"><path class="cls-15" d="M421.3,396.23A88.84,88.84,0,0,0,411,393.29a81.14,81.14,0,0,0-21.15-1.81l-2.66.16-2.66.26-2.65.32c-.88.15-1.76.28-2.65.41.86-.23,1.73-.46,2.6-.67l2.63-.55,2.66-.4,2.68-.3a61.49,61.49,0,0,1,10.77,0,62.48,62.48,0,0,1,10.61,1.84A57.2,57.2,0,0,1,421.3,396.23Z"/></g><g class="cls-34"><path class="cls-15" d="M417.77,390a96.93,96.93,0,0,0-10.42-2.52,88.44,88.44,0,0,0-10.61-1.25,84.74,84.74,0,0,0-10.69.05l-2.67.21-2.66.31-2.66.36c-.88.16-1.76.31-2.65.45.86-.25,1.73-.48,2.6-.71l2.64-.59,2.66-.45,2.68-.35a64.92,64.92,0,0,1,10.8-.28,65.59,65.59,0,0,1,10.71,1.5A59.56,59.56,0,0,1,417.77,390Z"/></g><g class="cls-34"><path class="cls-15" d="M404.36,382.72l-7.55-1.08c-2.52-.33-5-.64-7.54-.79a57.8,57.8,0,0,0-7.56-.06l-1.88.16-1.87.26-1.87.34c-.61.16-1.23.32-1.85.46.59-.24,1.18-.49,1.78-.71l1.84-.57,1.88-.41,1.9-.3a40.33,40.33,0,0,1,7.69-.17,60.36,60.36,0,0,1,7.6,1C399.44,381.38,401.92,382,404.36,382.72Z"/></g><path class="cls-29" d="M235.47,229.35a19.45,19.45,0,0,0-.57,3.72,20.17,20.17,0,0,0,3.86,12.29c3.53,5,8.65,8.18,13.58,11.66a40.63,40.63,0,0,1,15.34,21.8,44.33,44.33,0,0,1-.85,26.72c-1.31,3.76-3.11,7.38-3.84,11.29-.75,4.06-.39,12.13,5.45,11.89a6.42,6.42,0,0,0,5.91-6.42,7.19,7.19,0,0,1-5.7,7.77,3.3,3.3,0,0,1-3-.73c5.16,7.51,17.6-2.73,16.89-9.67A15.92,15.92,0,0,1,271.83,336a21.42,21.42,0,0,1-9.56.47c-15.72-2.32-23.31-14.55-32.07-26.27l-31-41.49c-4.53-6.05-9.21-12.46-10.16-20-.69-5.45.67-10.94,2.23-16.21,3.16-10.74,6.76-22.55,12.43-32.28,3.13-5.38,11.12-13.21,17.09-14.88,5.1-1.43,11.06,3.88,14.13,7.44a48.08,48.08,0,0,1,5.48,8.06c.49.88,5.65,8.74,5.77,8.6a63.51,63.51,0,0,0-8.83,14.71A35.9,35.9,0,0,0,235.47,229.35Z"/><path class="cls-35" d="M229.8,226.5a15.46,15.46,0,0,0-1.51,5.43A45.46,45.46,0,0,0,238.66,268c3.65,4.37,8.21,8.16,10.53,13.36,4.55,10.24-.81,23.18,4.74,32.91-3.54-8.18,2-15.91.77-24-1-6.91-3.4-14.18-7.92-19.61a52.8,52.8,0,0,0-6.6-6.44c-2.6-2.19-3.65-4.4-5.69-6.72,4.77,5.43,14.59,6.34,20.27,11.08,4.51,3.76,7.12,9.45,8,15.25a45.27,45.27,0,0,1-1.39,17.43c-1.4,5.54-3.39,11.31-1.88,16.82a33.27,33.27,0,0,1-1.13-14.3c-3,9.31-2.63,23.47,7.15,28.91,4,2.25,9.59,2,12.86-1.27-1.95,1.95-3.79,3.67-6.5,4.53a21.42,21.42,0,0,1-9.56.47c-15.72-2.32-23.31-14.55-32.07-26.27l-31-41.49c-4.53-6.05-9.21-12.46-10.16-20-.69-5.45.67-10.94,2.23-16.21,3.16-10.74,6.76-22.55,12.43-32.28,3.13-5.38,11.12-13.21,17.09-14.88,5.1-1.43,11.06,3.88,14.13,7.44a48.08,48.08,0,0,1,5.48,8.06c2.27,4.07,6.53,6.51,3.56,11.46q-3.47,5.79-6.94,11.59c-2-1.35-4.83-.43-6.35,1.39A7,7,0,0,0,229.8,226.5Z"/><path class="cls-12" d="M292.88,422.28c7.14-.49,14.28-1,21.41-1.67l34.95,86.3s-23.07.5-27.87.56l-71.45.92c-26.44.33-52.11,2.42-78.57-.07a2.13,2.13,0,0,1-2.37-1.75q-3.33-9.76-6.68-19.53c34.11,3.45,66.85.5,98.42-14.1,6.63-3.07,11.49-9.68,15-16a4.45,4.45,0,0,0,.73-2.12,4.74,4.74,0,0,0-.88-2.36A86,86,0,0,1,265.28,424C274.48,423.47,283.68,422.92,292.88,422.28Z"/><path class="cls-36" d="M291.33,414.6q5.42-.86,10.8-1.87c2-.39,4.12-1,6.18-1.24,2.59-.3,2.35-.22,3.26,2.11,6,15.42,12.63,30.59,18.85,45.94l18.69,46.18a8.19,8.19,0,0,0,.48,1.19s-23.06.5-27.86.56l-71.45.92c-26.44.33-52.11,2.42-78.57-.07a2.13,2.13,0,0,1-2.37-1.75Q166,496.81,162.66,487c34.11,3.45,66.85.5,98.42-14.1,6.63-3.07,11.49-9.68,15-16a4.45,4.45,0,0,0,.73-2.12,4.84,4.84,0,0,0-.88-2.36c-5.64-9.69-10.87-23.45-10.74-34.82,0,0,22.44-2.49,24.49-2.8Z"/><path class="cls-5" d="M163.82,489.88c-14.11-40.54-34.78-77.63-44.75-119.54-4.86-20.43-9.55-42.18-8.25-63.29,1.24-20.09,8.35-40.27,22.31-54.76,4.78-5,10.28-9.2,15.75-13.41L160.39,230c-.32.24,9,9,9.83,9.75a93.45,93.45,0,0,0,11.84,8.29c8.55,5.06,16.42,10.19,26.56,11.56a71.69,71.69,0,0,1,.34-10,119,119,0,0,0,12.4,23.77c7.68,11.55,14.65,23.57,22.54,35a180.27,180.27,0,0,0,12.61,16.37c4.59,5.23,9.37,9.8,12.05,16.4,4.64,11.44.51,24.91-7.15,34.59a11.19,11.19,0,0,0-2.49,4.16,10.1,10.1,0,0,0,.31,4.46c3,13.39,5.13,26.95,8.45,40.26,1.57,6.3,3,13.58,5.94,19.4.44.86,9,9.54,8.88,5.42.89,37.26-31.53,42-61.11,41.43C202,490.44,183.27,492.56,163.82,489.88Z"/><path class="cls-12" d="M194.94,385.2a28,28,0,0,0,9,4.92,47.45,47.45,0,0,0,10.07,2.23,71,71,0,0,0,10.31.47,38.7,38.7,0,0,0,10.13-1.48A34.72,34.72,0,0,0,251.22,380a36,36,0,0,0,7.8-18.82,34.15,34.15,0,0,1-7.2,19.3,35,35,0,0,1-17,11.84,39.94,39.94,0,0,1-10.4,1.43,62.77,62.77,0,0,1-10.43-.62,47.8,47.8,0,0,1-10.14-2.53A27,27,0,0,1,194.94,385.2Z"/><path class="cls-12" d="M226.85,337.11a62.51,62.51,0,0,0,24.83,39.71q-2.64-4.53-5.29-9.07a8.64,8.64,0,0,0,6.92,4c-8.09-12.8-16.35-26.07-18.71-41-2.48-15.72,1.46-33.31-7.33-46.58,4.4,6.27,9.74,12.82,13.27,19.56,3.88,7.42,3.64,17.13,5,25.24,1.45,8.72,4.51,17.86,11.63,23.1a32.8,32.8,0,0,1-4.26-14.6,16.89,16.89,0,0,0,4.73,3.8c-5.53-3-4.58-21.67-6.53-27.12-3.45-9.63-9.62-18.14-16.2-25.91-5.3-6.26-10.3-14-16.12-19.59,1.85,8.3,6.08,15.39,6.94,24.12C227.18,307.48,224.32,322.41,226.85,337.11Z"/><path class="cls-11" d="M147.49,244.6a3,3,0,0,0-.09,4.62c14.95,20.5,36.45,35.63,59.71,45.77,5.83,2.54,12,4.83,18.36,4.41,1.24-10.47-3-20.72-7.13-30.42a149,149,0,0,0,20.12,24.67c-6-16.82-17.51-31-28.86-44.73.62,3.85.5,9-3.22,10.18a7.88,7.88,0,0,1-4.77-.48,93.75,93.75,0,0,1-28.81-15.45c-3-2.39-8.58-10.12-12.2-10.84C156.21,231.46,150.16,241.52,147.49,244.6Z"/><path class="cls-2" d="M347.2,501c-72.44-.72-134,6-206.41,8.59-2.9.1-6.93,1.21-8.67-1.84a9.42,9.42,0,0,1-.87-5.13,13,13,0,0,1,.58-3.73c.79-2.36,2.58-4.21,4.32-6a73.54,73.54,0,0,1,17.35-12.58c7.9-4.32,17.92-4.47,26.79-4.89,52.77-2.5,105.85-3.34,158.22,3.46Z"/><path class="cls-4" d="M348.35,503.8c-69.21-.31-138.39,3.34-207.56,5.79-2.9.1-6.93,1.21-8.67-1.84-2.26-4-1.24-10.32,3-12.49a18.14,18.14,0,0,1,6.7-1.51c23-2.07,46.1-1.71,69.16-1.34,37.71,0,75.67.47,113.3,2.45,6.89.36,14.09.39,21,1.4Z"/><path class="cls-15" d="M404.17,411.16c-4.49-1.91-9-3.83-13.51-5.71a19.49,19.49,0,0,0-5.82-1.73,17.5,17.5,0,0,0-6.76,1.21C367.36,408.5,357.44,414,347,418.34c-10.64,4.42-20.35,5.54-31.64,6.44q-39.47,3.14-79,4.48c-16.09.57-31.84,1.81-47.49,5.6A274.57,274.57,0,0,1,180.19,389a4.2,4.2,0,0,0-.69-2.29c-4.62-5.68-55,8.48-56,3.3,5.56,29.36,17.69,55.24,26.7,83.35a10.64,10.64,0,0,0,2.12,4.25,9.82,9.82,0,0,0,4.43,2.36c9.32,2.86,19.32,2.31,29,1.34,50-5,97.26-22.63,145-37.43a22.28,22.28,0,0,1,6.06-1.27,21.09,21.09,0,0,1,5,.66c11.95,2.61,25.39,5.77,35.66-.88,5.11-3.31,9.28-7.29,14.82-9.92a5.07,5.07,0,0,1,1.4-.49,4.71,4.71,0,0,1,2.45.53c7.15,3,13.81,7.5,21.45,8.87a11.93,11.93,0,0,0,5.82-.13c.71-.23,1.48-.69,1.56-1.44.1-1-1.07-1.62-2-2a35,35,0,0,1-9.76-5.59A65.55,65.55,0,0,0,430.71,437a5.6,5.6,0,0,0,2.67-.1,2.11,2.11,0,0,0,1.51-2c-.1-1.18-1.39-1.81-2.5-2.21l-7.69-2.79c-1.89-.69-3.76-2-5.63-2.6A86.83,86.83,0,0,0,432,430.06c1.48.2,3.36.17,4-1.18a.85.85,0,0,0,.05-.76,1.08,1.08,0,0,0-.57-.41l-10.36-4.52a4,4,0,0,0,1.84.09,1.39,1.39,0,0,0,1.1-1.31c-.07-.74-.85-1.15-1.54-1.43C419,417.49,411.61,414.32,404.17,411.16Z"/><path class="cls-37" d="M403.19,414.31c10.38,4.26,20.56,9.24,30.79,13.72-12.35,1.19-24.09-7.13-34.57-12.58-2.55-1.32-5.35-2.63-8.2-2.21a4.84,4.84,0,0,0-4,3,6.24,6.24,0,0,1,5.21-1.12,32.71,32.71,0,0,1,7.63,3.08l33.06,16.14c-8.85.69-16.72-4.52-24.18-8.52a60.21,60.21,0,0,0-11.12-4.53c-4.35-1.32-6.6.34-10.16,2.31,2.73-1.51,6.15-1.24,9.06-.12s5.45,3,8.07,4.69c5.79,3.72,12.09,6.59,18.21,9.74a2.46,2.46,0,0,1,1.14.91,1.71,1.71,0,0,1-1.24,2.21c-3.27.9-8.45-2.76-11.3-4l-11.61-5.24c-2.53-1.14-5.14-2.31-7.92-2.46-7.23-.4-13,5.9-19.89,8.1-6.74,2.15-14,.26-21-.56-10.36-1.22-20.83,0-31.19,1.12-13.22,1.49-26.49,2.94-39.52,5.46-12.27,2.37-25.25,2.35-37.69,4.54-13.19,2.32-26.25,5.31-39.33,8.17-3.34.73-37.75,6.39-37.82,7.25.66-7.54,5.08-14.44,10.36-19.66a49.16,49.16,0,0,1,12.61-9c-2.35-8.31-4.12-17.18-5.62-25.68q-1.72-9.79-2.73-19.68a4.22,4.22,0,0,0-.69-2.29c-4.62-5.68-55,8.48-56,3.3,5.56,29.36,17.69,55.24,26.7,83.35a10.75,10.75,0,0,0,2.12,4.26,9.92,9.92,0,0,0,4.43,2.36c9.32,2.85,19.32,2.31,29,1.33,50-5,97.26-22.63,145-37.42A21.93,21.93,0,0,1,336.9,443a21.11,21.11,0,0,1,5,.67c11.95,2.6,25.39,5.77,35.66-.89,5.11-3.31,9.28-7.29,14.82-9.91a4.79,4.79,0,0,1,1.4-.5,4.72,4.72,0,0,1,2.45.54c7.15,3,13.81,7.49,21.45,8.86a11.81,11.81,0,0,0,5.82-.13c.71-.23,1.48-.69,1.56-1.43.1-1-1.07-1.62-2-2a34.71,34.71,0,0,1-9.76-5.59,66,66,0,0,0,17.44,4.7,5.86,5.86,0,0,0,2.67-.1,2.11,2.11,0,0,0,1.51-2c-.1-1.17-1.39-1.8-2.5-2.2l-7.69-2.8c-1.89-.68-3.76-2-5.63-2.59A89.41,89.41,0,0,0,432,430.38c1.48.2,3.36.16,4-1.18a.85.85,0,0,0,.05-.76,1.16,1.16,0,0,0-.57-.42l-10.36-4.51a3.16,3.16,0,0,0,3.19-1.34c-1.67.28-3.32-.51-4.84-1.26q-12.64-6.27-25.87-11.28a24.13,24.13,0,0,0-6.48-1.75,8.64,8.64,0,0,0-6.32,1.76c3.49.23,6.23.11,9.67,1.31C397.42,412,400.31,413.13,403.19,414.31Z"/><path class="cls-12" d="M120.87,271.35c-7.51,11.21-9.58,24.83-9.61,38.53-.08,34.84,5.65,70.87,13.4,104.78a168,168,0,0,0,69-7.26c-13.1-28.57-16.82-60.41-20-91.68-1.09-10.57-2.2-21.36-6-31.38C161.33,267.58,133.24,252.86,120.87,271.35Z"/><path class="cls-11" d="M118.49,396.65a200.74,200.74,0,0,0,71.13-7c-1.17.34,6.87,15.93,7.72,17.75a1.35,1.35,0,0,1-1,2.25,164.9,164.9,0,0,1-75,7A161.63,161.63,0,0,0,118.49,396.65Z"/><path class="cls-23" d="M184.83,411.9a33,33,0,0,0,9.44-2.64c-10.35,1.33-20.48,1.88-30.78,0A78.93,78.93,0,0,1,135,398a237.64,237.64,0,0,0,44.37-6.81c-5.7.83-11.16-2.63-15.23-6.69-4.92-4.9-8.68-10.83-12-16.94A145.56,145.56,0,0,1,138.9,266.21,3.31,3.31,0,0,1,140,264.1a3.17,3.17,0,0,1,2.11-.32,28.76,28.76,0,0,1,20.42,11.59c4.81,6.63,6.53,14.95,7.82,23,4.3,26.77,5.36,54.18,13,80.33q.91,3.13,1.95,6.22c.58,1.71.72,3.85,1.5,5.42l2.55-.77a95.71,95.71,0,0,0,8.73,19.09l-14.31,4.68c-.41.13,4.42,19.79,4.87,21.61,4-.49,8.07-1.82,12.1-2.51,4.58-.77,9.19-1.34,13.81-1.78,9.27-.87,18.58-1.18,27.88-1.49l26.45-.88c-.41-1.66-.83-3.33-1.24-5a2,2,0,0,0-.39-.89,2,2,0,0,0-1.17-.44c-2.33-.33-4.95-1-7.3-.75a26.19,26.19,0,0,1-6.14.21,37.37,37.37,0,0,1-14.06-4.95c-5.94-3.46-11-8.19-15.76-13.18,1.85.58,3.82-.28,5.54-1.19a92.59,92.59,0,0,0,27.86-22.4c.06-.08,1.83-.36,2.15-.54a6.16,6.16,0,0,0,1.49-1.25,45.26,45.26,0,0,0,3-4.2,43.85,43.85,0,0,0,5.41-10.3,41.2,41.2,0,0,0,2.13-14.19,19.85,19.85,0,0,1-2.92,10.17,7.53,7.53,0,0,1-4.08,3.61c-1.8.5-4.08-.47-4.39-2.3.86,12.32-10.09,24.72-21.29,28.54a55.38,55.38,0,0,1-14.89,2.41c-7.67.41-16,.11-22.08-4.58-4.47-3.44-7.06-8.78-8.89-14.12a152.2,152.2,0,0,1-4-14.85c4.09,2.82,8.72,5.26,13.69,5.34,5.59.09,10.89-2.86,14.82-6.83s6.73-8.91,9.47-13.78A64.93,64.93,0,0,0,252,380.36a50.57,50.57,0,0,0-5.66-11.26,16,16,0,0,0,8.37,4.25,43.27,43.27,0,0,1-7-8.09,21.67,21.67,0,0,1-3.61-8.16c-.93-5.34,1-10.75,1.46-16.05,1,3.42,4.57,7.16,6.82,9.95s5.18,5.46,8.71,6.53c-1.21-2.86-2.92-5.49-4.35-8.25a19.36,19.36,0,0,1-2.57-8.87,12.94,12.94,0,0,0,5.51,3.63,22,22,0,0,1-5-6.85c.27.76.54,1.52.8,2.28l-2.93-3.2c.79,1.06.45,4.14.67,5.47a28,28,0,0,0,2.27,6.84c-6.2-7.6-5.72-18.39-7.55-28a55.16,55.16,0,0,0-10.13-22.86c5.56,15.91,4.24,32,2.69,48.4a50.3,50.3,0,0,1-3.23-37.34c1.77-5.74,4.29-12.83,0-17-1.41-1.37-3.3-2.09-5-3.12-4.15-2.6-6.69-7.07-9.05-11.35q1.49,7.08,2.48,14.26a9.77,9.77,0,0,1-.26,5.29c-.73,1.63-2.74,2.83-4.35,2-.15-3.06-.31-6.12-.46-9.18a77.78,77.78,0,0,1-7.11,20.12,32.28,32.28,0,0,1,7.17-5.9,71,71,0,0,0,5,33.82c-6.07,6.92-17.33,8-25.23,3.27s-12.19-14.36-11.61-23.55c.62-9.94,6.25-19.88,3.22-29.36-4-12.69-20.51-16.24-29-26.52a3.88,3.88,0,0,1-.83-1.37,4.31,4.31,0,0,1,.74-3.09c2.06-3.87,4.46-7.71,6.25-11.73,1.9-4.28,2-3.66-.68-7-.58-.74-8.62-7.95-8.25-8.31l-11.51,8.84c-5.47,4.21-11,8.44-15.75,13.41a77.22,77.22,0,0,0-16.65,27.24,63.7,63.7,0,0,0-4.23,15.73,102,102,0,0,0-1.43,11.79,146.51,146.51,0,0,0,1.4,29,494.44,494.44,0,0,0,8.61,60.76c-.78-.06-1.56-.1-2.34-.17a161.63,161.63,0,0,1,2.94,19.94c.21,2.32,29.37,1.88,31.68,1.67,13.9-1.24,28.37-3.25,41.2-9-1.9.87-5.58.42-7.68.58-2.6.2-5.22.53-7.79.71-.47,0-1,.06-1.42.08"/><g class="cls-34"><path class="cls-15" d="M415.87,434.06a60.08,60.08,0,0,1-7.25-3.44,69.58,69.58,0,0,1-6.81-4.29c-2.16-1.55-4.28-3.17-6.76-3.87a8.64,8.64,0,0,0-7.4,1.44,8.14,8.14,0,0,1,3.47-2,8.65,8.65,0,0,1,4.11-.14c2.76.59,5,2.3,7.16,3.81s4.38,3,6.62,4.44S413.55,432.72,415.87,434.06Z"/></g><g class="cls-34"><path class="cls-15" d="M387.15,416.54a8.08,8.08,0,0,1,1.72-1.93,3.2,3.2,0,0,1,2.58-.59,13.09,13.09,0,0,1,2.47.86c.8.32,1.59.66,2.38,1,3.15,1.39,6.19,3,9.23,4.57s6.07,3.15,9.18,4.57c1.55.7,3.12,1.38,4.73,2s3.23,1.11,4.87,1.61a44,44,0,0,1-5-1.15c-1.65-.48-3.27-1.08-4.87-1.71a100.68,100.68,0,0,1-9.34-4.39c-3-1.59-6.05-3.21-9.1-4.76-.76-.39-1.53-.76-2.3-1.12a13.14,13.14,0,0,0-2.32-1,2.83,2.83,0,0,0-2.33.34A9.16,9.16,0,0,0,387.15,416.54Z"/></g><g class="cls-34"><path class="cls-15" d="M384.56,410.22A4.17,4.17,0,0,1,387,408.8a8.13,8.13,0,0,1,2.91,0,29.35,29.35,0,0,1,5.49,1.78c3.56,1.41,7.05,3,10.54,4.53s6.93,3.19,10.41,4.75c1.74.78,3.49,1.55,5.25,2.27s3.53,1.44,5.31,2.16c-1.85-.5-3.67-1.08-5.48-1.7s-3.59-1.32-5.38-2c-3.55-1.42-7-3-10.52-4.55s-6.94-3.18-10.42-4.73a29.93,29.93,0,0,0-5.3-2,7.83,7.83,0,0,0-2.77-.23A4.29,4.29,0,0,0,384.56,410.22Z"/></g><g class="cls-34"><path class="cls-15" d="M195.1,433.53a47.78,47.78,0,0,0-7.2,2.48,44.81,44.81,0,0,0-12.55,8.34L174,445.68l-1.29,1.4-1.25,1.44c-.38.51-.78,1-1.19,1.5.32-.55.64-1.11,1-1.66l1.08-1.59,1.2-1.51,1.28-1.45a33.18,33.18,0,0,1,5.91-5,33.92,33.92,0,0,1,6.89-3.52A30.37,30.37,0,0,1,195.1,433.53Z"/></g><path class="cls-15" d="M169.39,122.66a44.58,44.58,0,0,1,5.88-19.78c4.83-7.95,12.74-13.62,21.19-17.52,6.87-3.17,14.33-5.31,21.9-5.24,15.07.14,25.85,9.54,30.55,23.47,3.42,10.15,3.89,21,6.34,31.45,1,4.3,2.36,9.31,5.51,12.53a30.43,30.43,0,0,0,10.21,6.7c.73.28,1.57.65,1.73,1.41a2.18,2.18,0,0,1-.43,1.5,24.58,24.58,0,0,1-11.39,9.72c1,2.31,2.78,4,4.36,5.85a4,4,0,0,1,1,1.65,3.44,3.44,0,0,1-.35,2,11.88,11.88,0,0,1-3,4.2c.2-.17,1.47,2.23,1.55,2.45a4.48,4.48,0,0,1,.38,2.87,6,6,0,0,1-4.11,4.15,7.21,7.21,0,0,0-1.67.52c-2.63,1.45-.82,5.72-.24,7.85.89,3.29,2.31,6.87,1.72,10.34-.75,4.5-4.39,5.46-8.3,6.47-8.39,2.16-17.17,1.8-25.75,1.73a8.45,8.45,0,0,0-4.06.64,7.87,7.87,0,0,0-2.14,1.85c-6.34,7.23-9.09,15.94-10.71,25.23-1.82,10.48.63,18.52,4.08,28.25a106,106,0,0,1-27-12.72c-1.82-1.19-22.47-16.18-21.79-17.12a128.31,128.31,0,0,0,8-12.37,69.84,69.84,0,0,0,6-13c4.92-15.26,2-31.85-1.81-47.41s-8.68-31.27-7.54-47.25Z"/><path class="cls-38" d="M218.36,80.12a31.39,31.39,0,0,1,14.08,3.3c4.38,2.21,7,5.7,10.66,8.68l-13.8-.77a7.85,7.85,0,0,0-2.9.2c-2,.66-3.12,2.77-4.45,4.42a13.5,13.5,0,0,1-8.12,4.78,25,25,0,0,1,5,16.09A32.56,32.56,0,0,1,213.64,133c-3.83,6.08-6.91,10.62-5.81,18.06a10.94,10.94,0,0,1-2.44-3.09A27.47,27.47,0,0,0,208,168l-3.91-2c3.39,5,5.62,11,5.36,17s-3.29,12.11-8.49,15.21c8.52,3.65,18,4.72,27.25,4.42s18.45-1.89,27.61-3.36c3.32-.54,4.29,1.08,4.51,4.46.16,2.47-1,3.76-3.34,4.5a50,50,0,0,1-14.46,2.25c-2.21,0-4.92-.44-5.62-2.53a116.91,116.91,0,0,1-39-6.15,38.07,38.07,0,0,0,11.62,6.26,109.66,109.66,0,0,0,44,6.76c-8.7,2.68-18.06,2.18-27.05,2.11a8.45,8.45,0,0,0-4.06.64,7.87,7.87,0,0,0-2.14,1.85c-7.07,8.05-10,18.74-11.29,29.15.34-2.7-5.39-10.31-6.78-13a109.62,109.62,0,0,1-6.67-15.13c-2.12,2.56-3.64,5.23-5.55,7.88a16.62,16.62,0,0,0-2.6,4.37c-1.24,3.89,1.18,8.05,4.18,10.82s6.7,4.84,9.21,8.07c4,5.2,4.26,12.34,6.73,18.45-3.42.24-7.23-2.25-10.17-3.73a108.27,108.27,0,0,1-10.7-6.17c-1.82-1.19-22.47-16.18-21.79-17.12a128.31,128.31,0,0,0,8-12.37,69.84,69.84,0,0,0,6-13c4.92-15.26,2-31.85-1.81-47.41s-8.68-31.27-7.54-47.25l0-.43a44.58,44.58,0,0,1,5.88-19.78c4.83-7.95,12.74-13.62,21.19-17.52C203.33,82.19,210.79,80.05,218.36,80.12Z"/><path class="cls-39" d="M256.17,165.57a1.83,1.83,0,0,1,.14-.28c1.51-2.46,4.16-4,6.81-5.11,1.56-.66,3.16-1.23,4.71-1.92s2.79-1.69,4.27-2.43c.19-.1.48-.15.55,0a.41.41,0,0,1,0,.19,7.9,7.9,0,0,1-1.66,3.18c-3,3.67-9,9.56-14.29,7.15-.24-.11-.51-.27-.55-.53A.52.52,0,0,1,256.17,165.57Z"/><path d="M238.51,149.84c.91,1.94,2.47,3.35,4.77,2.42a3.63,3.63,0,0,0,2-2.59c.59-2.44.18-6.31-1.48-8.28-2.86-3.41-6.09.57-6.25,3.78A10.76,10.76,0,0,0,238.51,149.84Z"/><path class="cls-39" d="M259.47,176.18c1.43-1.07,2.8-2.37,4.55-2.75a1.73,1.73,0,0,1,2.14,2.35,9.07,9.07,0,0,1-2.83,4.38c-2.38,2-6.11,2.15-9.06,2.1a31.62,31.62,0,0,1-10.15-1.85C249.62,180.2,254.92,179.59,259.47,176.18Z"/><path class="cls-40" d="M263.1,180.85a9.15,9.15,0,0,1,1.61,3.32,4.77,4.77,0,0,1-.62,3.56,5,5,0,0,1-3.76,2c-2.88.23-5.08-1.81-7.4-3.26a57.53,57.53,0,0,1-7.69-5.55,36.06,36.06,0,0,0,4.87.92c4.24.63,8.9.78,12.79-1.3Z"/><path class="cls-41" d="M263.36,180.55a25.14,25.14,0,0,1-20.43-1"/><path class="cls-39" d="M220,167.69a8.45,8.45,0,0,0,4.64,11.36,13.31,13.31,0,0,0,6.95.53c8-1.18,13.72-6.05,15.92-13.87a7.21,7.21,0,0,0,.11-4.63,5.38,5.38,0,0,0-3.23-2.87,11.79,11.79,0,0,0-4.39-.54C233.31,157.87,223,160.91,220,167.69Z"/><path class="cls-29" d="M225.56,136.11c3-1.54,5.85-3.39,8.93-4.8a40,40,0,0,1,8.57-3c2-.41,4.18-.69,5.72-2a5.24,5.24,0,0,0,.93-6.57,3.34,3.34,0,0,1-1.17,1.25c.62-.39.13-1.52-.34-1.72s-1.53.18-2.09.32a36,36,0,0,0-11.65,5.1,65,65,0,0,0-9.09,8.12,53.44,53.44,0,0,1-6.33,5.5,2.82,2.82,0,0,0,2-.16A39.34,39.34,0,0,0,225.56,136.11Z"/><path class="cls-29" d="M121.21,109.37c-9.86,4.56-18.56,12.06-23.39,21.79s-5.41,21.75-.43,31.41c5.6,10.86,17,17.24,26.27,25.15,2.88,2.45,5.78,5.45,6.05,9.22A9.67,9.67,0,0,1,126,204.8a17.56,17.56,0,0,1-8.25,3.44A30.31,30.31,0,0,1,102.42,207c-4.9-1.73-9.26-4.69-13.56-7.62a17.44,17.44,0,0,0,4.77,7.19L88,202.34c-1.16-.87-2.83-1.74-3.94-.81a3.12,3.12,0,0,0-.62,2.89A22.5,22.5,0,0,0,102,222.85c-1.53,0-5.58.07-4.69,2.69a4,4,0,0,0,1.85,1.94c5,3,11.51,2.57,17,.63a38.58,38.58,0,0,0,21.65-19.72,44.1,44.1,0,0,0,2.76-29.33c-1.65-6.67-4.74-12.93-6.2-19.65-1.52-7-.09-12.81,2.61-19.27s7.63-11.46,9.61-18.21c1.45-5,1.7-14-4.39-15.82C135.69,104.18,127.14,106.63,121.21,109.37Z"/><path class="cls-42" d="M125,114.06c-7.71,3.74-14.31,9.7-18,17.39-7.4,15.48.71,30.2,10.88,42l-13.15-12.53c-.58,5.74,3,11.13,7.26,15s9.36,6.84,13.32,11,6.74,10.26,4.9,15.73c-1.1,3.24-3.66,5.79-6.47,7.75C112,218.62,91.22,219,84,204.53c4.32,8.59,7.24,16.83,18.05,18.37-1.53,0-5.58.07-4.69,2.69a3.92,3.92,0,0,0,1.85,1.94c5,3,11.51,2.58,17,.64a38.6,38.6,0,0,0,21.65-19.73,44.09,44.09,0,0,0,2.76-29.33c-1.65-6.67-4.74-12.93-6.2-19.64-1.52-7-.09-12.81,2.61-19.27,3.55-8.52,20.43-27.93,4.56-33.93a11.08,11.08,0,0,0-12.28,3.4,5.75,5.75,0,0,1,5.53,1A44.69,44.69,0,0,0,125,114.06Z"/><path class="cls-29" d="M206.82,332.5a7.43,7.43,0,0,0,1.39,1.76c2.38,2.22,6.78,3.37,8.66-.12a7.12,7.12,0,0,1-12.55,0,12.54,12.54,0,0,0,21.94,1.65c-4.11,7.54-13.49,11.52-21.94,10-13.71-2.42-22.93-17.66-22.37-30.93.21-5,1.75-9.89,2.65-14.84s1.12-10.29-1.14-14.79-6.88-7.6-11.27-10.31c-3.28-2-6.64-4-9.28-6.84-8-8.45-8.4-23.69-4.84-34.2-9.64,10-22.22,17.1-30.89,28-8.55,10.74-12.51,24.23-14,37.7a151.83,151.83,0,0,0-.77,20.45c0,2,1.85,18.47.19,19.2-5.83,2.57-12.12,1.68-15.72-3.91a14.4,14.4,0,0,1-.24-14.85,4.34,4.34,0,0,1,2.22-2.09,1.89,1.89,0,0,1,2.46,1.23c-2,1.35-.9,4.89,1.39,5.5s4.7-1.11,5.61-3.29.65-4.68.16-7a32.36,32.36,0,0,0-4.82-11.65c-2.65-3.87-6.23-7-9.2-10.62a41.84,41.84,0,0,1-9.34-27.35c.4-14.79,8.51-26.2,20.27-34.35,9.9-6.87,22.26-12,28.37-23,6-10.82,3.35-23.7-2.68-33.81a63.1,63.1,0,0,1-4.88-8.95,31,31,0,0,1-2-10.67c-.13-6.11,1.19-12.43,4.8-17.37,1.69-2.31,3.83-4.26,5.58-6.53,4-5.12,5.78-11.54,7.49-17.79-.85.86-2.45.18-2.92-.94-1.2-2.85,1.3-7.39,2.76-9.72,6.84-10.87,18.5-17.89,30.56-22.31,1.89,0,4.65-1.61,6.49-2.17,2.18-.67,4.38-1.29,6.58-1.88,6.06-1.62,12.52-1.7,18.49-3.47,3.18-.94,6.16-2.43,9.3-3.48a31.61,31.61,0,0,1,10.14-1.38c5.5,0,11.28,1.87,14.67,6.2s4.75,10.62,4.95,15.87c-.18-4.66,4.21-8.75,8.86-8.94s9.06,3,11.08,7.18,1.9,9.19.47,13.63c-.87,2.69-2.19,5.23-2.9,8s-.74,5.85.85,8.19a11.4,11.4,0,0,1-2.74-9c.32-2.39,1.39-4.62,2-7a13.26,13.26,0,0,0-1.14-9.72,9.25,9.25,0,0,0-8.28-4.71,7.18,7.18,0,0,0-6.67,6.3c-1.38-2.62-6.19-1.5-8.55-1.32-3.08.23-6.25-.72-9.29-1.23a2.7,2.7,0,0,0-1,0,2.78,2.78,0,0,0-1,.59,30.86,30.86,0,0,1-15.71,6.75,22.51,22.51,0,0,1,6.38,16.4c-.27,6.57-3.88,12.54-7,18.07a45.48,45.48,0,0,0-4.42,9.59c.84-4.89,3.39-9.23,5.55-13.63a39.87,39.87,0,0,0,2.75-6.82c.73-2.6.53-4.76.43-7.4.37,9.57-6.73,17.62-10,26.61a35.08,35.08,0,0,0-.4,22.89c-2.87-7.45-4.05-14.66-1.47-22.45,1.79-5.4,4.95-10.22,7.21-15.43,3.62-8.36,3.6-17.48-3.58-23.88a49.49,49.49,0,0,1,.35,21.73,38.77,38.77,0,0,1-10.07,19.6,17.26,17.26,0,0,0,2-6.86,21.68,21.68,0,0,1-3.8,5c2.3,8.39,3.83,17.06,2,25.69-1.44,6.59-5.3,10.28-3.76,17.73,2.28,11.1,6.66,21.7.47,32.64-2.07,3.65-5.19,6.67-6.94,10.48A17.11,17.11,0,0,0,187.22,246c4.7,5.49,12.27,7.33,18.45,11.07A33.38,33.38,0,0,1,221,279.4c2.35,13-2.91,24.59-10,35.19C207.69,319.49,203.38,326.54,206.82,332.5Z"/><path class="cls-43" d="M175.35,217c-2-.73-5.73,17.06-5.87,19-.46,6.47-.26,13.78,3.88,19.15,7.16,9.29,21.86,10.12,28.75,19.61,4.6,6.35,6.65,12.35,4.19,20.19-1.94,6.19-5.72,11.62-8.46,17.51-3.57,7.68-4.32,15.48.19,22.89a17,17,0,0,0,3,3.63,18.38,18.38,0,0,0,17.22,4.16c-5.14,1.52-8,4-13.94,3-13.71-2.42-22.93-17.66-22.37-30.93.21-5,1.75-9.89,2.65-14.84s1.12-10.29-1.14-14.79-6.88-7.6-11.27-10.31c-3.28-2-6.64-4-9.28-6.84-8-8.45-8.4-23.69-4.84-34.2-9.64,10-22.22,17.1-30.89,28-8.55,10.74-12.51,24.23-14,37.7a151.83,151.83,0,0,0-.77,20.45c0,2,1.85,18.47.19,19.2-5.83,2.57-12.12,1.68-15.72-3.91a22.17,22.17,0,0,1-2.73-9.2c.22,3.91,5,7.5,8.3,8.69a7.15,7.15,0,0,0,6.68-.65c2.47-1.89,2.78-5.43,2.85-8.54.12-5.63.08-11.37-1.51-16.78-2.85-9.71-10-17.43-13.56-26.78a41.94,41.94,0,0,1-.28-29.43,45.22,45.22,0,0,0,6.27,32.14c-3.69-14.16-3-30.74,6.94-41.51,3.81-4.13,8.69-7.1,13.33-10.28,8.42-5.76,16.58-12.85,20.09-22.43a29.87,29.87,0,0,0,.72-18.13c-2.38-8.55-5.26-14.94-4.4-24.05s4.12-18.37,2.74-27.72A49.76,49.76,0,0,0,136,157.62c-3.05-6.18-2.72-13.59-.6-20.15S141.31,125,145,119.25a76.43,76.43,0,0,1-10.94,13.13,96.09,96.09,0,0,0,8-19.36c-.42,1.55-3-.75-3.3-1.32-.77-1.61.55-3.29,1.48-4.57,2.35-3.23,6.16-5.32,9.6-7.14,3.91-2.07,8.14-4.14,12.53-3.64,3.08.35,5.87,1.93,8.72,3.14a38.2,38.2,0,0,0,15.13,3c3.58,0,7.09-.34,10-2.66,2.11-1.68,3.79-3.83,5.84-5.59a20.66,20.66,0,0,1,19.12-4,2.14,2.14,0,0,1,.68-2.91,5,5,0,0,1,3.22-.63A71.74,71.74,0,0,1,233.85,88c2.29.44,4.84.3,7.05.92a4.38,4.38,0,0,1,3.37,3.58c-5.88-1-11.7-.4-17.51-1.37a2.7,2.7,0,0,0-1,0,2.78,2.78,0,0,0-1,.59c-3.39,2.78-7.49,4-11.51,5.54-2.83,1.08-6.5,4.7-9.36,4.69,2.46,6.43-3.64,10.88-8.86,13.5-1.28.64-16.38,5-16.45,3q.28,8.32.55,16.64c4-.37,7.78,1.85,11.21,4a6.59,6.59,0,0,1,2.19,1.86,6.51,6.51,0,0,1,.76,2.25c1.72,8.48,3.55,15.77,1.66,24.43-1.44,6.59-5.3,10.28-3.76,17.73,1.32,6.43,4.67,13.31,2.27,19.89a19.12,19.12,0,0,1-10.4,11.33A10.8,10.8,0,0,1,175.35,217Z"/><g class="cls-44"><path class="cls-29" d="M204.72,98.33a15.7,15.7,0,0,1-5.74,6.74,16.21,16.21,0,0,1-4.1,1.88,17.91,17.91,0,0,1-4.48.66,31.6,31.6,0,0,1-8.88-1.38c-2.87-.78-5.69-1.72-8.55-2.37a40.63,40.63,0,0,0-17.44-.79,27,27,0,0,0-8.21,3,79.66,79.66,0,0,0-7.44,4.85,66.3,66.3,0,0,1,7.19-5.27,27.57,27.57,0,0,1,8.3-3.37c5.89-1.34,12-.77,17.83.57s11.32,3.86,17.19,4A15.82,15.82,0,0,0,204.72,98.33Z"/><path class="cls-29" d="M163.11,104.84a41.61,41.61,0,0,1,5.58.25c1.85.23,3.69.56,5.52,1,3.66.78,7.17,2,10.79,2.59a26.23,26.23,0,0,0,5.44.44,18.14,18.14,0,0,0,5.32-1,19,19,0,0,0,4.87-2.45,12.22,12.22,0,0,0,2.08-1.79,9.12,9.12,0,0,0,1.5-2.3,9.66,9.66,0,0,1-3.28,4.48,19.2,19.2,0,0,1-4.91,2.78,17.49,17.49,0,0,1-5.54,1.24,27.32,27.32,0,0,1-5.65-.4c-3.72-.64-7.24-1.89-10.8-2.84A62.76,62.76,0,0,0,163.11,104.84Z"/><path class="cls-29" d="M167.78,108.41l1.94.68c.65.2,1.3.42,1.95.6,1.31.38,2.63.71,4,1a44.6,44.6,0,0,0,8.05.9,29.86,29.86,0,0,0,8-.89,19.29,19.29,0,0,0,7.23-3.57c-.49.47-1,1-1.51,1.4s-1.12.82-1.7,1.2-1.22.66-1.85,1-1.29.54-1.95.76a25.52,25.52,0,0,1-8.23,1.15,34.39,34.39,0,0,1-8.21-1.16A33.21,33.21,0,0,1,167.78,108.41Z"/><path class="cls-29" d="M167.77,100.21a19.33,19.33,0,0,1,7.31.1,61.37,61.37,0,0,0,7.2,1A34.44,34.44,0,0,0,196.5,99.5a68,68,0,0,0,6.71-2.75A66.37,66.37,0,0,1,210,93.91a27.18,27.18,0,0,1,7.25-1.37c1.23,0,2.45,0,3.66,0a10.46,10.46,0,0,0,3.53-.74,9.51,9.51,0,0,1-3.51,1c-1.23.14-2.45.14-3.65.24a27.51,27.51,0,0,0-7,1.62c-4.5,1.7-8.75,4.19-13.42,5.81a34.15,34.15,0,0,1-14.6,1.63,62.11,62.11,0,0,1-7.23-1.29A20.45,20.45,0,0,0,167.77,100.21Z"/><path class="cls-29" d="M234,92.06a15.23,15.23,0,0,1-6.53-1,44,44,0,0,0-6.29-1.88,40.25,40.25,0,0,0-13-.6,49.43,49.43,0,0,0-12.7,3.09,76.17,76.17,0,0,0-11.83,5.79,61.41,61.41,0,0,1,5.57-3.59,62.34,62.34,0,0,1,6-2.92,47.53,47.53,0,0,1,12.87-3.36,39.09,39.09,0,0,1,13.29.84,45.2,45.2,0,0,1,6.28,2.17A15.94,15.94,0,0,0,234,92.06Z"/><path class="cls-29" d="M178.85,97.47A30.65,30.65,0,0,1,194.91,89c-2.8,1.26-5.54,2.49-8.21,3.91S181.47,95.86,178.85,97.47Z"/><path class="cls-29" d="M239.29,91.51a20.33,20.33,0,0,1-5.27-.37A35.77,35.77,0,0,1,229,89.55c-3.3-1.27-6.42-2.9-9.66-4.11a23.51,23.51,0,0,0-10.08-1.82,19.93,19.93,0,0,0-5.07,1,21.45,21.45,0,0,0-4.75,2.17A18.93,18.93,0,0,1,204,84.12a20.33,20.33,0,0,1,5.18-1.26,22.26,22.26,0,0,1,10.49,1.64c3.32,1.27,6.42,2.92,9.6,4.35A27.15,27.15,0,0,0,239.29,91.51Z"/><path class="cls-29" d="M231.88,88.35a42,42,0,0,0-11.3-5.74A35.75,35.75,0,0,0,208.12,81a58.67,58.67,0,0,0-12.52,1.88c-2.06.51-4.1,1.1-6.13,1.74s-4.06,1.3-6.09,2c2-.87,3.93-1.66,5.93-2.43s4-1.41,6.09-2A54.44,54.44,0,0,1,208.09,80a33.48,33.48,0,0,1,18.57,4.63A38.64,38.64,0,0,1,231.88,88.35Z"/><path class="cls-29" d="M172.25,91.41c2.24-.73,4.49-1.38,6.74-2l6.75-2,6.76-1.91,3.39-.93c1.14-.29,2.26-.61,3.41-.88-1.07.48-2.17.9-3.26,1.34l-3.31,1.21c-2.22.79-4.46,1.47-6.72,2.13s-4.53,1.23-6.83,1.73S174.58,91.08,172.25,91.41Z"/><path class="cls-29" d="M237.1,84.85a34.73,34.73,0,0,0-11.24-8.78,33.94,33.94,0,0,0-6.6-2.64,31.42,31.42,0,0,0-7-.87,72.78,72.78,0,0,0-14.28,1.11c-2.36.4-4.71.93-7,1.56S186.3,76.59,184,77.4a64.92,64.92,0,0,1,6.74-2.64q3.45-1.1,7-1.85a68.07,68.07,0,0,1,14.46-1.35,33,33,0,0,1,7.25,1A22.24,22.24,0,0,1,223,73.78c1.12.48,2.2,1,3.27,1.61a36.23,36.23,0,0,1,6,4.1A29.85,29.85,0,0,1,237.1,84.85Z"/><path class="cls-29" d="M227.38,79.21a35.07,35.07,0,0,0-8.31-2.46,44.19,44.19,0,0,0-8.6-.53,65.81,65.81,0,0,0-8.61.9c-1.43.22-2.86.5-4.28.8s-2.84.61-4.27.9c1.36-.51,2.76-.94,4.15-1.37s2.82-.77,4.25-1.09a48.2,48.2,0,0,1,8.73-1.14,35.5,35.5,0,0,1,8.78.78,32.49,32.49,0,0,1,4.22,1.26A24.89,24.89,0,0,1,227.38,79.21Z"/><path class="cls-29" d="M241.91,88.33A36.57,36.57,0,0,0,236.1,81a37,37,0,0,0-7.42-5.58,38.09,38.09,0,0,0-8.56-3.58l-2.27-.55-2.3-.39-2.33-.26c-.78,0-1.57-.06-2.35-.1.78-.07,1.57-.12,2.36-.16l2.37,0,2.36.26,2.35.43a31.59,31.59,0,0,1,8.87,3.46,32.09,32.09,0,0,1,7.47,5.9l1.55,1.8,1.42,1.91,1.23,2C241.22,86.92,241.57,87.62,241.91,88.33Z"/><path class="cls-29" d="M217.5,69.06a20.39,20.39,0,0,1,8.15.36,18.69,18.69,0,0,1,3.89,1.42A19.19,19.19,0,0,1,233,73.13a24.75,24.75,0,0,1,5.23,6.36,46.88,46.88,0,0,1,3.52,7.36c-.68-1.18-1.32-2.37-2-3.53S238.36,81,237.6,79.9a29.23,29.23,0,0,0-5.22-6,19.61,19.61,0,0,0-6.94-3.73,20.64,20.64,0,0,0-3.91-.85A25.82,25.82,0,0,0,217.5,69.06Z"/><path class="cls-29" d="M232.67,70.82A12.6,12.6,0,0,1,239.94,82a26.34,26.34,0,0,0-2.88-6.08A26,26,0,0,0,232.67,70.82Z"/><path class="cls-29" d="M141,107.63c2-1.73,4.07-3.37,6.15-5s4.16-3.24,6.4-4.68a22.32,22.32,0,0,1,7.35-3.19,15.92,15.92,0,0,1,4-.34,11.61,11.61,0,0,1,3.87.93,13.11,13.11,0,0,0-3.88-.44,15.92,15.92,0,0,0-3.82.59,26.28,26.28,0,0,0-7,3.29c-2.21,1.39-4.31,3-6.49,4.46S143.25,106.23,141,107.63Z"/><path class="cls-29" d="M144.7,102.22c1.84-1,2.91-2.8,4.37-4.32a29,29,0,0,1,4.74-4.11,27.55,27.55,0,0,1,11.55-4.63,44.84,44.84,0,0,0-11,5.45,40.79,40.79,0,0,0-4.76,3.84c-.75.69-1.46,1.45-2.25,2.14A7.6,7.6,0,0,1,144.7,102.22Z"/><path class="cls-29" d="M194.2,147.37c-.88-2.43-1.66-4.9-2.32-7.41a49.48,49.48,0,0,1-1.43-7.66,32.56,32.56,0,0,1,.11-7.83,27.63,27.63,0,0,1,.82-3.82,20.66,20.66,0,0,1,1.46-3.61,31.64,31.64,0,0,0-1.52,7.52,43.34,43.34,0,0,0,.12,7.64c.25,2.54.7,5.07,1.19,7.59Z"/><path class="cls-29" d="M195.34,138.79a36,36,0,0,0,1.88-6,46,46,0,0,0,.88-6.2c.18-2.08.21-4.18.23-6.29,0-1.05,0-2.1,0-3.16s0-2.11,0-3.18c.21,1,.35,2.1.51,3.15s.22,2.11.31,3.17a42.59,42.59,0,0,1,0,6.39A30.71,30.71,0,0,1,198,133l-.51,1.52-.59,1.5-.72,1.43C195.89,137.88,195.62,138.34,195.34,138.79Z"/><path class="cls-29" d="M201.58,112a7.43,7.43,0,0,1-.24,6.9,30.9,30.9,0,0,1,0-3.46A32.39,32.39,0,0,1,201.58,112Z"/><path class="cls-29" d="M156.4,245.66a51.9,51.9,0,0,1,1.8-13.33,41.78,41.78,0,0,1,2.3-6.37c.94-2.05,2-4,3.06-6a60.11,60.11,0,0,0,2.95-6,42.19,42.19,0,0,0,2-6.33,33.52,33.52,0,0,0,.38-13.24,28.11,28.11,0,0,1,1,6.66,35.56,35.56,0,0,1-.59,6.74,35.12,35.12,0,0,1-1.88,6.51,56.89,56.89,0,0,1-2.91,6.1c-1.08,2-2.17,3.91-3.12,5.92a51.56,51.56,0,0,0-2.39,6.2,52.65,52.65,0,0,0-1.59,6.47C156.9,241.21,156.64,243.43,156.4,245.66Z"/><path class="cls-29" d="M173.39,201.23a46.29,46.29,0,0,1-3.09,16.13,50.83,50.83,0,0,1-3.58,7.43,66.94,66.94,0,0,0-3.55,7.34A32.93,32.93,0,0,0,161,239.9a32,32,0,0,0,1.76,16,34.37,34.37,0,0,0,1.67,3.72,38,38,0,0,0,2.13,3.5,30.15,30.15,0,0,1-4.25-7,32.31,32.31,0,0,1-2.21-8,31.55,31.55,0,0,1,2.16-16.32,72.8,72.8,0,0,1,3.68-7.4,58.37,58.37,0,0,0,3.67-7.28,48.64,48.64,0,0,0,2.5-7.75A52.45,52.45,0,0,0,173.39,201.23Z"/><path class="cls-29" d="M189.55,193a33.87,33.87,0,0,1,1.85,9.78,14.36,14.36,0,0,1-.92,4.93,24.71,24.71,0,0,1-2.29,4.46c-1.81,2.81-3.84,5.44-5.47,8.32a39.62,39.62,0,0,0-3.95,9,19,19,0,0,0-.62,9.63,18.82,18.82,0,0,0,4.66,8.42c4.4,4.94,10.64,7.6,16.24,11.24A31.56,31.56,0,0,1,211.79,274a33.11,33.11,0,0,1,1.65,19.81c-1.53,6.6-5,12.39-8,18.31a51.89,51.89,0,0,0-3.82,9.15,23.23,23.23,0,0,0-.77,9.84,23.16,23.16,0,0,1,.54-9.9,50.86,50.86,0,0,1,3.62-9.31c2.86-6,6.26-11.8,7.66-18.26a32.87,32.87,0,0,0-1.75-19.3,31.53,31.53,0,0,0-5-8.4,32,32,0,0,0-7.42-6.38c-2.76-1.8-5.68-3.38-8.52-5.15a35.46,35.46,0,0,1-7.84-6.3,19.69,19.69,0,0,1-4.83-8.85,15.57,15.57,0,0,1-.3-5.09,25.9,25.9,0,0,1,1-5,40.46,40.46,0,0,1,4.15-9.13c1.69-2.89,3.76-5.52,5.6-8.26a23.63,23.63,0,0,0,2.36-4.33,14.12,14.12,0,0,0,1-4.81A33.36,33.36,0,0,0,189.55,193Z"/><path class="cls-29" d="M216.32,273.86a28.16,28.16,0,0,1,1.8,6.84,32,32,0,0,1-1.19,14.07l-.58,1.67-.67,1.64-.79,1.59c-.28.52-.58,1-.88,1.53.21-.55.42-1.1.64-1.64l.57-1.65.53-1.67.44-1.68a44,44,0,0,0,1.17-13.78A46.82,46.82,0,0,0,216.32,273.86Z"/><path class="cls-29" d="M202.69,340.14a15.07,15.07,0,0,1-4.48-1.63,16.6,16.6,0,0,1-3.73-3,22.46,22.46,0,0,1-4.76-8.29,28,28,0,0,1-1.25-9.53,63.49,63.49,0,0,1,1.1-9.54c1.11-6.29,2.8-12.48,2.83-18.81a30.94,30.94,0,0,0-1.2-9.3,19.41,19.41,0,0,0-1.84-4.29,19.16,19.16,0,0,0-1.27-1.95c-.5-.59-1-1.21-1.52-1.75-2.18-2.23-4.9-3.91-7.47-5.83a37.12,37.12,0,0,1-6.94-6.72,25.57,25.57,0,0,1-4.46-8.58,26.73,26.73,0,0,1-.91-9.62,38.61,38.61,0,0,1,2.06-9.4,88.13,88.13,0,0,1,3.81-8.8,68.94,68.94,0,0,0,3.62-8.82,27.69,27.69,0,0,0,1.41-9.39,27.8,27.8,0,0,1-1.18,9.46,71.15,71.15,0,0,1-3.4,9,88.15,88.15,0,0,0-3.66,8.79,37.82,37.82,0,0,0-1.89,9.26,26.55,26.55,0,0,0,1,9.31,24.6,24.6,0,0,0,4.35,8.27,36.12,36.12,0,0,0,6.79,6.51c2.53,1.88,5.31,3.56,7.61,5.9a23.73,23.73,0,0,1,1.6,1.86,20.11,20.11,0,0,1,1.33,2.06,20.59,20.59,0,0,1,1.9,4.49,31.84,31.84,0,0,1,1.2,9.59c-.08,6.48-1.77,12.72-3,18.94a61.35,61.35,0,0,0-1.23,9.42,27.63,27.63,0,0,0,1.08,9.36,22.12,22.12,0,0,0,4.48,8.28,16.28,16.28,0,0,0,3.61,3.06A14.93,14.93,0,0,0,202.69,340.14Z"/><path class="cls-29" d="M192.54,271a12.38,12.38,0,0,1,4.89,4.82,18.55,18.55,0,0,1,2.18,6.6,35.54,35.54,0,0,1-1.55,13.76c-1.3,4.43-3,8.7-4.15,13.11a31.9,31.9,0,0,0-.95,13.54,26.34,26.34,0,0,1-.74-6.86,35.2,35.2,0,0,1,.95-6.86c1-4.52,2.72-8.81,3.93-13.21a36.36,36.36,0,0,0,1.75-13.39,17.83,17.83,0,0,0-1.85-6.46A12.76,12.76,0,0,0,192.54,271Z"/><path class="cls-29" d="M223.52,339.15a15.41,15.41,0,0,1-8.12,3.55,17.37,17.37,0,0,1-12.7-3.84,18.46,18.46,0,0,1-3.21-3.22,19,19,0,0,1-3.69-8.25,30,30,0,0,1-.14-9,52,52,0,0,1,1.92-8.76c.86-2.86,1.88-5.66,3-8.43l3.39-8.24c-1.89,5.63-4.07,11.17-5.61,16.88s-2.64,11.63-1.54,17.38a18.78,18.78,0,0,0,10.1,13.36A16,16,0,0,0,223.52,339.15Z"/><path class="cls-29" d="M208.89,345a24.64,24.64,0,0,1-10.39-2.87,27.53,27.53,0,0,1-8.35-6.95,24.72,24.72,0,0,1-4.82-9.78,32,32,0,0,1-.5-10.9c.8-7.23,3-14.18,3.09-21.34A24.12,24.12,0,0,0,186,282.71a18.48,18.48,0,0,0-2.82-4.53,14.93,14.93,0,0,0-4.19-3.33,14.1,14.1,0,0,1,4.38,3.16,18.34,18.34,0,0,1,3.07,4.49,24.6,24.6,0,0,1,2.27,10.62c.05,7.33-2.16,14.34-2.86,21.44a31.09,31.09,0,0,0,.38,10.59,24.85,24.85,0,0,0,4.55,9.51A26.34,26.34,0,0,0,208.89,345Z"/><path class="cls-29" d="M109.26,308.76c-3.34-7.68-9.11-13.81-13.89-20.63A42.56,42.56,0,0,1,89.56,277c-.35-1-.54-2-.83-3.06s-.4-2.06-.49-3.11a36,36,0,0,1-.2-6.31,39.12,39.12,0,0,1,9.86-22.75,63.17,63.17,0,0,1,9.23-8.46,115.53,115.53,0,0,1,10.42-6.86c-3.46,2.3-6.9,4.64-10.12,7.25a62.49,62.49,0,0,0-8.94,8.57A43.8,43.8,0,0,0,92,252.7,35.47,35.47,0,0,0,89,264.59a35,35,0,0,0,.15,6.14c.07,1,.31,2,.46,3s.44,2,.78,3a43.82,43.82,0,0,0,5.58,11c2.3,3.44,4.86,6.72,7.24,10.14A51.65,51.65,0,0,1,109.26,308.76Z"/><path class="cls-29" d="M99.48,286.44a26.41,26.41,0,0,1-4.26-5.94,27.59,27.59,0,0,1-2.47-6.92,27.09,27.09,0,0,1-.51-7.35A35.87,35.87,0,0,1,93.4,259a34.51,34.51,0,0,1,6.74-13,68.8,68.8,0,0,1,10.91-9.71c-1.8,1.63-3.64,3.22-5.38,4.91a50.22,50.22,0,0,0-4.93,5.29,34.83,34.83,0,0,0-6.37,12.78,32.46,32.46,0,0,0-.87,14.23,27.16,27.16,0,0,0,2.16,6.85A28.43,28.43,0,0,0,99.48,286.44Z"/><path class="cls-29" d="M108,295.19a9.47,9.47,0,0,0-1.8-5.67c-1.09-1.7-2.42-3.22-3.65-4.84a25.73,25.73,0,0,1-4.83-11.1,29.84,29.84,0,0,1,.38-12.16,38.78,38.78,0,0,1,4.77-11.22,47.69,47.69,0,0,1,7.62-9.54,108.59,108.59,0,0,1,9.33-7.83c3.19-2.48,6.39-5,9.3-7.71a43.64,43.64,0,0,0,7.52-9.3,51.09,51.09,0,0,0,6.93-22.8,61.14,61.14,0,0,0-.33-12c-.49-4-1.45-7.91-2.3-11.88a58.26,58.26,0,0,1-1.64-12.07,40,40,0,0,1,.38-6.09,46.14,46.14,0,0,1,1.29-6c2.24-7.84,6.26-15,10.75-21.71-4.35,6.8-8.22,14-10.28,21.84a47.44,47.44,0,0,0-1.2,5.9,40.35,40.35,0,0,0-.31,6A58.17,58.17,0,0,0,141.67,169a118.82,118.82,0,0,1,2.41,11.93,62.18,62.18,0,0,1,.38,12.2,52,52,0,0,1-7,23.24,44.38,44.38,0,0,1-7.73,9.48,121.42,121.42,0,0,1-9.4,7.74,107.67,107.67,0,0,0-9.28,7.73,49.57,49.57,0,0,0-7.57,9.32,38.37,38.37,0,0,0-4.81,11,29.26,29.26,0,0,0-.51,11.93,25.28,25.28,0,0,0,4.55,11c1.18,1.63,2.49,3.19,3.56,4.91A9.61,9.61,0,0,1,108,295.19Z"/><path class="cls-29" d="M102,277.27a36.94,36.94,0,0,1,2.57-20.87,36.06,36.06,0,0,1,5.7-9,63.91,63.91,0,0,1,7.76-7.32c2.73-2.27,5.51-4.46,8.07-6.87a78.54,78.54,0,0,0,7.19-7.74,65.61,65.61,0,0,0,10.48-18.21A52.17,52.17,0,0,0,147,186.57c-.25-7-1.6-14-2.11-21.13A64.21,64.21,0,0,1,155,124.79a65.83,65.83,0,0,0-9.32,40.59c.64,7,1.95,14,2.26,21.15a53,53,0,0,1-3.26,21.05A66,66,0,0,1,133.94,226a79.18,79.18,0,0,1-7.3,7.8c-2.6,2.44-5.42,4.61-8.17,6.84a62.75,62.75,0,0,0-7.78,7.14A35.69,35.69,0,0,0,105,256.6,36.76,36.76,0,0,0,102,277.27Z"/><path class="cls-29" d="M162.05,111.71a30.41,30.41,0,0,1,.59,11.09,83.09,83.09,0,0,1-2.2,10.94c-.93,3.6-1.9,7.19-2.57,10.83a71.41,71.41,0,0,0-1.07,11c-.2,7.41.28,14.83.15,22.29a76.06,76.06,0,0,1-3.41,22.1,73.62,73.62,0,0,1-9.91,20c-4.28,6.16-9.66,11.4-14.88,16.66s-10.29,10.78-13.61,17.43a35.28,35.28,0,0,0-3.53,10.47,26.94,26.94,0,0,0-.31,5.53,24.88,24.88,0,0,0,1,5.48,25.5,25.5,0,0,1-1.09-5.47,28.14,28.14,0,0,1,.19-5.58,36.28,36.28,0,0,1,3.34-10.65c3.27-6.77,8.37-12.39,13.5-17.74s10.5-10.55,14.68-16.65a73,73,0,0,0,9.71-19.82,75.32,75.32,0,0,0,3.46-21.81c.17-7.41-.34-14.85,0-22.31a73,73,0,0,1,1.22-11.12c.72-3.67,1.74-7.25,2.72-10.83a82.87,82.87,0,0,0,2.43-10.85A30.25,30.25,0,0,0,162.05,111.71Z"/><path class="cls-29" d="M99,319.12a11,11,0,0,0-1.12,4.94,8.55,8.55,0,0,0,1.38,4.67,7.66,7.66,0,0,0,3.86,2.88,7.2,7.2,0,0,0,5,0,6.45,6.45,0,0,1-5.19.78,7.61,7.61,0,0,1-4.47-3.07A8.39,8.39,0,0,1,97.11,324,8.82,8.82,0,0,1,99,319.12Z"/><path class="cls-29" d="M103.67,327.86a4.09,4.09,0,0,0,1.9,0,5.11,5.11,0,0,0,1.67-.68c1.06-.62,1.93-1.61,3.06-2.44a7.18,7.18,0,0,1-1,1.83,5.59,5.59,0,0,1-1.56,1.46,4,4,0,0,1-2.12.6A2.57,2.57,0,0,1,103.67,327.86Z"/><path class="cls-29" d="M100.07,335.46a17.9,17.9,0,0,0,4.15.56,18.57,18.57,0,0,0,4.17-.49,6.44,6.44,0,0,1-8.32-.07Z"/><path class="cls-29" d="M126.48,253.2a11.09,11.09,0,0,1,3.57-6.22,38.1,38.1,0,0,1,5.88-4.31c1-.64,2.06-1.27,3.06-1.93s2-1.37,2.92-2.11a35.92,35.92,0,0,0,2.72-2.36l1.3-1.24c.42-.43.81-.89,1.22-1.33a52,52,0,0,0,8-11.91,70.65,70.65,0,0,0,5-13.5c2.49-9.31,3.18-19,3.51-28.66.17-4.83.22-9.67.34-14.51s.31-9.69.74-14.51c-.43,9.68-.15,19.35-.32,29s-.85,19.45-3.3,28.9A72.56,72.56,0,0,1,156,222.2a50.33,50.33,0,0,1-8.27,12c-.42.44-.83.89-1.26,1.32l-1.34,1.25c-.87.85-1.87,1.56-2.81,2.34s-2,1.4-3,2.08-2.08,1.26-3.12,1.88a36.92,36.92,0,0,0-6,4.09A11.16,11.16,0,0,0,126.48,253.2Z"/><path class="cls-29" d="M153.91,207.69a88.06,88.06,0,0,0,4.78-23c.32-3.91.51-7.84.55-11.76s-.05-7.86-.09-11.8c0-7.85.09-15.9,2.38-23.53,1.11-3.8,2.48-7.49,3.4-11.3a28,28,0,0,0,.65-11.66,27.34,27.34,0,0,1-.17,11.77c-.83,3.87-2.13,7.61-3.14,11.39-2.1,7.56-2.24,15.48-2.12,23.32a200.73,200.73,0,0,1-.69,23.64,98.21,98.21,0,0,1-1.92,11.69A68.86,68.86,0,0,1,153.91,207.69Z"/><path class="cls-29" d="M156.64,112.63a4.69,4.69,0,0,1-1.26,6c.29-1.08.58-2,.77-3S156.48,113.74,156.64,112.63Z"/><path class="cls-29" d="M144.73,112.64a57.49,57.49,0,0,1-.62,7.16,21.62,21.62,0,0,1-2.31,6.87c-2.35,4.3-6,7.61-8.73,11.43a22.59,22.59,0,0,0-3.39,6.13,24.47,24.47,0,0,0-1.28,6.9,28.17,28.17,0,0,0,3,13.76,26.21,26.21,0,0,1-2.87-6.6,27.53,27.53,0,0,1-.94-7.18,22.85,22.85,0,0,1,1.19-7.18,23.85,23.85,0,0,1,3.44-6.43c2.92-3.87,6.47-7.13,8.87-11.2a21,21,0,0,0,2.5-6.59C144.17,117.39,144.42,115,144.73,112.64Z"/><path class="cls-29" d="M188.73,164.26a41.39,41.39,0,0,0,0-12.52,44.25,44.25,0,0,0-1.41-6.08c-.62-2-1.35-4-2-5.95a49.77,49.77,0,0,1-1.69-6.14,27.36,27.36,0,0,1-.51-6.38,29.73,29.73,0,0,1,1-6.3,27.73,27.73,0,0,1,2.39-5.86,30.38,30.38,0,0,0-1.91,6,28.79,28.79,0,0,0-.68,6.2,30.4,30.4,0,0,0,.63,6.17,47.86,47.86,0,0,0,1.75,6c1.31,4,2.82,8,3.26,12.25A35.22,35.22,0,0,1,188.73,164.26Z"/><path class="cls-29" d="M182.34,140.27a25.14,25.14,0,0,1-2.78-9,21.25,21.25,0,0,1,1.1-9.34,45.26,45.26,0,0,0-.1,9.23A66.31,66.31,0,0,0,182.34,140.27Z"/><path class="cls-29" d="M175.61,123.94a7.47,7.47,0,0,1,1.74-6.31,18,18,0,0,1-.63,3.22A17.68,17.68,0,0,1,175.61,123.94Z"/><path class="cls-29" d="M133.64,109.63a43.21,43.21,0,0,0-18.44,8.46,40.47,40.47,0,0,0-12.27,16,29,29,0,0,0-1.47,19.81,36.55,36.55,0,0,0,4.41,9.17,87.64,87.64,0,0,0,6.18,8.21,75.94,75.94,0,0,1-6.58-7.94,36.69,36.69,0,0,1-4.74-9.21,26.32,26.32,0,0,1-1.2-10.32,33.17,33.17,0,0,1,2.48-10.1,40.49,40.49,0,0,1,12.72-16.2,42.75,42.75,0,0,1,9-5.15A39.58,39.58,0,0,1,133.64,109.63Z"/><path class="cls-29" d="M105.5,154.07a20.16,20.16,0,0,1-1.69-5.83,24.5,24.5,0,0,1,0-6.11,27.64,27.64,0,0,1,4.33-11.39A35.26,35.26,0,0,1,116.7,122a46.41,46.41,0,0,1,10.69-5.71c-1.8.91-3.58,1.85-5.28,2.92a47.06,47.06,0,0,0-4.94,3.41,36.39,36.39,0,0,0-8.16,8.64,28.27,28.27,0,0,0-4.41,11A23.55,23.55,0,0,0,105.5,154.07Z"/><path class="cls-29" d="M116.88,133a16.79,16.79,0,0,0-.54,6.84,17.06,17.06,0,0,0,2.27,6.47A10.53,10.53,0,0,1,116.88,133Z"/><path class="cls-29" d="M121.71,178.25a40.56,40.56,0,0,1,5.42,5.54,42.08,42.08,0,0,1,4.26,6.53,19.06,19.06,0,0,1,2.3,7.51,13.47,13.47,0,0,1-1.86,7.69,19.8,19.8,0,0,1-12.64,8.83c-5.12,1.22-10.38,1-15.49.43,2.58.05,5.16.13,7.72,0A35.06,35.06,0,0,0,119,213.6a21.94,21.94,0,0,0,6.87-3.12A17.4,17.4,0,0,0,131,205a12.56,12.56,0,0,0,1.82-7.12,19.68,19.68,0,0,0-2.09-7.23A45.28,45.28,0,0,0,121.71,178.25Z"/><path class="cls-29" d="M94.38,214.89a18.34,18.34,0,0,0,7,3.47c2.5.73,5.11,1.13,7.72,1.78a24.9,24.9,0,0,1-8-.82,14.45,14.45,0,0,1-3.74-1.63A9.56,9.56,0,0,1,94.38,214.89Z"/><path class="cls-29" d="M140,113a3.14,3.14,0,0,0,2-.59,10.23,10.23,0,0,0,1.59-1.35,15,15,0,0,1,3.3-2.66,13.77,13.77,0,0,1,8.27-1.76,30.64,30.64,0,0,1,8.15,2.4,54.7,54.7,0,0,0,7.9,2.65,49.64,49.64,0,0,0,16.51,1.47,25.92,25.92,0,0,0,8-1.94,15.36,15.36,0,0,0,6.52-5,15,15,0,0,1-6.32,5.49,26.55,26.55,0,0,1-8.16,2.25,48.48,48.48,0,0,1-16.84-1.26,56.84,56.84,0,0,1-8-2.77,32.35,32.35,0,0,0-7.88-2.49,13.27,13.27,0,0,0-8,1.42,14.66,14.66,0,0,0-3.35,2.44,10.58,10.58,0,0,1-1.69,1.28A3.23,3.23,0,0,1,140,113Z"/></g><path class="cls-2" d="M197.19,73.62l-.8.19a20.47,20.47,0,0,0-7.69,4.4,39.7,39.7,0,0,0-9.95,13.93,70.62,70.62,0,0,0-5.73,35.6c.4,4.07,1,8.12,1.46,12.19a.93.93,0,0,0,.16.5,1,1,0,0,0,.63.26,31.47,31.47,0,0,1,20.91,12.77A31.82,31.82,0,0,1,200.87,164c2.52,10.13.53,21.58-6,29.82-5.95,7.49-15.65,11.16-25.08,10.57a29.43,29.43,0,0,1-20.66-10.77,32.15,32.15,0,0,1-6.89-23.68c1-9.54,6.64-17.95,13.29-24.67a3.43,3.43,0,0,0,1-1.38,3.11,3.11,0,0,0,0-1.18c-1.31-15.57-2.7-31.92,3.15-46.82,6.88-17.53,27.21-29.24,45.86-24.6C202.85,73.15,200.1,73,197.19,73.62Z"/><path class="cls-4" d="M173,127.74c.43,4.4.88,8.77,1.51,13.15a5.49,5.49,0,0,1-4.55-.33,99.89,99.89,0,0,1-.93-27.83,64.31,64.31,0,0,1,8.83-26.26,37.67,37.67,0,0,1,9.69-10.84,19.38,19.38,0,0,1,11.46-4,27.72,27.72,0,0,0,6.57-.39c-1.23.3-2.3,1.18-3.58,1.49-1.59.38-3.23.55-4.83.89l-.8.19a20.47,20.47,0,0,0-7.69,4.4,39.7,39.7,0,0,0-9.95,13.93A70.62,70.62,0,0,0,173,127.74Z"/><path class="cls-4" d="M178.08,141.21c7.18,2,13.74,6,18.1,12.25A31.82,31.82,0,0,1,200.87,164c2.52,10.13.53,21.58-6,29.82-5.95,7.49-15.65,11.16-25.08,10.57a29.43,29.43,0,0,1-20.66-10.77,30.07,30.07,0,0,1-6.87-20.46c.62,8,4.38,16.9,11,21.81a24.92,24.92,0,0,0,7.08,3.56,27.4,27.4,0,0,0,20.41-1.11c7.29-3.6,11.33-10.57,12.77-18.33a30.06,30.06,0,0,0-12.64-29.79,40.79,40.79,0,0,0-15.68-6.13l7.76-.35a3,3,0,0,0,1.49-.32,1.06,1.06,0,0,0,.51-1.3,41.94,41.94,0,0,1-8.08-1.48l5.76-.75a2.29,2.29,0,0,0,1-.29,2.17,2.17,0,0,0,.53-2c.13,1.36.27,2.72.4,4.08A7,7,0,0,1,178.08,141.21Z"/><path class="cls-45" d="M178.78,184c21,21.94,55.8,23.46,83.25,15.26"/><path class="cls-46" d="M243.74,202.49a61.13,61.13,0,0,0,24-6.26"/><path class="cls-7" d="M150.51,182.2c-2.68-5.11-2-12.54.54-17.46,3.84-7.28,12.89-11.22,20.78-8.67a18.41,18.41,0,0,1,11.95,12.68c2.25,8.77-2.43,20.46-11.89,22.57C163,193.3,154.76,190.3,150.51,182.2Z"/><path class="cls-4" d="M163.37,191.74a10.66,10.66,0,0,1-2.17-.73c4.66,2.1,11.18-1.8,13.88-5.34a19.91,19.91,0,0,0,3.82-12,18.61,18.61,0,0,0-4.75-13c-4-4.08-9.2-4.95-14.52-3.69a27,27,0,0,1,5.31-1.74c3.43-.62,7.37.82,10.31,2.57a17.53,17.53,0,0,1,8.53,11c2.25,8.76-2.43,20.45-11.89,22.56A19.1,19.1,0,0,1,163.37,191.74Z"/><polygon class="cls-47" points="679.22 195.56 640.51 223.18 642.41 270.17 707.73 274.6 713.43 225.43 679.22 195.56"/><polygon class="cls-48" points="640.54 223.73 707.73 274.6 642.41 270.17 640.54 223.73"/><polygon class="cls-49" points="713.37 225.95 674.13 249.16 707.73 274.6 713.37 225.95"/><line class="cls-50" x1="642.41" y1="270.17" x2="674.13" y2="249.17"/><polygon class="cls-5" points="674.13 249.16 706.07 230.27 707.73 207.72 650.23 206.24 651.07 231.71 674.13 249.16"/><circle class="cls-29" cx="710.85" cy="225.43" r="8.04"/><path class="cls-5" d="M436.82,289.83H296a15.75,15.75,0,0,1-15.75-15.75l.22-16.87L253,243.88l27.6,2.82.14-10.3A15.75,15.75,0,0,1,296,224.6H436.82a15.75,15.75,0,0,1,15.75,15.75v33.73A15.75,15.75,0,0,1,436.82,289.83Z"/><path class="cls-51" d="M280.63,241.55l.07-5.15A15.75,15.75,0,0,1,296,224.6H436.82a15.75,15.75,0,0,1,15.75,15.75Z"/><path class="cls-5" d="M414.74,233.29a3.63,3.63,0,1,1-3.63-3.63A3.64,3.64,0,0,1,414.74,233.29Z"/><path class="cls-5" d="M427.76,233.29a3.63,3.63,0,1,1-3.63-3.63A3.64,3.64,0,0,1,427.76,233.29Z"/><path class="cls-5" d="M441.35,233.29a3.63,3.63,0,1,1-3.63-3.63A3.64,3.64,0,0,1,441.35,233.29Z"/><text class="cls-52" transform="translate(294.59 272.98)">ONLINE HELP</text><path class="cls-51" d="M393.55,327.76a23,23,0,0,1-4,12.89c.51,5.5,6.58,7.57,14.29,8.62-6.89,3-15,2.57-20.49-2.21a27.68,27.68,0,0,1-16.25,5.18c-14.59,0-26.41-11-26.41-24.48s11.82-24.47,26.41-24.47S393.55,314.24,393.55,327.76Z"/><circle class="cls-29" cx="350" cy="313.55" r="9.69"/><path class="cls-5" d="M358.59,332.16c3.22,0,3.22-5,0-5s-3.22,5,0,5Z"/><path class="cls-5" d="M368.19,332.16c3.22,0,3.22-5,0-5s-3.22,5,0,5Z"/><path class="cls-5" d="M377.83,331.76c3.22,0,3.22-5,0-5s-3.22,5,0,5Z"/><path class="cls-51" d="M714.55,372.2A97.29,97.29,0,1,1,596.89,277l1.54-57.92L612.92,275c1.44-.06,2.88-.09,4.34-.09A97.29,97.29,0,0,1,714.55,372.2Z"/><path class="cls-25" d="M691.35,390.14c6.31-4.69,10.92-12.91,11.29-20.32a24.73,24.73,0,0,0-9.76-20.8c-2.25-1.67-5.24-2.95-7.79-1.82-1.7.76-2.9,2.47-4.7,3a6,6,0,0,1-4.14-.69c-5.2-2.56-8.2-8.2-9.68-13.81s-1.82-11.49-3.5-17c-3.39-11.2-12.36-20.11-23.18-24.27a51.25,51.25,0,0,0-26.95-2.51c-8.12,1.4-18.2,5-24.31,10.66-5.23,4.84-8.41,11.59-10.11,18.51-1.87,7.62-1.11,15.58-3.11,23.24-1.29,4.9-3.71,9.9-8.18,12.29-2.06,1.11-4.4,1.57-6.61,2.35a23.45,23.45,0,1,0,21.28,41.31,17,17,0,0,0,7.71,10,29.94,29.94,0,0,0,12.23,3.93,49.34,49.34,0,0,0,29.36-5.59c7.46-4.06,15-11.86,23.79-12.43,4-.26,7.94.79,11.92.73,1.28,0,2.76-.28,3.39-1.39.89-1.56-.52-3.39-1.83-4.63,6,2.16,12.7,4.32,18.57,1.81A21.13,21.13,0,0,0,691.35,390.14Z"/><path class="cls-53" d="M691.35,390.14c4.49-3.34,8-8.19,7.57-14.07-.28-3.8-2.73-7.57-6.39-8.65-3.19-.94-6.57.2-9.83.88-4.6.95-9.64.9-13.7-1.47-4.3-2.51-6.85-7.22-8.43-11.95-3.7-11.08-3.22-23.4-8.14-34-5.13-11.07-16.09-19.11-28.12-21.18a38.81,38.81,0,0,0-31.61,8.73c-9.55,8.24-11.89,19.87-10.44,32,.91,7.67,2.78,15.27,2.65,23a17.68,17.68,0,0,1-1.82,8.38c-3.28,5.86-8.78,4.2-14,2.51-4.27-1.37-9.15.78-11.82,4.39-4.46,6-4.65,15.79.18,21.53,3,3.57,6.88,4.18,11.44,4.09,1.37,0,13.58-2,13-4.13a17,17,0,0,0,7.71,10,29.94,29.94,0,0,0,12.23,3.93,49.34,49.34,0,0,0,29.36-5.59c7.46-4.06,15-11.86,23.79-12.43,4-.26,7.94.79,11.92.73,1.28,0,2.76-.28,3.39-1.39.89-1.56-.52-3.39-1.83-4.63,6,2.16,12.7,4.32,18.57,1.81A21.13,21.13,0,0,0,691.35,390.14Z"/><path class="cls-12" d="M687.57,402.29c3.16,6.78,5.49,14,8.69,20.73.13.28,1.76,3.12,2.45,2.07a115.33,115.33,0,0,1-15.38,18.83c-5.16,5.12-12.17,9.39-18.47,13.07-17.81,10.38-37.93,13.53-58.19,12-11.07-.82-21.88-4.36-32-8.93,4.3-2.45,7-8.39,9.12-12.61,4.83-9.44,8.95-19.23,12.87-29.08,2.92-7.32,5.6-18.53,12.6-23.12,3.51-2.29,7.63-3.56,11.5-5.08s7.67-3.24,11.48-4.93c7.68-3.42,15.58-6.77,24-7.67,11-1.17,20.35,7.21,26.19,15.63A62.4,62.4,0,0,1,687.57,402.29Z"/><path class="cls-54" d="M687.57,402.29c3.16,6.78,5.49,14,8.69,20.73.13.28,1.76,3.12,2.45,2.07a115.33,115.33,0,0,1-15.38,18.83c-5.16,5.12-12.17,9.39-18.47,13.07-17.81,10.38-37.93,13.53-58.19,12-11.07-.82-21.88-4.36-32-8.93,4.3-2.45,7-8.39,9.12-12.61,4.83-9.44,8.95-19.23,12.87-29.08,2.92-7.32,5.6-18.53,12.6-23.12,3.51-2.29,7.63-3.56,11.5-5.08s7.67-3.24,11.48-4.93a89.7,89.7,0,0,1,20-6.41c0,6.25-2.8,10-6.28,15a6.86,6.86,0,0,0-1.07,2.06A7.33,7.33,0,0,0,645,399q3.4,20.9,6.83,41.8c.54,3.28,1.06,6.71,0,9.87a3.88,3.88,0,0,1-1,1.76,4.79,4.79,0,0,1-2,1,140.32,140.32,0,0,1-47.29,6.43c3.09,3.32,8,4.08,12.53,4.33a99,99,0,0,0,27.4-2.33c6.92-1.57,15.63-5.17,19.93-11.12a8.24,8.24,0,0,0,1.19-4.35c1.46-21.39-8.12-42.84-4.18-63.91a7.23,7.23,0,0,1,1.4-3.57c2.72-3.12,9.59,1.61,12.05,3.35a44.19,44.19,0,0,1,10.52,11A62.4,62.4,0,0,1,687.57,402.29Z"/><path class="cls-11" d="M682.88,392.64c-4.67-7.73-11.57-14.88-21.18-15.36a1.39,1.39,0,0,0-1.24.36,1.36,1.36,0,0,0-.23.71c-1.43,11.43,3.34,22.31,7.23,32.82,4.33,11.7,10.61,22.56,13.07,34.89-.07-.34,4.75-3.91,5.28-4.41a57.57,57.57,0,0,0,5-5.36c2.79-3.4,5.21-7.12,7.75-10.7-2.11-1.32-2.7-4.58-3.52-6.76-1.15-3.06-2.34-6.11-3.61-9.13A132.57,132.57,0,0,0,682.88,392.64Z"/><path class="cls-55" d="M675.66,395.62q-2.5-6.06-5.1-12.05c-.14-.31-.27-.7,0-1a1,1,0,0,1,.84-.21l2.88.2a19.16,19.16,0,0,0-12.53-5.31,1.39,1.39,0,0,0-1.24.36,1.36,1.36,0,0,0-.23.71c-1.43,11.43,3.34,22.31,7.23,32.82,4.33,11.7,10.61,22.56,13.07,34.89-.07-.34,4.75-3.91,5.28-4.41,1.3-1.22,4.11-3.29,4.65-5,.63-2-1.05-4.87-1.74-6.8Q686,422,683,414.26,679.47,404.89,675.66,395.62Z"/><path class="cls-11" d="M677.12,437.84q-5.82-1.3-11.54-3-5.48-1.68-10.81-3.77c-2.78-1.09-5.89-2.82-7.86.59a6.7,6.7,0,0,0-.76,2.92c-.36,5.18,1.55,9.34,6.17,11.61q7.59,3.74,15.29,7.23a3.25,3.25,0,0,0,1.48.4,3.34,3.34,0,0,0,1.5-.62c3.3-2.07,6.59-4.17,9.7-6.52,2.77-2.07,4.93-4.75,7.62-6.8Q682.48,439,677.12,437.84Z"/><path class="cls-56" d="M678.42,443.1a60,60,0,0,1-6.63,1.24,26.85,26.85,0,0,1-8.25,0,12.74,12.74,0,0,1-7.22-3.74,1.58,1.58,0,0,1-.43-.69,1.76,1.76,0,0,1,.11-.85,11.88,11.88,0,0,0,.65-4.25c-.29-4.23-7.26-7.51-9.74-3.21a6.7,6.7,0,0,0-.76,2.92c-.36,5.18,1.55,9.34,6.17,11.61q7.59,3.74,15.29,7.23a3.25,3.25,0,0,0,1.48.4,3.34,3.34,0,0,0,1.5-.62c3.3-2.07,6.59-4.17,9.7-6.52a40,40,0,0,0,3.72-3.29c.73-.71,2-2.64,2.91-3A60.68,60.68,0,0,1,678.42,443.1Z"/><path class="cls-15" d="M624,387.56A14.56,14.56,0,0,1,617.09,398c2,1.68,4.72,2.1,7.3,2.08a27.34,27.34,0,0,0,24.92-18c-3.76.83-7.63-1.62-9.68-4.89a21.24,21.24,0,0,1-3-11.69c-1.34,1-15.4,10.75-16.54,9C622.61,378.45,624.66,382.86,624,387.56Z"/><path class="cls-57" d="M624,387.56c-.46,3.46-2.57,7.82-5.62,9.72,4.8.05,9.55-2.47,12.92-5.74a30.55,30.55,0,0,0,7.4-12.42,4.76,4.76,0,0,0,.33-2.49c-.85-3.83-2.75-6.83-2.47-11.08-1.34,1-15.4,10.75-16.54,9C622.61,378.45,624.66,382.86,624,387.56Z"/><path class="cls-15" d="M658,337.86a23,23,0,0,0-.2-15.21,9.16,9.16,0,0,0-2.39-3.83c-2.14-1.85-5.92-1.32-7.1,1.39a9.69,9.69,0,0,0-.61,3.08c-1-7.48-3-14.62-8.6-20-7.73-7.48-19.53-9.41-30.15-7.67-9.81,1.61-15.76,6.53-21.16,14.52a27.26,27.26,0,0,0-4.87,16.22c.27,6.69,3.39,12.71,4.56,19.22,1.14,6.36,1.53,13.14,5,18.8a25.47,25.47,0,0,0,12.79,10.1c7.45,2.86,16.33,3.91,23.67.38a20.59,20.59,0,0,0,1.84-1,43.59,43.59,0,0,0,12.89-12.16c3.5-5,6-11.57,5.86-17.75a2.61,2.61,0,0,0,3.39,1.4,6.14,6.14,0,0,0,2.93-2.79A22.27,22.27,0,0,0,658,337.86Z"/><path class="cls-58" d="M654.89,336.36a17.8,17.8,0,0,0,.53-10.56c-.29-1.12-.95-2.41-2.1-2.45s-1.75.89-2.18,1.79c-1.6,3.3-1.36,7.16-1.09,10.82-3.81-5.11-1.9-11.49-3.12-17.26s-3.52-11.3-7.82-15.45c-7.73-7.48-19.53-9.41-30.15-7.67-9.81,1.61-15.76,6.53-21.16,14.52a27.26,27.26,0,0,0-4.87,16.22,11.13,11.13,0,0,0,.46,2.34,99.64,99.64,0,0,0,7.75-10.75c-.44.95.58,2.08,1.63,2.12a4.27,4.27,0,0,0,2.8-1.29,21.21,21.21,0,0,0,4.5-5.35c-.32,1.38.94,2.72,2.32,3a7.56,7.56,0,0,0,4.13-.68c3.41-1.26,7.12-3.08,8.29-6.53a3,3,0,0,0,2.31,4,3.57,3.57,0,0,0,3.72-3.17c-.11,1.17,1.32,2.69,2.17,3.3,1.59,1.16,2.73.21,4.3.77a2.12,2.12,0,0,1,.77.63,38,38,0,0,1,7.1,13.59,71.57,71.57,0,0,1,3.14,23.81c-.27,8.61-5.29,15.88-12.83,19.94a32.55,32.55,0,0,1-18.5,3.42A47.39,47.39,0,0,0,619.53,377a23.55,23.55,0,0,0,9.38-2.22,20.59,20.59,0,0,0,1.84-1,43.59,43.59,0,0,0,12.89-12.16c3.5-5,6-11.57,5.86-17.75a2.61,2.61,0,0,0,3.39,1.4c1.77-.63,1.77-2.26,3.1-3.18a3.17,3.17,0,0,1-3.71-.38,6,6,0,0,1-1.83-3.49,11.44,11.44,0,0,1-.12-3.87,4.3,4.3,0,0,1,.85-2.23,2,2,0,0,1,2.17-.64,2.76,2.76,0,0,1,1.28,2.1A13.25,13.25,0,0,1,654.89,336.36Z"/><g class="cls-34"><path class="cls-15" d="M654.58,324.9a1.35,1.35,0,0,0,0-1,1,1,0,0,0-.79-.46,1.75,1.75,0,0,0-1.64.76,9,9,0,0,0-1.29,3.77,23.36,23.36,0,0,0,.19,8.13,18.84,18.84,0,0,0,.52,2,1.51,1.51,0,0,0,.35.68c.09.06.13.08.37-.07a5.7,5.7,0,0,0,1.84-3.27,5.86,5.86,0,0,0,0-2,1.73,1.73,0,0,0-2.68-1.5,6.93,6.93,0,0,0-1.61,1.27,5.86,5.86,0,0,1,1.48-1.5,2.4,2.4,0,0,1,2.17-.27,1.83,1.83,0,0,1,.87.82,5,5,0,0,1,.39,1.05,6.51,6.51,0,0,1,.12,2.2,6.15,6.15,0,0,1-2,3.92,1.42,1.42,0,0,1-.7.31,1.13,1.13,0,0,1-.84-.25,2.29,2.29,0,0,1-.66-1.12,16.6,16.6,0,0,1-.58-2.06,21.06,21.06,0,0,1,0-8.48,9.44,9.44,0,0,1,1.68-3.94,2.16,2.16,0,0,1,.94-.65,2.33,2.33,0,0,1,1.11-.06,1.16,1.16,0,0,1,.88.66A1.37,1.37,0,0,1,654.58,324.9Z"/></g><g class="cls-34"><path class="cls-15" d="M605.57,337.86A17.78,17.78,0,0,1,607,342.5a21.15,21.15,0,0,1,.31,4.9,29.17,29.17,0,0,1-.66,4.85,39.69,39.69,0,0,1-1.3,4.69l-.33-.47a7.14,7.14,0,0,0,2.81-.33,8.14,8.14,0,0,0,2.61-1.32,7.18,7.18,0,0,1-2.45,1.75,7.34,7.34,0,0,1-3,.64h-.44l.11-.46c.37-1.57.75-3.12,1.06-4.68a40,40,0,0,0,.66-4.72,29,29,0,0,0,0-4.75A29.86,29.86,0,0,0,605.57,337.86Z"/></g><path class="cls-29" d="M614.79,362.74c2.36-1.12,6.26-4.61,6.75-7.34a121.38,121.38,0,0,0-18.32,6.35C605.92,363.68,611.82,364.14,614.79,362.74Z"/><path d="M619.39,341.87a6.66,6.66,0,0,1,.18-3.85,5.59,5.59,0,0,1,1.08-1.85,4.18,4.18,0,0,1,2.22-1.28,4.85,4.85,0,0,1,2.34.17,6.64,6.64,0,0,1,1.83.9,7.81,7.81,0,0,1,2.48,2.9,35,35,0,0,1-3.48-.76,7,7,0,0,0-2.6-.26,1.91,1.91,0,0,0-.82.38,6.07,6.07,0,0,0-1,.94C620.93,339.94,620.26,340.89,619.39,341.87Z"/><path d="M600.2,346.09a18.22,18.22,0,0,1-3.18-.73,8.59,8.59,0,0,0-2.35-.46,2.07,2.07,0,0,0-.69.12,2.17,2.17,0,0,0-.76.57,18.8,18.8,0,0,0-1.73,2.5,4.64,4.64,0,0,1-.37-3.58,3.73,3.73,0,0,1,1.23-1.82,3.81,3.81,0,0,1,2.26-.79,5.51,5.51,0,0,1,3.56,1.41A7.37,7.37,0,0,1,600.2,346.09Z"/><path class="cls-39" d="M623.25,343c4.46-2.85,12-4.27,16.26-1,3.9,3,0,7.19-3.5,8-2.32.52-4.73.34-7.07.75-1.94.35-3.74,1.37-5.68,1.58a4,4,0,0,1-3-.74,3.86,3.86,0,0,1-1-4.09,8,8,0,0,1,2.66-3.51A12.71,12.71,0,0,1,623.25,343Z"/><path class="cls-39" d="M591.15,354.19c0,.15,0,.29,0,.44-.21,5.08,5.29,2.13,7.78,1.64s6.15-3.11,2.94-5.41c-2.16-1.54-6.07-1.1-8.27.14A4.73,4.73,0,0,0,591.15,354.19Z"/><path class="cls-29" d="M588.74,339.32a5.69,5.69,0,0,1-1.32-4.47,6.08,6.08,0,0,1,.83-2.47,5.39,5.39,0,0,1,7.57-1.79,4.69,4.69,0,0,1,2.31,4.15,8.56,8.56,0,0,0-3.53-1.25,4,4,0,0,0-2.37.41,5.06,5.06,0,0,0-1.81,1.85A20.38,20.38,0,0,0,588.74,339.32Z"/><path class="cls-29" d="M613.57,330.44a8.3,8.3,0,0,1,.69-5.7,7.85,7.85,0,0,1,5-3.9,9,9,0,0,1,6.12.56,6.78,6.78,0,0,1,3.83,4.34,13.92,13.92,0,0,0-4.75-1.33,12.14,12.14,0,0,0-4.17.29,8.05,8.05,0,0,0-3.46,1.85A30.42,30.42,0,0,0,613.57,330.44Z"/><path class="cls-25" d="M647.81,327.77q-.33,4.86-.94,9.71c-.79-2.44-.51-5.16-1.57-7.49a21.75,21.75,0,0,0-3.33-4.47,20.08,20.08,0,0,1-4.36-13.68c-.09,1-.19,2-.29,3.05a9.87,9.87,0,0,1-6.07-7.39c-1.73,1.33-3.61,2.72-5.79,2.88s-4.64-1.53-4.4-3.71a20.06,20.06,0,0,1-2.84,2.37,2.32,2.32,0,0,1-1.38.55,1.74,1.74,0,0,1-1.49-1.57,5.09,5.09,0,0,1,.4-2.3,54.73,54.73,0,0,1-9.64,6.44c-1.08.57-2.36,1.1-3.46.59a2.78,2.78,0,0,1-1.44-2.34,8.25,8.25,0,0,1,.42-2.82q-4,4.07-7.91,8.12c-.46.47-1.27.93-1.66.41a1.1,1.1,0,0,1-.12-.8,20,20,0,0,1,1-4.53A150.38,150.38,0,0,1,583.26,325c-1.33-2.36-2-4.29-1.29-7,2.53-9.58,10.84-18.63,20-22.16,6-2.3,13.4-3,19.81-2.74,6.08.22,12.26,1.8,17.14,5.45,6.23,4.65,9.73,12.18,11.36,19.79-1.27.86-2.13,1.25-2.51,2.84C647.3,323.3,648,325.6,647.81,327.77Z"/><path class="cls-11" d="M651.65,317.88a5,5,0,0,1,.77-.09c-1.48-2.71-1.83-5.9-3.19-8.7a38,38,0,0,0-5.09-7.75,27.63,27.63,0,0,0-12.36-8.23c-13.61-4.63-32.7-1.46-43.11,8.84-3.84,3.8-5.88,9.85-7.35,14.93,4.76-9.95,12.31-16.44,22.95-19.38,9.32-2.58,20.33-2.27,28.67,3.06,8.6,5.49,12.21,14.46,14.85,23.85a8.2,8.2,0,0,1,.68-4.37A4.65,4.65,0,0,1,651.65,317.88Z"/><path class="cls-59" d="M651.65,317.88a5,5,0,0,1,.77-.09c-.45-.84-.54-1.41-1.65-1.41-.38,0-2.06.47-1.89,1.11-1.15-4.36-3.79-8.16-6.62-11.66-3-3.67-6.29-7.2-10.58-9.14-.29-.14-.63-.32-.67-.64a1.2,1.2,0,0,1,.18-.58c1.16-2.43-1.19-3-2.87-3.34-13.31-3.1-29.73,0-39.65,9.82-.85.84-3.22,3-2.74,4.34,3.31.51,6.16-3.09,8.69-4.65a37.66,37.66,0,0,1,9.65-4.14c9.32-2.58,20.33-2.27,28.67,3.06,8.6,5.49,12.21,14.46,14.85,23.85a8.2,8.2,0,0,1,.68-4.37A4.65,4.65,0,0,1,651.65,317.88Z"/><path class="cls-12" d="M591.34,285.89c-2.48-.45-5.26-.47-7.26,1.06a9.08,9.08,0,0,0,7.13,16.3c4.34-.91,8.3-4.6,11.92-7a7.35,7.35,0,0,1,6.44-1.44L619.69,296a10.23,10.23,0,0,0,5.28-.31c2.67-1.17,3.8-4.27,4.55-7.07a15.12,15.12,0,0,0,.74-5.83,5.68,5.68,0,0,0-3.18-4.66,7,7,0,0,0-5,.34c-6.56,2.43-11.32,8-15.77,13.43C601.69,289.61,596.45,286.81,591.34,285.89Z"/><path class="cls-60" d="M627.08,284.35c1.53-7.65-10-1.34-12.34.64-2.68,2.31-4.89,5.1-7.44,7.55a2,2,0,0,1-.73.5,1.87,1.87,0,0,1-1-.07,78.11,78.11,0,0,1-10.37-3.52c-3.35-1.39-10.25-2.92-10.28,2.79,0,2.36,2.27,4.22,4.6,4.59s4.67-.38,6.91-1.12l7.22-2.37c2.68-.89,4.91-.33,7.65-.38a31.4,31.4,0,0,0,9.29-1.83C623.57,290.12,626.44,287.56,627.08,284.35Z"/><path class="cls-60" d="M626.74,284.28c.46-2.26.08-4.12-3.5-3.45a19.65,19.65,0,0,0-8.52,4.16c-2.68,2.31-4.9,5.1-7.45,7.55a2,2,0,0,1-.72.5,1.92,1.92,0,0,1-1-.07,78,78,0,0,1-10.36-3.52c-5.38-2.22-12.35-1.54-9.11,5.75.1-2.08,2.39-3.44,4.47-3.47s4.05.82,6.07,1.29c4.1.94,8.37.24,12.51-.45a11.7,11.7,0,0,0,3-.77,16.5,16.5,0,0,0,3.66-2.82,20.76,20.76,0,0,1,6.22-3.74,4.4,4.4,0,0,1,2.68-.36,1.76,1.76,0,0,1,1.35,2.06A22.13,22.13,0,0,0,626.74,284.28Z"/><path class="cls-11" d="M600.94,293.37a4.35,4.35,0,0,0,.72,3.91,2.46,2.46,0,0,0,1.64,1,1.45,1.45,0,0,0,1.53-.95,2.09,2.09,0,0,0,2.41.32,2.73,2.73,0,0,0,1.81-2,3.52,3.52,0,0,0-.31-1.65c-.11-.3-1.18-5.29-.3-5.13a3.49,3.49,0,0,0-1.7.05,1.68,1.68,0,0,0-1.14,1.17,1.33,1.33,0,0,0-1.23-.46,2.65,2.65,0,0,0-1.25.54A5.87,5.87,0,0,0,600.94,293.37Z"/><polygon class="cls-21" points="542.08 398.63 558.3 449.59 644.24 451.6 638.26 393.38 542.08 398.63"/><path class="cls-61" d="M542.27,398.63l16.22,51,86,2-1.32-12.85c-.83-8-2.34-16.27-2.56-24.3a4.14,4.14,0,0,1-1.94,3.32,13.29,13.29,0,0,1-3.67,1.57c-5.38,1.74-10.77,4.22-14.34,8.61a3.86,3.86,0,0,0-1.07,2.36c0,.88.82,1.79,1.67,1.58a9.07,9.07,0,0,0-3.07,2,2.29,2.29,0,0,0-.71,1.06,1.8,1.8,0,0,0,1,1.86,5.18,5.18,0,0,0,2.21.46c-4.41,1.34-8.93,2.58-13.54,2.53s-9.39-1.54-12.5-4.94c-3.81-4.15-4.49-10.41-3.37-15.93,1-4.88,3.16-10.11,1-14.58-1.76-3.63-5.87-5.47-9.8-6.38-8.92-2.06-18.58-.49-27.62,0C554,398,542.42,399.11,542.27,398.63Z"/><polygon class="cls-6" points="542.08 398.63 543.25 397.39 639.67 391.95 638.26 393.38 542.08 398.63"/><polygon class="cls-5" points="639.67 391.95 645.63 450.21 644.24 451.6 638.26 393.38 639.67 391.95"/><ellipse class="cls-11" cx="588.75" cy="405.87" rx="2.53" ry="2.64"/><path class="cls-15" d="M643.05,421.84a4.19,4.19,0,0,0-.95-.3c-4.15-.82-9.06,1.13-12.9,2.46a5.23,5.23,0,0,0-2.08,1.11,1.87,1.87,0,0,0-.42,2.18c0,.07,2.68-.57,2.94-.62,1-.18,2-.34,3.07-.47,2-.25,4-.37,5.93-.57-4.33.87-8.83,1.88-12.76,4a3.17,3.17,0,0,0-1.4,1.15,1.81,1.81,0,0,0,1.39,2.44,4.69,4.69,0,0,0,1.74-.19,36.23,36.23,0,0,1,9.57-.89.89.89,0,0,0-.28.74,32,32,0,0,0-6.87,1.59,6,6,0,0,0-3.07,1.67,1.41,1.41,0,0,0-.25,1.63c.42.61,1.33.5,2,.33a41.58,41.58,0,0,1,9-1,42.92,42.92,0,0,0-5.12,1.37c-.77.26-3.07.73-3.38,1.54a1.28,1.28,0,0,0,.93,1.54,4.23,4.23,0,0,0,2,0,16.78,16.78,0,0,1,8.17.6c2.27.76,5.57,2.1,7.46-.07.55-.64.37-1.45,1.27-1.67,1.07-.26,2.06,1.51,3.3.38a2.57,2.57,0,0,0,.57-1,10.8,10.8,0,0,0,1.15-4.88c-.13-1.68-1.31-3.41-3-3.56C649.37,428.49,646.37,423.27,643.05,421.84Z"/><g class="cls-62"><path class="cls-40" d="M638.91,425.45a1.49,1.49,0,0,0,.2-.15.33.33,0,0,0,.16-.23.38.38,0,0,0-.12-.21,2.25,2.25,0,0,0-1.55-.4,43.38,43.38,0,0,0-9.54,1.35,2.38,2.38,0,0,0-1.29.6c-.09.11-.46,1-.07.88a55.43,55.43,0,0,1,6.13-1.1c1-.13,2.07-.23,3.1-.3A6.83,6.83,0,0,0,638.91,425.45Z"/><path class="cls-40" d="M638.9,430.72a34.3,34.3,0,0,0-12.73,1.44,2.33,2.33,0,0,1-1.45.1c0,.51.7.85,1.15.93a4.69,4.69,0,0,0,1.74-.19,36.23,36.23,0,0,1,9.57-.89.89.89,0,0,0-.28.74,32,32,0,0,0-6.87,1.59,6,6,0,0,0-3.07,1.67,1.41,1.41,0,0,0-.25,1.63c.42.61,1.33.5,2,.33a41.58,41.58,0,0,1,9-1,42.92,42.92,0,0,0-5.12,1.37c-.77.26-3.07.73-3.38,1.54a1.28,1.28,0,0,0,.93,1.54,4.23,4.23,0,0,0,2,0,16.78,16.78,0,0,1,8.17.6c2.27.76,5.57,2.1,7.46-.07.55-.64.37-1.45,1.27-1.67,1.07-.26,2.06,1.51,3.3.38a2.57,2.57,0,0,0,.57-1,10.8,10.8,0,0,0,1.15-4.88,6.12,6.12,0,0,0-1.14-3,6.62,6.62,0,0,1-1,5.6l-.78-5.8L649.6,436c-.43,1.24-1,2.62-2.21,3.12a4.77,4.77,0,0,1-1.73.23c-2,0-4.15-.23-6.14-.07s-4.23.75-6.34,1.11a9,9,0,0,1-3.1.15c-.26,0-.56-.16-.6-.42s.17-.45.36-.59a12.92,12.92,0,0,1,5-1.83l2.62-.58a1.49,1.49,0,0,0,.72-.29.52.52,0,0,0,.08-.7c-3.49-.17-6.92.81-10.4,1a1,1,0,0,1-.73-.17c-.27-.27-.11-.75.16-1a4,4,0,0,1,1.6-.94,35,35,0,0,1,8-2.05c-.17-.51.25-1,.7-1.32A3.91,3.91,0,0,0,638.9,430.72Z"/></g><path class="cls-15" d="M557.56,423c1.78.1,5.2.83,4.7,3.25-4,.83-8.35.68-12.4,1a2.35,2.35,0,0,0-1.18.3.79.79,0,0,0-.25,1.08c.68.81,3.85.26,4.74.29,2.53.08,5.06.19,7.58.28,1.18.05,2.68.36,2.87,1.52a2.6,2.6,0,0,1-.7,1.86c1.29.17,2.73,1,2.71,2.3a2.27,2.27,0,0,1-1.24,1.83,6.58,6.58,0,0,1-2.22.63l-12,1.95c3.12,0,6.49.41,9.64.59a2.46,2.46,0,0,1,2.12.87,1.69,1.69,0,0,1-.61,2.07,4.88,4.88,0,0,1-2.23.7c-3,.39-7.27,1-10.2-.2a9.6,9.6,0,0,1-3.66-3.23,6.34,6.34,0,0,1-1.76-3.49c0-.42,0-.84.06-1.26a12.46,12.46,0,0,0-.11-1.5c-.25-2.55-.57-7.15,1.28-9.23,2.27-2.53,9.49-1.73,12.68-1.58Z"/><g class="cls-34"><path class="cls-15" d="M547.47,434a29.11,29.11,0,0,1,7.78-1.54,32.87,32.87,0,0,1,4,0,37,37,0,0,0,3.93.16,13.16,13.16,0,0,1-3.92.62l-3.91.25C552.71,433.59,550.12,433.84,547.47,434Z"/></g><path class="cls-5" d="M530.32,374.27H464.66a11.77,11.77,0,0,1-11.76-11.76V349a11.77,11.77,0,0,1,11.76-11.76h65.66a11.74,11.74,0,0,1,7.07,2.36l26.9-7.92-23.62,11.75a11.63,11.63,0,0,1,1.41,5.57v13.55A11.77,11.77,0,0,1,530.32,374.27Z"/><text class="cls-63" transform="translate(471.79 365.24)">HELP</text><path class="cls-51" d="M459,121.85a88.86,88.86,0,0,1-5.42,31.21s-.53,3.79-9.39,17.27a86.72,86.72,0,0,1-135.72,10.24c-4.32,3.74-12.55,7.22-22.19,10.6,7.7-5.85,14.77-11.77,15.85-18.34a86.72,86.72,0,1,1,156.87-51Z"/><path class="cls-5" d="M454.51,149.36l0-.2c0-.08-10.1.26-10.83.3a116.32,116.32,0,0,0-17.26,1.85c-12.49,2.53-24.28,7.59-35.81,12.88-2.6,1.19-5.06,2.58-7.67,3.7-8.64,3.69-17.24,7.47-25.72,11.5l-.46.22a42.14,42.14,0,0,0-9.45,5.64c-4.95,4.2-7.62,10.07-10.61,15.66.15-.28,4.83,2.45,5.26,2.61a84.67,84.67,0,0,0,39,4.71A96.08,96.08,0,0,0,412.37,199c9.92-5,18.1-12.17,25.59-20.29a73.57,73.57,0,0,0,10-13.83C450.52,160.34,453.7,154.58,454.51,149.36Z"/><path class="cls-15" d="M401.35,180.05c8.23-2.36,15.72-6.72,21.12-13.35,1.46-1.79,2.56-4.82.61-6-1-.62-2.27-.35-3.42-.17-10.06,1.56-12.38-13.55-13.68-20.41.33,1.76-12.42,8.43-14.08,9.33-5,2.68-9.78,4.92-15.35,5.92,4.12,7.06,5.68,19-4,22.54,0,2.4,3,3.48,5.35,3.79A58.59,58.59,0,0,0,401.35,180.05Z"/><path class="cls-64" d="M396.06,172.41l.76-.52a37,37,0,0,0,8.73-7.91c2.43-3.21,4.67-7.77,3.39-11.73a98.2,98.2,0,0,1-3-11.94c.33,1.75-12.42,8.43-14.08,9.32-5,2.68-9.78,4.93-15.35,5.93,4.12,7.06,5.68,19-4,22.53,0,3.76,9.85.88,12,.18A47.5,47.5,0,0,0,396.06,172.41Z"/><path class="cls-15" d="M328.68,99.87l1.28,2.46q7.5,14.33,14.48,28.93c6,12.61,13.37,26.7,29.06,27.63,8.79.52,17.41-2.83,24.91-7.44,8.37-5.16,13.34-12,16.08-21.4,2.55-8.76,3.32-18.57,1-27.36.55,2,3.45,2.57,5.23,1.44s2.61-3.26,3.17-5.29a39,39,0,0,0-.53-22.33c-1.53-4.69-4.48-9.49-9.26-10.71a6.38,6.38,0,0,0-4.63.41c-3,1.63-3.4,5.8-2.59,9.11-4.88-10.45-9.7-22.08-19.06-29.39-12.92-10.08-30.25-6.11-43.77.16-12.56,5.83-23.83,16.5-23.06,31.37C321.36,85.34,325,92.9,328.68,99.87Z"/><path class="cls-65" d="M328.68,100.13c.9,1.74,1.64,3,3.83,1.68A24,24,0,0,0,339.76,95a3.29,3.29,0,0,0,.64,4.46,5.2,5.2,0,0,0,4.77.66,13.06,13.06,0,0,0,4.27-2.57C356.31,91.91,362,85,367.25,77.89A10.78,10.78,0,0,0,367.2,82a3.66,3.66,0,0,0,2.69,2.84c1.42.24,2.76-.67,3.89-1.56a79.65,79.65,0,0,0,15.1-15.64,24.14,24.14,0,0,1-.3,3.15c0,1,.5,2.29,1.54,2.44a2.83,2.83,0,0,0,1.94-.73l4.67-3.29c6.19,6.32,10,14.54,13.67,22.58l3.06,6.67c1,2.09,1.58,5.38,4.08,6.26,3.44,1.22,5.56-2.89,6.31-5.62a20.44,20.44,0,0,0,.91-7.76,11.78,11.78,0,0,1-1.54,4.82A4,4,0,0,1,418.83,98a5.8,5.8,0,0,1-2.53-2.24c-2.56-3.44-4.29-7.64-1.06-11.36a14.2,14.2,0,0,1,3.59,12.41c.23-1.17,1.54-2.24,1.81-3.56a23.69,23.69,0,0,0,.2-4.22,35.47,35.47,0,0,0-1.21-9.67,21.8,21.8,0,0,0-3-6.82,3.59,3.59,0,0,0-2.16-1.72,2.64,2.64,0,0,0-2.55,1.38,6.73,6.73,0,0,0-.74,3,33,33,0,0,0,1.7,13.23c-2.1-4.8-4.16-9.76-4.41-15a11.63,11.63,0,0,1,.58-4.62,5.83,5.83,0,0,1,3.05-3.37c-2.22.93-4,1.19-5,3.73-.68,1.84-1.15,4.57-.28,6.43-4.88-10.45-9.7-22.08-19.06-29.39-12.92-10.08-30.25-6.11-43.77.16-12.56,5.83-23.83,16.5-23.06,31.37C321.36,85.6,325,93.16,328.68,100.13Z"/><g class="cls-34"><path class="cls-15" d="M360.87,87.81a34,34,0,0,1,5,8,39.14,39.14,0,0,1,1.69,4.45,26.13,26.13,0,0,1,1,4.74,36.64,36.64,0,0,1,.13,4.79l-.24,4.53c.05.94,1.58,1.85,2.84,1.55a9.14,9.14,0,0,0,3.83-2.29,8,8,0,0,1-3.56,3.24,3.84,3.84,0,0,1-2.69-.07,3.08,3.08,0,0,1-2-2.17,10,10,0,0,1-.09-1.31v-1.18l0-2.33a38.1,38.1,0,0,0-.22-4.55,26.88,26.88,0,0,0-.83-4.42c-.37-1.49-.85-3-1.33-4.4A83.58,83.58,0,0,0,360.87,87.81Z"/></g><path d="M346.09,104.25c-.76,1.23-.89,2.66.58,3.68,1.89,1.31,5.92-.27,6.24-2.59a3,3,0,0,0-4.12-3.36A5.85,5.85,0,0,0,346.09,104.25Z"/><path d="M386.9,85.93c-.76,1.23-.89,2.66.58,3.68,1.89,1.31,5.92-.27,6.24-2.59a3,3,0,0,0-4.11-3.36A5.87,5.87,0,0,0,386.9,85.93Z"/><path class="cls-39" d="M394,97.13a17.47,17.47,0,0,0-8.2,7.57,3.94,3.94,0,0,0-.54,2.2,3.05,3.05,0,0,0,2.63,2.36c5.59.95,12.77-3,16.14-7.21a7.19,7.19,0,0,0,1.57-3c1-5-5.21-4.27-8.25-3.27A25.43,25.43,0,0,0,394,97.13Z"/><path class="cls-39" d="M352.44,115.45c-2.75,1.21-5.33,2.76-7,5.36-1.47,2.29-1,4.21,1.56,5.14a9.08,9.08,0,0,0,4.46.22c4.45-.65,11.61-3.7,12.62-8.72s-5.22-4.26-8.26-3.27C354.65,114.56,353.52,115,352.44,115.45Z"/><path class="cls-29" d="M369.36,130.29c4-1.89,8.09-3.62,12-5.64a66.11,66.11,0,0,0,6-3.42c.7-.46,4.09-2.16,3.83-3.15a18,18,0,0,1,.61,6.35c-.5,5-4.54,8.9-9.14,10.52a11.75,11.75,0,0,1-9.16-.38,11.54,11.54,0,0,1-4.41-4.17Z"/><path class="cls-5" d="M369.36,130.29c4-1.89,8.09-3.62,12-5.64a66.11,66.11,0,0,0,6-3.42,16.28,16.28,0,0,0,3.8-2.68,7.51,7.51,0,0,1-1.86,5.18,17,17,0,0,1-4.35,3.55,45.68,45.68,0,0,1-6.06,3.13c-2.66,1.13-7.8,3-9.8,0Z"/><path class="cls-2" d="M376.73,75.14a6.29,6.29,0,0,1-.36-5.71,8.82,8.82,0,0,1,4-4.46,8.49,8.49,0,0,1,6-.88,6.92,6.92,0,0,1,4.54,3.41c-1.93.53-3.4.87-4.61,1.31a21.63,21.63,0,0,0-3,1.41,29.22,29.22,0,0,0-3,1.85A23.17,23.17,0,0,0,376.73,75.14Z"/><path class="cls-2" d="M346.83,87.06a6.34,6.34,0,0,0-2.62.08,8.08,8.08,0,0,0-1.88.73,22.63,22.63,0,0,0-3.23,2,14.66,14.66,0,0,0-1.41,1.16c-.49.44-1,.93-1.49,1.48-1,1.08-2.09,2.38-3.56,3.93a8.4,8.4,0,0,1-.68-6,9.46,9.46,0,0,1,1.26-2.93,9.11,9.11,0,0,1,2.3-2.46,9.46,9.46,0,0,1,6.26-1.89,6.43,6.43,0,0,1,3.27,1.13A4.14,4.14,0,0,1,346.83,87.06Z"/><g class="cls-34"><path class="cls-15" d="M416,73.49a1.54,1.54,0,0,0-1.67-1.91,2.63,2.63,0,0,0-2,1.91,11.11,11.11,0,0,0-.34,3c0,1,0,2.08,0,3.11a29.79,29.79,0,0,0,2.68,11.95,19.25,19.25,0,0,0,1.49,2.66c.59.81,1.17,1.82,1.88,2,.28.06.42,0,.54-.52a13,13,0,0,0,.17-4.51,13,13,0,0,0-2.13-5.67,2.41,2.41,0,0,0-1-1c-.41-.17-.79.2-1,.67L413.23,88c.37-1,.73-2,1.12-2.92a1.89,1.89,0,0,1,.46-.71,1,1,0,0,1,.89-.21A2.8,2.8,0,0,1,417,85.22a13.58,13.58,0,0,1,2.49,5.84,12.42,12.42,0,0,1,.16,3.22,15.16,15.16,0,0,1-.22,1.61,1.72,1.72,0,0,1-.48.92,1.23,1.23,0,0,1-1.13.29,2.86,2.86,0,0,1-1.51-1c-.32-.43-.67-.84-1-1.28A20.17,20.17,0,0,1,413.72,92a25.49,25.49,0,0,1-1.94-6.06,33.36,33.36,0,0,1-.6-6.3c0-1.06,0-2.11.12-3.16a10.87,10.87,0,0,1,.52-3.15,3,3,0,0,1,2.44-2A1.65,1.65,0,0,1,416,73.49Z"/></g><path class="cls-2" d="M415.41,102.05c-2.55-9.15-6.92-17.66-9.43-26.82,4.29,15.68,6.25,31.63,1.75,47.53l-12.21-8.35a12.85,12.85,0,0,0-3.17-1.77,10.75,10.75,0,0,0-5.2-.16c-5.64.94-10.85,3.58-15.72,6.58-2.58,1.58-5.17,3.35-6.76,5.94-2.2,3.59-1,7.31-1.47,11.19-.06.53-.68,8.15-.72,8.15-3.94.44-7.28-2.76-9.83-5.8a143,143,0,0,1-14-19.93c2.27,4,3.82,8.49,5.81,12.65,6,12.61,13.37,26.7,29.06,27.63,8.79.52,17.41-2.83,24.91-7.44,8.37-5.16,13.34-12,16.08-21.4C417.1,121.09,417.93,111.09,415.41,102.05ZM405.69,130a9.12,9.12,0,0,1-.95,3.9,3.11,3.11,0,0,1-3.41,1.56c-.46-.15-1.07-.41-1.34,0a.84.84,0,0,0,0,.74,6.4,6.4,0,0,0,1,1.9c-.7,0-8.52-.15-8.4-1.17q-.35,3-.68,5.9a36.39,36.39,0,0,0-1.71-4.21c-.29-.61-.82-1.32-1.48-1.13a1.36,1.36,0,0,0-.68.58,10.57,10.57,0,0,0-2,6.06,11.23,11.23,0,0,0-1.18-3.56c-2.1,2.27-1.14,6.3-3.27,8.55a5.6,5.6,0,0,1-2.38,1.38,9,9,0,0,1-11.7-9.11,2.77,2.77,0,0,0-1.44,1.9c.8-4.13.18-8.5.78-12.67.5-3.42,2.27-7,5.54-8.13-.29.66-.2,1.81.5,1.64a1.08,1.08,0,0,0,.43-.31c1.19-1.23,2.38-2.45,3.56-3.68a2.4,2.4,0,0,0,.28,2.3,12.91,12.91,0,0,0,3.56-4.34,6.31,6.31,0,0,0,5.33-.48,3.21,3.21,0,0,0-1.78-1.17c1.54.38,3.82-1.38,5.63-1.14a9,9,0,0,1,4.62,2.3,107.44,107.44,0,0,1,10.14,9.53,3.78,3.78,0,0,1,1,1.45A4,4,0,0,1,405.69,130Z"/><path class="cls-66" d="M416.36,120.47a45.65,45.65,0,0,0,.15-6l-.81,5.23-.89-2.1c-.34,5.53-1.06,11.2-3.77,16a44.09,44.09,0,0,1-3.16,4.64,4,4,0,0,1-1.5,1.4,1.36,1.36,0,0,1-1.77-.56,4.64,4.64,0,0,1-1.62,5.6,3.76,3.76,0,0,1-4-.19c-.75-.52-1.84-3.09-2.86-2.75a1.21,1.21,0,0,0-.47.37c-1.69,1.9-2,4.59-2.66,7.05a1.11,1.11,0,0,1-.23.49c-.47.45-1.16-.26-1.42-.86l-1.27-3c-.15-.36-.37-.77-.76-.8s-.74.44-.89.86a10.12,10.12,0,0,0-.62,3.89,26.36,26.36,0,0,1-1.34-4,21.62,21.62,0,0,1-4.07,5.72,10.09,10.09,0,0,1-10.18,1.91,4.9,4.9,0,0,1-3.32-3.57,7,7,0,0,1-1,2.52,9.2,9.2,0,0,1-1.68-6.4l-1.41,3.15c-.55-.17-.75-.84-.83-1.41-.45-2.94-.12-5.86-.29-8.8-.21-3.7-.06-7.39,0-11.08-.41,2.78-.26,5.53-.57,8.31-.06.53-.68,8.15-.72,8.15-3.94.44-7.28-2.76-9.83-5.8a143,143,0,0,1-14-19.93c2.27,4,3.82,8.49,5.81,12.65,6,12.61,13.37,26.7,29.06,27.63,8.79.52,17.41-2.83,24.91-7.44,8.37-5.16,13.34-12,16.08-21.4A49.6,49.6,0,0,0,416.36,120.47Z"/><path class="cls-2" d="M316.49,64.74a1.34,1.34,0,0,0,0,.2c.11,2.57,2.13,8.11-.86,9.55-.87.41-1.86.54-2.73.93a2.41,2.41,0,0,0-1.62,2.17,2.28,2.28,0,0,0,1,1.59,4.38,4.38,0,0,0,5.5-.5C316.13,81,314,82.77,312.21,85a3.26,3.26,0,0,0-.71,1.3c-.34,1.66,1.62,2.89,3.31,3a7.76,7.76,0,0,0,6.44-2.83c-.92,1.81-1.75,4.29-.23,5.64,1.35,1.19,3.43.49,5.06-.27a26.51,26.51,0,0,0,7.43-5.73c2.14-2.2,6.36-6.48,7-9.54-.56,2.52,1.7,5,4.22,5.49s5.12-.52,7.32-1.85c7-4.22,11.55-11.49,15.82-18.48a18.78,18.78,0,0,0-.43,7.2,4,4,0,0,0,1.1,2.58c1.66,1.43,4.14-.18,5.68-1.75a192.58,192.58,0,0,0,15.66-18.1,19.79,19.79,0,0,0-1,5.66c-.06,1.69.73,4.69,2.71,5a2.59,2.59,0,0,0,2.86-2c-.31,1.45,2.44,4.3,3.2,5.56,1.63,2.72,3.16,5.5,4.55,8.34a107,107,0,0,1,6.63,17.25l2.87-.88c-1.65-4.23-3.39-8.62-4.76-12.91a14.27,14.27,0,0,1-.6-5.84c0-.39,1.69-5.38,2.18-4.85-2.93-3.19-4.54-9.61-6-13.65-1.37-3.76-1.63-8.48-4.09-11.72a11.49,11.49,0,0,0-3.69-3,28.3,28.3,0,0,0-9.83-2.77,91.7,91.7,0,0,0-40.7,3.63c-7,2.38-15.2,6-20.81,11C319.32,54.1,316.32,59.3,316.49,64.74Z"/><path class="cls-67" d="M316.49,64.74a1.34,1.34,0,0,0,0,.2c.11,2.57,2.13,8.11-.86,9.55-.87.41-1.86.54-2.73.93a2.41,2.41,0,0,0-1.62,2.17,2.28,2.28,0,0,0,1,1.59,4.38,4.38,0,0,0,5.5-.5C316.13,81,314,82.77,312.21,85a3.26,3.26,0,0,0-.71,1.3c-.34,1.66,1.62,2.89,3.31,3a7.76,7.76,0,0,0,6.44-2.83c-.92,1.81-1.75,4.29-.23,5.64,1.35,1.19,3.43.49,5.06-.27a26.51,26.51,0,0,0,7.43-5.73c2.14-2.2,6.36-6.48,7-9.54-.56,2.52,1.7,5,4.22,5.49s5.12-.52,7.32-1.85c7-4.22,11.55-11.49,15.82-18.48a18.78,18.78,0,0,0-.43,7.2,4,4,0,0,0,1.1,2.58c1.66,1.43,4.14-.18,5.68-1.75a192.58,192.58,0,0,0,15.66-18.1,19.79,19.79,0,0,0-1,5.66c-.06,1.69.73,4.69,2.71,5a2.59,2.59,0,0,0,2.86-2c-.31,1.45,2.44,4.3,3.2,5.56,1.63,2.72,3.16,5.5,4.55,8.34,1.46,3,3.32,6.1,4.57,9.13-.85-9.2-6.49-17.2-7.63-26.35a7.43,7.43,0,0,0-.86-3.27,2.18,2.18,0,0,0-2.93-.82c-.62.46-1.05,1.43-1.81,1.29q.45-2.91.89-5.82c.26-1.67.35-3.72-1.05-4.66a3.94,3.94,0,0,0-2.93-.3c-6.51,1.26-11.43,6.67-14.77,12.4a49.52,49.52,0,0,0,1-7c.07-1-.08-2.28-1.05-2.53a2.12,2.12,0,0,0-1.11.11,27.73,27.73,0,0,0-8.85,5.06A75.72,75.72,0,0,0,348.46,70.7c-1-5.11.39-10.65-1.67-15.42a5.54,5.54,0,0,0-3.34-3.38,6.4,6.4,0,0,0-4.11.7,27.32,27.32,0,0,0-11.54,9.77,37.79,37.79,0,0,1,9.08-19.78,37.93,37.93,0,0,0-13.49,7.88C319.32,54.1,316.32,59.3,316.49,64.74Z"/><path class="cls-8" d="M316.36,112.3c4.67,9.93,9.82,19.65,15.34,29.07,3.94,6.72,8.2,13.35,13.84,18.71,1.85,1.76,4,3.45,6.54,3.71,3.73.37,4.83-2.57,6.41-5.14a4.39,4.39,0,0,0,.72-2.2c0-1.42-.9-2.67-1.76-3.82-7.08-9.43-12.36-20-17.47-30.63-5-10.42-10.85-20.13-16-30.53-1.08-2.17-2.34-4.52-4.59-5.39a7.38,7.38,0,0,0-4.22-.11c-2.4.52-8.82,2.83-7.5,6.2Q311.67,102.35,316.36,112.3Z"/><path class="cls-4" d="M316.36,112.3c4.67,9.93,9.82,19.65,15.34,29.07,3.94,6.72,8.2,13.35,13.84,18.71,1.85,1.76,4,3.45,6.54,3.71s2.8-1.4,4.77-1.92c-2.83.82-5.68-1.14-7.82-3.18-4.91-4.68-8.78-10.34-12.4-16.07a286.57,286.57,0,0,1-25.21-50.21,6.39,6.39,0,0,1-.58-4.2c.15-.44.27-.75,0-1.14-1.05,1.44-4.09,2.66-3.14,5.11Q311.67,102.35,316.36,112.3Z"/><path class="cls-4" d="M324.09,108.32q3.18,6.78,6.61,13.45a245.5,245.5,0,0,0,17.7,28.79c2,2.82,4.25,6.12,7.35,7.81,3.88,2.11,3.41-3.45,1.7-5.74-7.08-9.43-12.36-20-17.47-30.63-5-10.42-10.85-20.13-16-30.53-1.08-2.17-2.34-4.52-4.59-5.39-8.45-3.25-.07,11.74,1.15,14.49S322.88,105.75,324.09,108.32Z"/><path class="cls-15" d="M346.45,163.88a4.15,4.15,0,0,0-.51.86,6.78,6.78,0,0,0-.43,2.28c-.84,12.53-1.69,25.19.23,37.6-2.83,1.43-25.45-10.91-24.75-12.49,4.15-9.33,8.33-18.74,10.72-28.68a6.83,6.83,0,0,0,.25-2.94,7,7,0,0,0-1.54-2.79l-5.48-7.14c-.94-1.22-1.87-2.46-2.82-3.67a14.71,14.71,0,0,0-1.88-2.41c-.35-.28-.76-.49-1.14-.74a6.72,6.72,0,0,1-3-4.88.92.92,0,0,0-.14-.46,1.08,1.08,0,0,0-.29-.18,5.15,5.15,0,0,1-2.43-2.08,5.45,5.45,0,0,1,.56-5.79c-2.35-.78-3.2-3.26-3-5.51.16-1.69.62-1.64,0-3.36-.46-1.26-1.66-2.23-1.16-3.72a4.12,4.12,0,0,1,1.62-1.82l10.55-7.9a5.31,5.31,0,0,1,1.59-.93c2-.62,3.87,1.15,5.82,1.92a35.73,35.73,0,0,0,3.71.88,4.38,4.38,0,0,1,3,2.12c.54,1.15-.05,2.83-1.31,3,1.26.78,2.56,1.75,2.93,3.18s-.86,3.26-2.29,2.88a7.89,7.89,0,0,1,5,2.5c1.15,1.44,1.74,4.55-.18,5.63a6,6,0,0,1-2.54.56,18.31,18.31,0,0,1,7.37,4,2.49,2.49,0,0,1,1,1.72c0,2.22-4.22,1.6-5.59,1.49a2.79,2.79,0,0,0-1,0,2.62,2.62,0,0,0-1,.75l-2,2.1c.59-.62,3.45,4.64,3.78,5.09,1.48,2,3,3.92,4.47,5.95,2.26,3.2,5.49,8,2.87,11.75C347.09,163.08,346.75,163.47,346.45,163.88Z"/><g class="cls-62"><path class="cls-40" d="M334.91,114.83c-1.86.45-5.52-1.48-7-1.62-3-.26-5.77,1.72-7.89,3.9-1.22,1.24-2.34,2.59-3.61,3.78-.85.79-2.1,2.39-3.4,1.8A3,3,0,0,1,311.6,121c2.17-.92,3.86-2.67,5.54-4.32q3-3,6.26-5.68a6.42,6.42,0,0,1,1.92-1.23,5.28,5.28,0,0,1,3.47.29,26.4,26.4,0,0,1,3.5,1.72c.65.36,4.07,2.77,3.63.47C336.23,113.92,335.76,114.63,334.91,114.83Z"/><path class="cls-40" d="M335.85,121.28a3.43,3.43,0,0,1-1.21.09,6.58,6.58,0,0,0-3,.24c-4.69,1.65-9,5.15-13,8.13.37-.29.39-1.24.56-1.66a20.52,20.52,0,0,1,1.41-2.39,25.34,25.34,0,0,1,2.81-4.14c1.95-2.22,4.86-3.88,7.76-3.35.8.15,1.56.45,2.36.6a3.17,3.17,0,0,0,2.36-.33,1.59,1.59,0,0,0,.53-2.12,6.06,6.06,0,0,1,1.09,1.89A2.35,2.35,0,0,1,335.85,121.28Z"/><path class="cls-40" d="M324.79,137.23A24.22,24.22,0,0,1,329,130.8a10.55,10.55,0,0,1,6.74-3.37c.8-.05,1.6,0,2.39-.06a3.35,3.35,0,0,0,2.14-.92,1.75,1.75,0,0,0,.22-2.18c1.41,1,1,4.18-.45,5-1.67.93-3.59.33-5.36.67a7.88,7.88,0,0,0-3.29,1.9Z"/><path class="cls-40" d="M346.45,163.88a4.15,4.15,0,0,0-.51.86,6.78,6.78,0,0,0-.43,2.28c-.84,12.53-1.69,25.19.23,37.6-1.59.8-4.83-1-6.24-1.56-2.64-1.1-5.81-3.63-8.67-3.88,3,.26,5.74-2,7-4.7s1.4-5.8,1.5-8.79l.41-12.38a22,22,0,0,0-.33-5.79,7.27,7.27,0,0,0-3.19-4.68,12.37,12.37,0,0,0,4.45.19,4.17,4.17,0,0,0,3.28-2.71c.42-1.54-.4-3.13-1.28-4.47-3.23-4.93-7.57-9.13-10.22-14.39a3.51,3.51,0,0,1-.5-1.79,3.41,3.41,0,0,1,.75-1.61,11.37,11.37,0,0,1,6.26-4.4c1.39-.33,8,.07,6.71,2.61-.75,1.49-4.09.83-5.36.72a2.79,2.79,0,0,0-1,0,2.62,2.62,0,0,0-1,.75l-2,2.1c.59-.62,3.45,4.64,3.78,5.09,1.48,2,3,3.92,4.47,5.95,2.26,3.2,5.49,8,2.87,11.75C347.09,163.08,346.75,163.47,346.45,163.88Z"/></g><g class="cls-34"><path class="cls-15" d="M338.8,130a13.73,13.73,0,0,0-4.06.07,7.47,7.47,0,0,0-3.24,2.14,61.07,61.07,0,0,1-6.6,5.14,62.3,62.3,0,0,1,5.94-5.89c.53-.44,1-.92,1.65-1.35a4.92,4.92,0,0,1,2.11-.81A9.11,9.11,0,0,1,338.8,130Z"/></g><g class="cls-34"><path class="cls-15" d="M318.77,129.68a53.35,53.35,0,0,1,8-6.59,12.85,12.85,0,0,1,4.83-2.18,8.84,8.84,0,0,1,5.19.68,11.17,11.17,0,0,0-5,.08,15,15,0,0,0-4.44,2.25C324.5,125.84,321.7,127.81,318.77,129.68Z"/></g><g class="cls-34"><path class="cls-15" d="M334.8,115.19c-1.07-.23-2.11-.52-3.16-.78s-2.07-.62-3.11-.81a5.81,5.81,0,0,0-3,.05,11.17,11.17,0,0,0-2.74,1.42,28,28,0,0,0-4.78,4.2c-.74.77-1.41,1.61-2.17,2.41a5.88,5.88,0,0,1-2.77,1.73,6.21,6.21,0,0,0,2.4-2.06c.66-.83,1.28-1.74,2-2.59a22.17,22.17,0,0,1,4.8-4.52,11.46,11.46,0,0,1,3-1.49,6.11,6.11,0,0,1,3.42.1C330.8,113.51,332.8,114.35,334.8,115.19Z"/></g><path class="cls-5" d="M311.86,61.72c0,14.63-12.77,26.49-28.52,26.49-5.12,8.68.78,15.33,10.93,21.19-12.53-2-20-8.22-18.21-22.06-12.22-3-21.24-13.33-21.24-25.62,0-14.63,12.77-26.49,28.52-26.49S311.86,47.09,311.86,61.72Z"/><text class="cls-68" transform="translate(267.72 71.02) scale(0.83 1)">?</text><path class="cls-12" d="M148,80.46H106c-3.79,14,2.15,21.54,12.44,25.78-14.82-.25-22.43-8.17-21-25.78H42.75A12.33,12.33,0,0,1,30.42,68.12V51.94A12.33,12.33,0,0,1,42.75,39.61H148a12.34,12.34,0,0,1,12.34,12.33V68.12A12.34,12.34,0,0,1,148,80.46Z"/><line class="cls-19" x1="42.08" y1="50.32" x2="150.35" y2="50.32"/><line class="cls-19" x1="42.08" y1="57.65" x2="150.35" y2="57.65"/><line class="cls-19" x1="42.08" y1="63.91" x2="137.41" y2="63.91"/><line class="cls-19" x1="42.08" y1="70.25" x2="124.61" y2="70.25"/><circle class="cls-51" cx="60.84" cy="167.93" r="31.46" transform="translate(-100.93 92.2) rotate(-45)"/><text class="cls-69" transform="translate(39.41 175.14)"><tspan class="cls-70">2</tspan><tspan x="10.92" y="0">4/7</tspan></text><circle class="cls-71" cx="57.34" cy="214.7" r="21.58"/><polyline class="cls-72" points="57.34 199.2 57.34 214.7 67.06 214.89"/><line class="cls-73" x1="57.34" y1="214.7" x2="44.19" y2="227.23"/><circle class="cls-5" cx="57.34" cy="214.7" r="1.84"/><rect class="cls-74" width="750" height="500"/></g></g></g></svg>