<svg xmlns="http://www.w3.org/2000/svg" xmlns:xlink="http://www.w3.org/1999/xlink" viewBox="0 0 672.2 416.85"><defs><style>.cls-1,.cls-13{fill:none;}.cls-2{fill:#fff2db;}.cls-3{clip-path:url(#clip-path);}.cls-4{fill:#ffbc45;}.cls-5{fill:#ffe4b5;}.cls-6{fill:#31241c;}.cls-15,.cls-16,.cls-17,.cls-7{fill:#c97440;}.cls-8{fill:#ab5d2d;}.cls-9{fill:#1a191f;}.cls-10{fill:#1f0e03;}.cls-11{fill:#5f7e91;}.cls-12{fill:#49687a;}.cls-13{stroke:#1f0e03;stroke-miterlimit:10;}.cls-14{fill:#f5cdb3;}.cls-15{font-size:21.93px;}.cls-15,.cls-16,.cls-17{font-family:Raleway-Bold, Raleway;font-weight:700;}.cls-16{font-size:22.74px;}.cls-17{font-size:32.11px;}</style><clipPath id="clip-path"><path class="cls-1" d="M295.7.59C186.82-6.24,148.2,47.46,92.86,103S11.94,217.18,44.1,300.64,152.18,405.32,271.35,405.32s241.88,11.63,304-33.76,83.32-149.14-6.73-203.42C515.62,136.17,446.21,10,295.7.59Z"/></clipPath></defs><title>char</title><g id="Layer_2" data-name="Layer 2"><g id="objects"><path class="cls-2" d="M295.7.59C186.82-6.24,148.2,47.46,92.86,103S11.94,217.18,44.1,300.64,152.18,405.32,271.35,405.32s241.88,11.63,304-33.76,83.32-149.14-6.73-203.42C515.62,136.17,446.21,10,295.7.59Z"/><g class="cls-3"><path class="cls-4" d="M121.22,387.79c-1.17-14.46-5.86-28.2-10.54-41.83-4.62-13.47-9.82-27.69-10.05-42.09-.1-6.22,2.74-18.87,11.6-16.49,3,.8,4.89,4.05,6.24,6.59a72.16,72.16,0,0,1,4.41,10.46c4.65,13.48,5.49,27.92,5.45,42.07,0,10.64-.76,21.33.11,31.95a.5.5,0,0,0,1,0A248.24,248.24,0,0,1,132.86,334a197.26,197.26,0,0,1,5-20.77c.72-2.44,3-6.19,5.51-6.84,3.73-1,8.34.07,9.78,4.1,5.36,15,.81,31.23-4.18,45.69A190.27,190.27,0,0,1,142,374.2q-3.32,7.17-6.51,14.4c-.62,1.42-1.23,2.83-1.83,4.26-.25.59.72.85,1,.26,3.79-9.12,8.51-17.88,11.84-27.18,5-13.92,10.57-28.23,9.94-43.28a45.45,45.45,0,0,0-1.55-9.84c-.75-2.89-1.65-5.09-4.25-6.71a9.63,9.63,0,0,0-6.24-1c-2.63.32-3.54,1-5,3.17-.55.83-1.81,2.05-2.08,2.93q-.76,2.52-1.47,5.05c-1,3.57-1.89,7.17-2.68,10.79a194.84,194.84,0,0,0-3.29,20.1,269.77,269.77,0,0,0-1.49,31.27h1c-1-12.22,0-24.54-.13-36.79-.16-13.85-1.69-27.77-6.66-40.79-1.82-4.77-4-10.53-8.31-13.59-4.49-3.15-9.49.32-11.94,4.23-3.26,5.21-3.05,12.14-2.39,18a121.32,121.32,0,0,0,4.26,19.95c5.58,19.39,14.31,38,16,58.34,0,.64,1,.64,1,0Z"/><path class="cls-4" d="M121.13,387.63a69.24,69.24,0,0,0-1.15-8.26.5.5,0,0,0-1,.13c.17,2.78.57,5.53,1,8.28.1.63,1.06.36,1-.27-.42-2.66-.8-5.32-1-8l-1,.13a67.21,67.21,0,0,1,1.11,8c.06.63,1.06.64,1,0Z"/><path class="cls-4" d="M107.47,388c-4.23-11.18-13.1-19.38-21-28a69.25,69.25,0,0,1-11-15.14c-2.68-5.32-6.33-13.31-2.67-18.94,3.16-4.86,10.07-.92,13.52,1.4,4.39,3,7.86,6.92,11.18,11a107.94,107.94,0,0,1,20.14,38.52,94,94,0,0,1,2.3,10.5c.1.63,1.06.36,1-.27a104.4,104.4,0,0,0-14.71-38.29c-5.65-9.09-12.71-18.87-22.31-24.11-3.12-1.71-7.18-3-10.39-.85-4.07,2.73-3.42,8.71-2.37,12.76,3,11.56,11.21,20.53,19.15,29,6.39,6.81,12.83,13.84,16.19,22.71.23.6,1.19.34,1-.26Z"/><path class="cls-4" d="M146.55,312.7c-6.62,10.32-5.37,23.49-7.39,35.11-1.16,6.68-3.55,13-4.77,19.69-1.29,7-2.7,14-4.38,21-.15.62.82.89,1,.26q2.4-10,4.23-20.07c1.14-6.34,3.34-12.39,4.56-18.7,1.17-6,1.67-12.05,2.24-18.14.6-6.53,1.81-13,5.41-18.64.35-.54-.52-1-.87-.5Z"/><path class="cls-4" d="M109.1,297.65c.46,7.54,3,14.67,4.75,22,1.93,8.14,3.51,16.39,5.15,24.59,1.6,8,3,16,4.75,24a121.58,121.58,0,0,1,3.22,25,.5.5,0,0,0,1,0,117.6,117.6,0,0,0-2.68-22.5q-2.49-12.39-4.94-24.79c-1.56-7.93-3.13-15.88-4.9-23.76-1.82-8.13-4.85-16.13-5.35-24.48,0-.64-1-.65-1,0Z"/><path class="cls-4" d="M84.25,339.33c7.53,7.17,13.72,15.56,19.39,24.25,2.87,4.4,5.46,9,8.06,13.57,2.9,5.11,4.56,10.52,6.66,16,.23.59,1.19.33,1-.27-1.9-4.92-3.31-9.92-5.85-14.57-2.67-4.89-5.49-9.79-8.5-14.48-5.8-9-12.22-17.76-20-25.17-.46-.45-1.17.26-.7.7Z"/><path class="cls-4" d="M85.62,352.8c6.07,4.08,12.73,7.29,18.47,11.85.5.4,1.21-.31.71-.71-5.82-4.62-12.53-7.87-18.67-12-.54-.36-1,.51-.51.86Z"/><path class="cls-4" d="M102.34,352c2.22,2.93,3.55,6.7,4.8,10.11a110.26,110.26,0,0,1,3.63,13c.15.63,1.11.36,1-.26a112.44,112.44,0,0,0-3.85-13.59c-1.2-3.28-2.54-6.92-4.67-9.73-.39-.5-1.26,0-.87.51Z"/><path class="cls-4" d="M135.27,340.38c.34,4.23,2.39,8.08,2.52,12.34,0,.64,1,.64,1,0-.14-4.27-2.18-8.11-2.52-12.34-.05-.63-1.05-.64-1,0Z"/><path class="cls-4" d="M115.74,305.23c-1.4,4.39-1.21,9.18-1.8,13.72-.09.64.91.63,1,0,.58-4.45.39-9.14,1.76-13.45.2-.62-.76-.88-1-.27Z"/><path class="cls-4" d="M107.79,323.46c2.2,3.1,4,6.44,6.25,9.49a23.39,23.39,0,0,1,4.55,8.95c.14.63,1.1.37,1-.26a21.3,21.3,0,0,0-3.59-7.7c-2.47-3.63-4.77-7.4-7.31-11-.37-.52-1.23,0-.86.5Z"/><path class="cls-4" d="M123.85,335.57c-1,6.15-2,12.31-2.6,18.53-.06.64.94.63,1,0,.58-6.13,1.56-12.2,2.57-18.26.1-.64-.86-.9-1-.27Z"/><path class="cls-4" d="M150.22,319.67c-2.47,6.46-6.66,12.16-9.59,18.41-.27.58.59,1.08.87.5,3-6.33,7.18-12.1,9.69-18.64.23-.61-.74-.87-1-.27Z"/><path class="cls-4" d="M507.22,403.46a42.33,42.33,0,0,0-7.87-12.65c-4.31-4.68-9.88-7.76-13.7-12.95a160.41,160.41,0,0,1-10-16.29,30.75,30.75,0,0,1-3.92-10.18,46.92,46.92,0,0,1-.18-10.92l-.75.43c2.42,1,4.2,2.87,6.15,4.57s4.22,3,6.29,4.49a60.46,60.46,0,0,1,12.69,13c3.27,4.47,5.57,9.75,7.79,14.8,1.93,4.39,3.49,9.41,6.35,13.3.31.42,1.11.19.91-.39a87.19,87.19,0,0,1-4.62-31.44,117.53,117.53,0,0,1,1.47-14.5c.71-4.64,1.83-9.33,4.23-13.41h-.87c1.16,2.25,1.43,4.7,1.89,7.15a47.38,47.38,0,0,0,2.46,8,106.16,106.16,0,0,1,4.52,17.92,55.24,55.24,0,0,1,.49,18.89c-.9,5.92-2.54,11.71-3.77,17.57-.11.53.65.91.91.38,1.77-3.56,3.43-7.16,4.91-10.85,1.61-4,2.68-8.2,4.1-12.28,2.24-6.41,6.06-12.24,12.18-15.44,7.33-3.82,24.08-7.62,26,4.26l.73-.56c-11.06-4.69-19.74,5.65-25.3,13.89-3.76,5.59-7.66,10.84-12,16-1.7,2.06-3.23,4.6-5.22,6.39-1.77,1.6-5.22,4-7.74,3.81-.64-.06-.63.94,0,1,3.34.31,8-3.07,9.81-5.63,3.79-5.23,8.29-9.91,12.08-15.15,6.25-8.62,14.51-25.13,27.83-19.49a.5.5,0,0,0,.73-.56c-1.89-11.79-17.32-9.15-25.17-5.91-6,2.46-10.16,6.83-13,12.59-2,4-3,8.34-4.41,12.54a117.87,117.87,0,0,1-6.37,14.85l.91.38c1.3-6.15,3-12.22,3.91-18.44a52.74,52.74,0,0,0-.46-17.59,111.35,111.35,0,0,0-4.69-18.88,59.56,59.56,0,0,1-2.46-8c-.55-2.55-.77-5.05-2-7.39a.51.51,0,0,0-.87,0c-4.56,7.76-5.21,17.86-5.75,26.66A86,86,0,0,0,510,391l.91-.39c-3-4.1-4.66-9.46-6.7-14.11a75.74,75.74,0,0,0-8.49-15.4,61.37,61.37,0,0,0-11.33-11.44c-2.41-1.85-5.06-3.37-7.35-5.37-1.84-1.61-3.48-3.23-5.76-4.2a.51.51,0,0,0-.75.43c-.46,6.44-.21,12.59,2.6,18.49a156.63,156.63,0,0,0,10.34,17.52,37.57,37.57,0,0,0,5.38,6.61c2.25,2.17,4.93,3.88,7.27,6a39.86,39.86,0,0,1,10.12,14.66c.24.59,1.21.33,1-.26Z"/><path class="cls-4" d="M500.41,404.09c-5.66-9.16-10.18-21.58-21-25.78-5.77-2.23-12.75-1-18.18,1.62-6.12,2.9-11,8.07-15.29,13.16a.51.51,0,0,0,.49.84c9.27-2.74,20.91-3.3,29.5,1.83,4.1,2.44,7.31,6.6,10.55,10.05,2.14,2.27,3.71,6.11,7,6.9.63.15.89-.81.27-1-2.22-.54-3.73-3-5-4.67a57,57,0,0,0-4-4.52c-3.31-3.55-6.55-7.11-11.09-9.05-8.54-3.64-18.77-3.13-27.52-.55l.49.84c7.89-9.33,19.34-19,32.5-14.52,5.39,1.85,9.26,6.8,12.29,11.37s5.32,9.37,8.15,13.94c.34.55,1.2.05.86-.5Z"/><path class="cls-4" d="M485.27,360.64c4.05,8.49,11.23,14.76,16.4,22.51a92.19,92.19,0,0,1,6.74,12.34c2.38,5.16,1.63,10.48,1.59,16a.5.5,0,0,0,1,0c0-4.66.83-9.59-.73-14.06-1.63-4.69-4.37-9.18-6.89-13.44-5-8.5-13-14.85-17.25-23.85-.27-.58-1.14-.07-.86.51Z"/><path class="cls-4" d="M471.55,386.36c7.41,3.93,14.65,8,19.78,14.81,1.83,2.41,3.6,4.85,5.46,7.24.54.7,2,3.31,3.19,3.19.63-.06.64-1.06,0-1-.84.09-3.54-4.27-4-4.81-1.68-2.22-3.3-4.48-5-6.67-4.84-6.2-12.14-10-18.95-13.62-.57-.3-1.08.56-.51.86Z"/><path class="cls-4" d="M513,358.88c.08,4.41,1.27,8.64,1.79,13a60.28,60.28,0,0,1-.65,15.81c-1.41,9.52-.76,19.19-3.38,28.55l1,.13v-1.13a.5.5,0,0,0-1,0v1.13a.5.5,0,0,0,1,.13c2.54-9.05,2.32-18.52,3.3-27.8a96.25,96.25,0,0,0,.91-15c-.24-5-1.84-9.8-1.93-14.82a.5.5,0,0,0-1,0Z"/><path class="cls-4" d="M545.56,365.21c-7.65,4.84-13.2,13.2-17.56,21-4.2,7.47-7.89,16.67-16.25,20.36-.59.26-.08,1.12.5.86,7.44-3.28,11.36-11,15-17.78,4.64-8.64,10.35-18.2,18.81-23.55.54-.34,0-1.2-.51-.86Z"/></g><path class="cls-4" d="M337.31,201a9.63,9.63,0,0,1-9.63,9.63h0A9.64,9.64,0,0,1,318,201v-6.69a9.64,9.64,0,0,1,9.64-9.63h0a9.63,9.63,0,0,1,9.63,9.63Z"/><path class="cls-4" d="M435.48,306.14c-2.66-13-14.16-48.07-42.18-60.76s-54.27-2.36-64,3.54-20.94,28.91-25.95,50.44S281.23,320.59,268,325.31l6.19,22.42,136.85.88.29-3.54C447,343,438.13,319.12,435.48,306.14Zm-140,34.36c5.46,0,29.79-18.29,34.8-17.7,2.51,13.42,2.81,20.5,3.1,21.39S297,351.56,295.53,340.5Z"/><path class="cls-5" d="M344.15,255.12c-1.77,8.45-9,60.16,3.34,94.18,9.63.79,24,0,24,0-2.75-17.89-8.26-67.44,3.14-95.76C363.22,253.74,344.15,255.12,344.15,255.12Z"/><path class="cls-5" d="M350.44,239.78c-9.73.59-12,11.11-7.57,17.6s12.78,1.18,14.25-2.07c10.52,9.93,24.19,1,27.14-13.76C384.26,240.37,367.55,237.13,350.44,239.78Z"/><path class="cls-4" d="M378.16,186.47c-.44-9.81-10.52-28.54-34.41-27.48-17,1.31-19.07,17.42-19.07,17.42C324.09,178.22,321,182,321,182c-.88-7.55,3.89-27.55,25.37-28.09,24.18-.6,35.73,18.33,36.18,31.92C380.67,189,378.16,186.47,378.16,186.47Z"/><path class="cls-6" d="M330.72,167.9c-8.17,5.6-13.06,14.91-8.93,24.17s5.32,13.35,1.3,20.59c-5.64,10.2-8,19.72-3.78,28.37,25.62-3.54,36.9-6.42,36.9-6.42S346.3,166.82,330.72,167.9Z"/><path class="cls-7" d="M368.75,214.55s6.33,19.09,6.93,27.16c.55,7.39-23.93,12.33-25.66,4.57-1.81-9.22-4.5-24.9-4.5-24.9"/><path class="cls-8" d="M370.78,222.52l-2-8-23.23,6.83s.83,4.81,1.88,10.85a22.82,22.82,0,0,0,23.38-9.71Z"/><path class="cls-7" d="M328.14,205.27a23,23,0,0,0,24,22h0a23,23,0,0,0,22-24l-1.08-24.34a23,23,0,0,0-24-22h0a23,23,0,0,0-22,24.05Z"/><path class="cls-6" d="M358.54,180.07c-2.9-1.56-6.72-2.29-9.76-.72-1.14.59-.14,2.3,1,1.71,2.37-1.22,5.52-.48,7.76.72,1.13.61,2.13-1.11,1-1.71Z"/><path class="cls-6" d="M330.76,183.28a5.87,5.87,0,0,1,5.18-1.4c1.24.26,1.78-1.66.52-1.91a7.92,7.92,0,0,0-7.1,1.91c-.93.88.47,2.28,1.4,1.4Z"/><path class="cls-6" d="M344.49,201a.79.79,0,0,1-.5-.18l-4.48-4a.72.72,0,0,1-.25-.64.73.73,0,0,1,.37-.57l4.53-2.55a.75.75,0,0,1,.73,1.31l-3.6,2,3.7,3.25a.75.75,0,0,1,.06,1.06A.72.72,0,0,1,344.49,201Z"/><path class="cls-6" d="M346.15,207.4a6,6,0,0,1-3.32-1,.76.76,0,0,1-.2-1,.74.74,0,0,1,1-.19,5,5,0,0,0,4.88.1,3.58,3.58,0,0,0,1.82-3.53.75.75,0,1,1,1.49-.07,5.05,5.05,0,0,1-2.58,4.91A6.51,6.51,0,0,1,346.15,207.4Z"/><path class="cls-9" d="M349.53,192.73a2.8,2.8,0,1,0,1.63-3.61A2.8,2.8,0,0,0,349.53,192.73Z"/><path class="cls-9" d="M332.79,193.73a2.8,2.8,0,1,0,1.63-3.6A2.81,2.81,0,0,0,332.79,193.73Z"/><path class="cls-9" d="M333.51,193.07a.67.67,0,0,1-.34-.09l-2.74-1.68a.66.66,0,0,1,.69-1.12l2.73,1.67a.66.66,0,0,1,.22.91A.65.65,0,0,1,333.51,193.07Z"/><path class="cls-9" d="M353.35,192.09a.66.66,0,0,1-.37-1.2l2.85-2a.66.66,0,1,1,.75,1.08l-2.85,2A.68.68,0,0,1,353.35,192.09Z"/><path class="cls-6" d="M396.08,205.42c-3.82-8.24.9-13.35-1.13-21.19-1.79-6.86-9.95-6.65-14.17-16.37-6.45-14.9-39.66-28.32-52,1.92,13.77-9.33,27.87-4.48,33.23,2.42,10.8,13.91-.28,19.81,3.89,28.08,3,6,5,10.09,1.1,19.22s1.57,17.8,1.57,17.8c12.85-1.43,27.38-2.69,40.58-4.92C409.11,210.11,399.9,213.65,396.08,205.42Z"/><path class="cls-7" d="M337.66,319.41c-11.21,1-15.53,4.33-25.56,9.64s-12.19,6.49-9.83,7.47c-5.9.39-2.46,3.54,1.67,2.16-2.75,1.18,1.08,2.46,6.58.39,1.38,2.17,8.46,1.19,13-1.37s15.34-4.72,25.17-1.38c1.18-6.09-2.56-16.71-2.56-16.71Z"/><path class="cls-4" d="M344.78,319.56c6.05-1.33,23-2.71,33-2.11.59,7.86-3.74,23.79-3.74,23.79l-26.74-5.9S348.62,326.93,344.78,319.56Z"/><path class="cls-10" d="M344.28,319.7c11.94-1.73,24-1.69,36.05-2,5.79-.17,11.35-.84,17.1-1.5,5.46-.62,11.92.56,17.17,2.15a.5.5,0,0,0,.27-1,52.23,52.23,0,0,0-15.6-2.32,59.5,59.5,0,0,0-7.51.94,93.51,93.51,0,0,1-10.45.66c-12.46.4-24.93.31-37.3,2.09-.63.1-.36,1.06.27,1Z"/><path class="cls-10" d="M397.54,289.07a187.1,187.1,0,0,1,1.75,25,.5.5,0,0,0,1,0,189.62,189.62,0,0,0-1.79-25.3c-.08-.64-1.05-.36-1,.27Z"/><path class="cls-10" d="M346.51,335.84c3.61,0,7,1.56,10.39,2.49,4.08,1.1,8.07,2.49,12.14,3.6a123.33,123.33,0,0,0,25.31,4.19c13.56.78,30,.12,40.21-10a.5.5,0,0,0-.71-.7c-10.7,10.61-28.29,10.62-42.33,9.55a123.39,123.39,0,0,1-24.9-4.72c-3.63-1.06-7.25-2.17-10.88-3.25-3.05-.91-6-2.16-9.23-2.12a.5.5,0,0,0,0,1Z"/><path class="cls-10" d="M326.56,278.78c-.9,2.68-.63,5.56-.59,8.35,0,3.84.34,7.66.54,11.49s.31,7.57.61,11.34c.28,3.49,1.6,6.79,1.78,10.24,0,.64,1,.64,1,0-.17-3.16-1.38-6.14-1.69-9.3-.35-3.45-.46-6.93-.62-10.39s-.39-7-.54-10.48-.65-7.63.47-11c.21-.61-.76-.87-1-.26Z"/><path class="cls-10" d="M341.7,244.56c-1.57,5.54-2.68,12.6,3.53,15.71,2.24,1.13,4.79.57,6.95-.41a18.15,18.15,0,0,0,4.09-2.92c1.27-1.09,1.83.56,3,1.36,9.12,6.52,21.12-2.51,24.14-11.51.21-.61-.76-.87-1-.26-3.22,9.6-17,18.42-24.92,8.63a.5.5,0,0,0-.71,0c-3.29,3-7.56,6.45-12,3.68-4.89-3-3.32-9.55-2.06-14a.5.5,0,0,0-1-.27Z"/><path class="cls-10" d="M310.07,340c3.15-.56,5.67-2.53,8.33-4.19,3.65-2.3,7.76-3.61,11.72-5.25.59-.24.33-1.21-.26-1-3.28,1.35-6.63,2.49-9.79,4.09-3.44,1.75-6.37,4.66-10.27,5.35-.63.11-.36,1.07.27,1Z"/><path class="cls-10" d="M302.91,339.9c8-3.36,15.3-8.09,23.48-11,.6-.21.34-1.18-.27-1-8.26,2.91-15.67,7.67-23.71,11.07-.59.25-.08,1.11.5.86Z"/><path class="cls-10" d="M301.14,337.54c3.15-1.91,6.74-2.8,10-4.51s6.38-3.45,9.69-4.93c.59-.26.08-1.12-.5-.86-3.31,1.48-6.5,3.22-9.7,4.92s-6.81,2.61-10,4.52c-.55.33-.05,1.2.5.86Z"/><path class="cls-10" d="M353,263.65c.34,1.78,2.85,1.72,3.66.35a1.55,1.55,0,0,0-.73-2.06,2.15,2.15,0,0,0-2.73.44c-.36.54.5,1,.87.51s2.28,0,1.63.74c-.49.54-1.58.59-1.73-.24-.12-.63-1.09-.37-1,.26Z"/><path class="cls-10" d="M351.68,271.06c-.26,1.76,1.79,2.26,3,1.28a1.63,1.63,0,0,0,.42-2.16,2.09,2.09,0,0,0-2.32-.36c-.61.2-.35,1.16.27,1a1.53,1.53,0,0,1,1.22,0c.31.18-.1.74-.27.86-.36.26-1.45.46-1.34-.29s-.87-.9-1-.26Z"/><path class="cls-10" d="M351.07,280.63c.09,2,3.05,1.2,3.34-.31.36-1.85-2.86-2.87-3.18-.86-.09.63.87.9,1,.27.12-.78,1.22-.25,1.24.35s-1.35,1.12-1.37.55-1-.65-1,0Z"/><path class="cls-10" d="M331.6,335.34a10.13,10.13,0,0,0,.61,4.56c.24.59,1.2.33,1-.27a9.39,9.39,0,0,1-.58-4.29c.07-.65-.93-.64-1,0Z"/><path class="cls-10" d="M344.09,319.84c1.87,1.31,2,3.92,2.54,5.94.7,2.68,1.22,6,0,8.62-.27.58.59,1.09.86.5,1.34-2.95.78-6.33.07-9.39-.55-2.36-.88-5-3-6.53-.53-.37-1,.5-.51.86Z"/><path class="cls-10" d="M320,206.71c-1.57,11.67,15.66,11.7,23.1,11.35.64,0,.64-1,0-1-6.57.31-23.58.63-22.14-10.08.09-.63-.87-.9-1-.27Z"/><path class="cls-4" d="M348.87,217.41c0,1.66-1.65,3-3.69,3s-3.69-1.34-3.69-3,1.65-3,3.69-3S348.87,215.76,348.87,217.41Z"/><path class="cls-4" d="M346.41,154c-12.25.31-19.06,7-22.49,14a11.27,11.27,0,0,1,3.48,1c2.54-4.4,7.35-9.24,16.35-9.93,23.89-1.06,34,17.67,34.41,27.48,0,0,2.51,2.57,4.43-.6C382.14,172.28,370.59,153.35,346.41,154Z"/><path class="cls-4" d="M390.35,201a9.63,9.63,0,0,1-9.63,9.63h0a9.64,9.64,0,0,1-9.64-9.63v-6.69a9.64,9.64,0,0,1,9.64-9.63h0a9.63,9.63,0,0,1,9.63,9.63Z"/><path class="cls-10" d="M388.08,199.92a5.92,5.92,0,0,1-11.47,1.89c-.71-1.83-.31-4.41-.31-6.33,0-6.65,9.15-7.8,11.48-1.88.71,1.82.3,4.4.3,6.32a.5.5,0,0,0,1,0c0-4,.4-7.89-3.41-10.38-4.61-3-10.1,1-10.37,5.94-.21,4-.24,8,3.42,10.39,4.61,3,10.1-1,10.36-6C389.12,199.27,388.12,199.28,388.08,199.92Z"/><path class="cls-11" d="M275.33,339.86h76.88c3.54,0,4.32,7.08-1.57,7.08H174.27c-5.31-10.62-29.11-75.5-31.46-81.6s-.2-13.17,9.43-13.17h67.64c7.08,0,14.94,1.17,19.86,12S275.33,339.86,275.33,339.86Z"/><path class="cls-12" d="M352.45,346.66a4.15,4.15,0,0,0,.64-.29l.05,0c3-1.69,2-6.49-.93-6.49H275.33l-.06-.13a3.09,3.09,0,0,1-.15-.31l-1.56-3.31c-6.6-14-29.62-62.71-33.82-71.95-4.92-10.82-12.78-12-19.86-12h-6.29c7.08,0,14.94,1.17,19.86,12S269,339.86,269,339.86l2.65,6.89,8.61.19h70.34a6,6,0,0,0,1-.08,4.43,4.43,0,0,0,.55-.13Z"/><path class="cls-13" d="M211.43,300.54c1.94,4.8-.36,8.69-5.14,8.69s-10.23-3.89-12.17-8.69.36-8.7,5.14-8.7S209.49,295.74,211.43,300.54Z"/><path class="cls-14" d="M442.4,352.43H165.05v44c30.45,6.48,71.48,11.16,111.9,11.67,55.32.7,112.68.07,165.45-2.49Z"/><path class="cls-7" d="M453.91,351.33a4.74,4.74,0,0,1-4.75,4.75H158.29a4.75,4.75,0,0,1-4.75-4.75h0a4.75,4.75,0,0,1,4.75-4.75H449.16a4.75,4.75,0,0,1,4.75,4.75Z"/><path class="cls-4" d="M131.62,182.9c6.6,6.25,12,6.25,12,0s0-16.47-.05-22.71-5.41-11.36-12-11.36H107.62c-6.58,0-6.57,5.11,0,11.36Z"/><rect class="cls-4" x="71.21" y="33.5" width="217.67" height="127.33" rx="38.38"/><text class="cls-15" transform="translate(167.76 73.29)">HELP!</text><rect class="cls-2" x="170.03" y="83.48" width="98.27" height="6.39"/><rect class="cls-2" x="170.03" y="99.01" width="84.86" height="6.39"/><rect class="cls-2" x="170.03" y="114.53" width="56.29" height="6.39"/><rect class="cls-2" x="170.03" y="130.05" width="91.04" height="6.39"/><path class="cls-6" d="M150.52,134.08c-2.93-7.28-13.06-12.47-18.24-12.4H114.8c-5.74.54-15.31,5.12-18.23,12.4a38.63,38.63,0,0,0,54,0Z"/><path class="cls-7" d="M116.4,106.75s-1.67,13.76-2.83,21.53c-.84,5.68,19.55,7.28,20.16,1.16.55-7.27,1.17-19.58,1.17-19.58"/><path class="cls-8" d="M115.57,113.07l.83-6.32,18.5,3.11s-.2,3.78-.45,8.53a17.74,17.74,0,0,1-18.88-5.32Z"/><path class="cls-7" d="M146.78,95.87A17.84,17.84,0,0,1,130.31,115h0a17.83,17.83,0,0,1-19.12-16.47l-1.41-18.82a17.83,17.83,0,0,1,16.46-19.12h0a17.84,17.84,0,0,1,19.13,16.46Z"/><path class="cls-6" d="M122.48,81.68a9.36,9.36,0,0,0,6-3.74c.75-1-1-2-1.71-1A7.43,7.43,0,0,1,122,79.77c-1.25.26-.72,2.17.53,1.91Z"/><path class="cls-6" d="M142.67,77.78a3.89,3.89,0,0,1-2.94-2.17c-.62-1.12-2.34-.12-1.72,1a5.81,5.81,0,0,0,4.14,3.08c1.25.24,1.78-1.68.52-1.91Z"/><path class="cls-6" d="M133.74,94.3a.8.8,0,0,1-.5-.19.76.76,0,0,1-.06-1.06l2.39-2.67-2.74-1.14a.75.75,0,1,1,.58-1.38l3.71,1.54a.75.75,0,0,1,.27,1.19l-3.09,3.46A.77.77,0,0,1,133.74,94.3Z"/><path class="cls-6" d="M129.23,101.88a.77.77,0,0,1-.61-.31.75.75,0,0,1,.18-1c2.95-2.09,5.6-2.93,7.89-2.5a.75.75,0,0,1-.28,1.48c-1.86-.36-4.13.4-6.74,2.24A.72.72,0,0,1,129.23,101.88Z"/><path class="cls-9" d="M129.17,88.2a2.17,2.17,0,1,1-1.59-2.62A2.17,2.17,0,0,1,129.17,88.2Z"/><path class="cls-9" d="M142.14,87.43a2.17,2.17,0,1,1-1.59-2.62A2.16,2.16,0,0,1,142.14,87.43Z"/><path class="cls-7" d="M114.61,93.81a6.49,6.49,0,0,1-4.77,7.83h0A6.48,6.48,0,0,1,102,96.87l-.48-2a6.47,6.47,0,0,1,4.76-7.83h0a6.48,6.48,0,0,1,7.83,4.77Z"/><path class="cls-6" d="M104.83,87.7c-1.52-4.34-9-22,2.09-22.52.69-6.93,10.32-10.59,22.35-13s19.54,3.28,18.62,8.91-8.3,7.69-14.16,6c-1.68,6.09-9.75,4-11.5,2.82-1.35,5.9-8,7.33-7.29,11.44s1.1,8.3,1.25,9.14-3.35,2.47-4.11.8S108.31,86.67,104.83,87.7Z"/><path class="cls-10" d="M138.09,184.08c7.3,1.45,3.12-23.32,3.07-27.06l-.5.5c15.71.14,31.43.18,47.15,0,11.23-.1,22.46-.38,33.69-.38,6.91,0,13.79-.26,20.69-.52,7.4-.29,14.77-.26,22-2.18,13.79-3.66,18.81-18.25,20.24-31,.07-.64-.93-.64-1,0-1.06,9.5-3.94,19.9-11.58,26.23-5.76,4.77-14.24,5.37-21.38,5.72s-14.25.64-21.37.75c-22.53.32-45.07.54-67.59.49q-10.41,0-20.83-.11a.51.51,0,0,0-.5.5c0,3.15,3.3,27.11-1.8,26.1-.63-.13-.9.83-.27,1Z"/><path class="cls-10" d="M283.94,80.64c0,12.42.54,24.91-.31,37.31,0,.65,1,.64,1,0,.85-12.4.32-24.89.31-37.31a.5.5,0,0,0-1,0Z"/><rect class="cls-4" x="446.54" y="150.69" width="225.67" height="132.01" rx="39.79"/><path class="cls-4" d="M491.59,305.57c-6.84,6.48-12.42,6.48-12.41,0s0-17.07.05-23.54,5.61-11.78,12.43-11.78h24.81c6.82,0,6.81,5.3,0,11.78Z"/><text class="cls-16" transform="translate(475.72 194.71)">THANKS!</text><rect class="cls-2" x="473.02" y="205.28" width="101.88" height="6.62"/><rect class="cls-2" x="473.02" y="221.37" width="87.98" height="6.63"/><rect class="cls-2" x="473.02" y="237.46" width="58.36" height="6.63"/><path class="cls-6" d="M598.29,257.41c3-7.53,13.54-12.92,18.9-12.85h18.13c6,.56,15.87,5.32,18.9,12.85a40,40,0,0,1-55.93,0Z"/><path class="cls-7" d="M633.66,229.08s1.73,14.26,2.93,22.33c.88,5.89-20.26,7.54-20.9,1.19-.56-7.53-1.21-20.29-1.21-20.29"/><path class="cls-8" d="M634.52,235.64l-.86-6.56-19.18,3.23s.2,3.92.47,8.84a18.38,18.38,0,0,0,19.57-5.51Z"/><path class="cls-7" d="M602.16,217.81a18.51,18.51,0,0,0,17.08,19.83h0a18.5,18.5,0,0,0,19.83-17.07l1.46-19.52a18.51,18.51,0,0,0-17.07-19.83h0a18.49,18.49,0,0,0-19.83,17.07Z"/><path class="cls-6" d="M627.5,201.28a5.64,5.64,0,0,0-5.44-3c-1.25.14-1.27,2.13,0,2a3.72,3.72,0,0,1,3.73,2c.59,1.13,2.3.13,1.71-1Z"/><path class="cls-6" d="M607.4,200.74a4.25,4.25,0,0,1,3.7-1.24c1.24.3,1.77-1.61.53-1.91a6.26,6.26,0,0,0-5.63,1.74c-.89.93.51,2.34,1.4,1.41Z"/><path class="cls-6" d="M615.68,216.15a.78.78,0,0,1-.56-.25l-3.2-3.59a.73.73,0,0,1-.17-.66.74.74,0,0,1,.44-.53l3.85-1.6a.75.75,0,0,1,.58,1.39l-2.88,1.19,2.5,2.8a.76.76,0,0,1-.56,1.25Z"/><path class="cls-6" d="M615.39,226.42h0c-2,0-3.45-2.18-4.25-6.66a.74.74,0,0,1,.2-.65.75.75,0,0,1,.65-.22,34.49,34.49,0,0,0,5.18.37c1.2,0,2.5,0,4-.15a.76.76,0,0,1,.69.36.74.74,0,0,1,0,.77C619.39,224.4,617.28,226.42,615.39,226.42Zm-2.57-5.91c.62,2.82,1.54,4.41,2.57,4.41.66,0,2.07-.58,4.41-4.22A39.31,39.31,0,0,1,612.82,220.51Z"/><path class="cls-9" d="M620.42,209.85a2.25,2.25,0,1,0,1.65-2.72A2.25,2.25,0,0,0,620.42,209.85Z"/><path class="cls-9" d="M607,209.05a2.25,2.25,0,1,0,1.65-2.72A2.25,2.25,0,0,0,607,209.05Z"/><path class="cls-7" d="M635.52,215.67a6.72,6.72,0,0,0,4.94,8.11h0a6.71,6.71,0,0,0,8.12-4.94l.5-2.06a6.72,6.72,0,0,0-4.94-8.12h0a6.73,6.73,0,0,0-8.12,5Z"/><path class="cls-6" d="M645.66,209.34c1.58-4.51,9.27-22.81-2.17-23.36-.71-7.18-10.7-11-23.17-13.42S600.06,176,601,181.8s8.61,8,14.68,6.24c1.74,6.31,10.11,4.18,11.93,2.92,1.4,6.12,8.35,7.6,7.56,11.86s-1.15,8.61-1.31,9.48,3.48,2.56,4.27.82S642.05,208.27,645.66,209.34Z"/><path class="cls-10" d="M631.94,279.74c14.69-.58,30.43-9.92,33.56-25.1.13-.63-.84-.9-1-.27-3,14.74-18.32,23.81-32.59,24.37-.64,0-.64,1,0,1Z"/><path class="cls-10" d="M619.79,279.82c2.68.1,5.36.15,8,.21.65,0,.64-1,0-1-2.68-.06-5.36-.11-8-.21-.65,0-.64,1,0,1Z"/><path class="cls-10" d="M491.36,301.91c5-4.53,10.09-9,14.82-13.89,2.19-2.24,4.15-5.17,6.79-6.95a10.43,10.43,0,0,1,5.34-1.32c3.6-.21,7.23-.12,10.84-.16,6.54-.09,13.07-.44,19.61-.43,7,0,14,.33,21,.65,13.64.62,27.31,1.26,40.92-.14.63-.06.64-1.06,0-1-13.93,1.44-27.91.73-41.86.1-7.34-.34-14.67-.62-22-.61-6.55,0-13.09.38-19.64.45-4.47.05-10.69-.94-14.71,1.6-2.49,1.58-4.37,4.35-6.35,6.43-4.87,5.14-10.2,9.83-15.47,14.57-.48.43.23,1.13.71.7Z"/><rect class="cls-14" x="354.19" y="59.38" width="235.6" height="61.05" rx="20.83"/><path class="cls-7" d="M386.59,74c.73-1.48,1.93-1.48,2.65,0l2.34,4.73a6.41,6.41,0,0,0,4.29,3.12l5.22.76c1.63.23,2,1.37.82,2.52l-3.77,3.68a6.41,6.41,0,0,0-1.65,5l.9,5.19c.27,1.63-.69,2.33-2.15,1.56l-4.67-2.45a6.39,6.39,0,0,0-5.31,0l-4.66,2.45c-1.46.77-2.43.07-2.15-1.56l.89-5.19a6.4,6.4,0,0,0-1.64-5l-3.77-3.68c-1.18-1.15-.81-2.29.82-2.52l5.21-.76a6.42,6.42,0,0,0,4.3-3.13Z"/><path class="cls-7" d="M428.26,74c.73-1.48,1.92-1.48,2.65,0l2.33,4.73a6.43,6.43,0,0,0,4.3,3.12l5.21.76c1.64.23,2,1.37.82,2.52l-3.77,3.68a6.4,6.4,0,0,0-1.64,5l.89,5.19c.28,1.63-.69,2.33-2.15,1.56l-4.66-2.45a6.39,6.39,0,0,0-5.31,0l-4.66,2.45c-1.46.77-2.43.07-2.15-1.56l.89-5.19a6.4,6.4,0,0,0-1.64-5l-3.77-3.68c-1.18-1.15-.82-2.29.82-2.52l5.21-.76a6.44,6.44,0,0,0,4.3-3.13Z"/><path class="cls-7" d="M469.92,74c.73-1.48,1.93-1.48,2.66,0l2.33,4.73a6.41,6.41,0,0,0,4.3,3.12l5.21.76c1.63.23,2,1.37.82,2.52l-3.77,3.68a6.4,6.4,0,0,0-1.64,5l.89,5.19c.28,1.63-.69,2.33-2.15,1.56l-4.66-2.45a6.39,6.39,0,0,0-5.31,0l-4.67,2.45c-1.45.77-2.42.07-2.14-1.56l.89-5.19a6.37,6.37,0,0,0-1.65-5l-3.76-3.68c-1.19-1.15-.82-2.29.82-2.53l5.21-.75a6.42,6.42,0,0,0,4.29-3.13Z"/><path class="cls-7" d="M511.59,74c.73-1.48,1.93-1.48,2.66,0l2.33,4.73a6.41,6.41,0,0,0,4.29,3.12l5.22.76c1.63.23,2,1.37.82,2.52l-3.77,3.68a6.37,6.37,0,0,0-1.64,5l.89,5.19c.28,1.63-.69,2.33-2.15,1.56l-4.66-2.45a6.39,6.39,0,0,0-5.31,0l-4.67,2.45c-1.46.77-2.43.07-2.15-1.56l.89-5.19a6.4,6.4,0,0,0-1.64-5l-3.77-3.68c-1.18-1.15-.81-2.29.82-2.52l5.21-.76a6.42,6.42,0,0,0,4.3-3.13Z"/><path class="cls-7" d="M553.26,74c.73-1.48,1.92-1.48,2.65,0l2.34,4.73a6.41,6.41,0,0,0,4.29,3.12l5.22.76c1.63.23,2,1.37.82,2.52l-3.78,3.68a6.4,6.4,0,0,0-1.64,5l.89,5.19c.28,1.63-.68,2.33-2.14,1.56l-4.67-2.45a6.39,6.39,0,0,0-5.31,0l-4.66,2.45c-1.46.77-2.43.07-2.15-1.56l.89-5.19a6.4,6.4,0,0,0-1.64-5l-3.77-3.68c-1.18-1.15-.81-2.29.82-2.53l5.21-.75a6.44,6.44,0,0,0,4.3-3.13Z"/><path class="cls-10" d="M458.41,117.37c3.29,0,6.58-.33,9.87-.36a.5.5,0,0,0,0-1c-3.29,0-6.58.32-9.87.36a.5.5,0,0,0,0,1Z"/><path class="cls-10" d="M472.86,117c11.76-.27,23.52.26,35.27.06,5.87-.09,11.69-.64,17.54-.93,6.15-.3,12.32-.19,18.48,0,5.87.16,11.75.38,17.63.47,4.06.06,8.18.26,12.17-.61,6.53-1.41,9.31-6.7,9.74-13,0-.64-1-.64-1,0-.24,3.49-1,6.91-3.64,9.41-2.36,2.27-5.92,2.88-9,3.13a135.55,135.55,0,0,1-14.11-.07c-5.54-.14-11.08-.36-16.62-.45-11.07-.2-22,1-33.1,1.1s-22.2-.34-33.31-.09a.5.5,0,0,0,0,1Z"/><rect class="cls-14" y="204.24" width="123.95" height="65.89" rx="20.83"/><text class="cls-17" transform="translate(23.39 246.61)">24/7</text><path class="cls-10" d="M71.43,266.54c14.25-3.49,30.15,3.52,43.14-5.26.53-.36,0-1.22-.5-.86-12.84,8.67-28.78,1.69-42.91,5.15a.5.5,0,0,0,.27,1Z"/><path class="cls-10" d="M119.3,229.61c.22,2.15.11,4.3.41,6.44a51.15,51.15,0,0,1,.68,7.4c0,4.76-.45,9.83-3.21,13.86-.37.53.5,1,.86.5,2.43-3.54,3-7.81,3.28-12a34.13,34.13,0,0,0-.13-6.55c-.44-3.23-.56-6.42-.89-9.64-.06-.64-1.06-.64-1,0Z"/></g></g></svg>