<svg xmlns="http://www.w3.org/2000/svg" viewBox="0 0 415.04 398.84"><defs><style>.cls-1{fill:#f3f5f4;}.cls-2,.cls-23,.cls-24,.cls-25,.cls-27,.cls-4,.cls-9{fill:none;}.cls-2,.cls-4{stroke:#bbbfbd;}.cls-2{stroke-miterlimit:10;}.cls-3{fill:#d9d9d9;}.cls-23,.cls-24,.cls-25,.cls-27,.cls-4,.cls-9{stroke-linecap:round;stroke-linejoin:round;}.cls-5,.cls-7{font-size:35.62px;font-family:Alatsi-Regular, Alatsi Regular;}.cls-5,.cls-6{fill:#99c6ab;}.cls-18,.cls-7{fill:#fff;}.cls-8{fill:#aed6be;}.cls-9{stroke:#fff;}.cls-10{fill:#ff996a;}.cls-11{fill:#d3aa7d;}.cls-12{fill:#c1966b;}.cls-13{fill:#649176;}.cls-14{fill:#7eaf92;}.cls-15{fill:#ffd294;}.cls-16{fill:#d37a57;}.cls-17{fill:#3f2d1f;}.cls-19{fill:#9c897a;}.cls-20{fill:#77a58a;}.cls-21{fill:#e5bc89;}.cls-22{fill:#527a62;}.cls-23{stroke:#9c897a;}.cls-24{stroke:#e5bc89;}.cls-25{stroke:#543e2f;}.cls-26{fill:#847062;}.cls-27{stroke:#847062;}</style></defs><title>pengadu-1</title><g id="Layer_2" data-name="Layer 2"><g id="OBJECT"><path class="cls-1" d="M189.68,67.76s-56.46,2.49-86.37,61.53-60.8,40.61-79,93.87S42.81,337,67.46,343.55s306.28,0,306.28,0S411,318.11,413.86,252s-52.53-88.15-75.51-97.54S280,66.3,189.68,67.76Z"/><path class="cls-2" d="M270.59,229.23c65.05-43.76,77.66-66.23,109.77-70.41,78.19-10.18,20.9,192-158.17,235.15C137.11,414.49,31.72,358.52,16.65,315c-14.57-42,24.66-57.82,82.59-35.27S237.45,251.53,270.59,229.23Z"/><circle class="cls-3" cx="339.63" cy="179.33" r="9.9" transform="translate(-21.94 308.85) rotate(-47.54)"/><circle class="cls-2" cx="335.64" cy="373.93" r="9.9" transform="translate(-166.1 346.85) rotate(-45)"/><circle class="cls-2" cx="206.64" cy="148.64" r="9.9"/><polygon class="cls-4" points="178.62 188.21 168.57 202.19 187.66 202.19 178.62 188.21"/><polygon class="cls-3" points="131.41 365.85 125.09 378.01 144.18 378.01 131.41 365.85"/><circle class="cls-4" cx="19.39" cy="211.99" r="18.89" transform="translate(-191.38 182.16) rotate(-76.72)"/><text class="cls-5" transform="translate(12.08 225.84)">?</text><circle class="cls-6" cx="213.96" cy="73.87" r="18.89" transform="translate(10.44 172.93) rotate(-45)"/><text class="cls-7" transform="translate(206.64 87.71)">?</text><circle class="cls-3" cx="68.52" cy="219.89" r="9.52" transform="translate(-161.22 236.28) rotate(-76.77)"/><line class="cls-3" x1="321.71" y1="78.99" x2="403.16" y2="78.99"/><path class="cls-8" d="M405.62,49.82H320.46a8.8,8.8,0,0,0-8.8,8.8v51.26a8.8,8.8,0,0,0,8.8,8.8H337.8l-3.44,8.88a2.75,2.75,0,0,0,4.2,3.21L355,118.68h50.6a8.8,8.8,0,0,0,8.8-8.8V58.62A8.8,8.8,0,0,0,405.62,49.82Z"/><line class="cls-9" x1="321.71" y1="64.19" x2="403.16" y2="64.19"/><line class="cls-9" x1="321.71" y1="71.59" x2="403.16" y2="71.59"/><line class="cls-9" x1="321.71" y1="78.99" x2="403.16" y2="78.99"/><line class="cls-9" x1="321.71" y1="86.39" x2="403.16" y2="86.39"/><line class="cls-9" x1="321.71" y1="93.79" x2="403.16" y2="93.79"/><line class="cls-9" x1="321.71" y1="101.18" x2="403.16" y2="101.18"/><path class="cls-10" d="M139.36,212.74a78,78,0,0,0-2-10.74c-1.13-3.47-5.89-10.05-5.89-10.05s-1.91,4.07.86,7.45a71.9,71.9,0,0,0,.09,7.28s-9-7.7-10.74-8.48h0L117.61,195c-6-4.76-10-3.29-9.44-2.94.35.23,7.19,5.76,11.42,9.19L119,202l-6.37-5.07c-6-4.77-10-3.3-9.44-2.95s10.44,8.4,13.7,11l-1,1.38-6.59-5.26c-6-4.76-10-3.29-9.45-2.94s10.94,8.79,13.93,11.22l-1,1.46a78.29,78.29,0,0,0-7.19-5.84c-3.72-2.6-6.41-1.38-6.41-1.38l1.65,1.47c1.64,1.47,10.22,8.23,10.22,8.23s13.1,11.7,16.39,12.83l3.2,3,11.79-12.76Z"/><path class="cls-11" d="M233.65,293.55c-7,10.14-16.87,16.4-29.94,13.74-35-7.12-76.37-75.09-76.37-75.09l2.08-2.26,15.43-16.69,53.72,48.81,16.77-24.28,16.38-23.72,8.1-11.71s4.74,7.5,7.73,31.33C249.41,248.62,245.47,276.54,233.65,293.55Z"/><path class="cls-12" d="M233.65,293.55c-7,10.14-16.87,16.4-29.94,13.74-35-7.12-76.37-75.09-76.37-75.09l2.08-2.26,1.28-.71s49.28,67.79,70,57.71c12.84-6.24,14.9-31.09,14.6-49.16l16.38-23.72Z"/><polygon class="cls-13" points="365.19 286.94 362 343.12 349.62 343.12 354.49 286.94 365.19 286.94"/><polygon class="cls-13" points="289.45 286.94 286.26 343.12 273.89 343.12 278.75 286.94 289.45 286.94"/><rect class="cls-13" x="250.78" y="206.54" width="133.32" height="90.12" rx="17.64"/><rect class="cls-14" x="242.51" y="206.54" width="133.32" height="90.12" rx="17.64"/><path class="cls-15" d="M284.29,181.24s19.34-3.1,45.35,23.81l6,138.07H226.93s-11.87-93.15,2-126.28S267.58,179.76,284.29,181.24Z"/><path class="cls-10" d="M246.37,106.36l4.77-6.54,40.69,13.63-.35,15.28h2.69a9.88,9.88,0,0,1,9.88,9.88h0a9.88,9.88,0,0,1-9.88,9.88H291l-.48,20.75v18.23l-29.46,4.05-.72-12.19-.38-6.41-4.28-2a35.19,35.19,0,0,1-20-31.75A55.53,55.53,0,0,1,246.37,106.36Z"/><path class="cls-16" d="M260,172.92l.38,6.41c1.08-.13,2.22-.3,3.39-.52,18.2-3.31,25.32-19.76,24.58-28.23C288.33,150.58,282.2,171,260,172.92Z"/><path class="cls-16" d="M294.47,135.78a4.51,4.51,0,0,0-1.72,2.29,2.6,2.6,0,0,1,1.66,2.21,2.63,2.63,0,0,1-1.66,2.44,2.75,2.75,0,0,0,3.69,1.06c2.3-1.24,1.92-5.58-.37-6.49,0,0,3.63-.41,5,.92a2.65,2.65,0,0,0-1.22-2.52A4.4,4.4,0,0,0,294.47,135.78Z"/><path class="cls-17" d="M246.37,106.36s5.51,9.48,12.63,12.55,14.73-1.4,21.85,2.68S283.42,133.3,285,137s3.37,4.16,3.37,4.16.95-10.44,3.09-12.4c0,0,6.39,0,8.38,1.81,0,0,3.57-7.21,4.19-12.86s-5.65-7.49-5.65-7.49-1.47-13.5-18-18.53-29.22,2.94-35.85,0-12.64,1.47-13,8.16,4.17,9.15,4.17,9.15a6.4,6.4,0,0,0-1.84,6.57,7.52,7.52,0,0,0,5.08,4.9S243.45,110.34,246.37,106.36Z"/><path class="cls-18" d="M249.67,154.89l16.87-.83s-3.91,6.08-9.47,6C252,160,249.67,154.89,249.67,154.89Z"/><path class="cls-17" d="M269.06,127.41a.93.93,0,0,1-.6-.22,5.88,5.88,0,0,0-7.1-.41,1,1,0,1,1-1.12-1.54,7.74,7.74,0,0,1,9.43.49.95.95,0,0,1-.61,1.68Z"/><path class="cls-17" d="M248.08,127.41a1,1,0,0,1-.61-.22,5.86,5.86,0,0,0-7.09-.41,1,1,0,1,1-1.12-1.54,7.72,7.72,0,0,1,9.42.49.93.93,0,0,1,.13,1.33A1,1,0,0,1,248.08,127.41Z"/><path class="cls-19" d="M295.94,182.68l-5.33-6.94-21.21,7.47-3.44,6-2.32-5.35-3.22-3.52-3.35,6.45s.11,6.46,8.29,8.18S291.41,190,295.94,182.68Z"/><path class="cls-20" d="M299.86,130.54a6.47,6.47,0,0,0-6.43,1.62c-3.13,2.88-2.07,5.7-2.07,5.7s1.45-3.41,4.55-3,5.35,8.74,1.21,10.31-9.43-.82-9.24-7.28,2.55-10.1,6.45-10.65A4.89,4.89,0,0,1,299.86,130.54Z"/><path class="cls-20" d="M270.58,163a.85.85,0,0,1-.16-1.69c16-3.08,21.48-18.19,21.53-18.34a.85.85,0,0,1,1.08-.53.86.86,0,0,1,.53,1.09c-.06.16-5.79,16.18-22.82,19.45Z"/><path class="cls-13" d="M267,162.41a3.59,3.59,0,1,0,3.59-3.59A3.59,3.59,0,0,0,267,162.41Z"/><path class="cls-13" d="M295.5,136.37s-.45,4,.42,6.09,2.23,1,2.5-1.55S296.11,134.72,295.5,136.37Z"/><path class="cls-18" d="M261.37,135s0,3.7,4.85,4.32S272,135,272,135a10.64,10.64,0,0,0-6.31-2.65C262.09,132.31,261.37,135,261.37,135Z"/><path class="cls-18" d="M239.24,135s0,3.7,4.75,4.32,5.37-4.31,5.37-4.31a9.31,9.31,0,0,0-5.94-2.66A3.93,3.93,0,0,0,239.24,135Z"/><path class="cls-17" d="M249.36,135.05s-2.54-2.79-5.25-3.29-4.59.82-4.87,3.29a3.49,3.49,0,0,1,3.26-2.29C245.21,132.51,249.36,135.05,249.36,135.05Z"/><path class="cls-17" d="M272,135s-2.65-2.91-5.49-3.44-4.79.86-5.09,3.44a3.65,3.65,0,0,1,3.41-2.39C267.62,132.39,272,135,272,135Z"/><path class="cls-16" d="M254,135.15l-2.24,13.48a10.24,10.24,0,0,1-4.24-.86S253.38,136.66,254,135.15Z"/><path class="cls-13" d="M187.53,343.12s-.36-10.77,11.77-14.14,26.9,6.49,29.27,14.14Z"/><ellipse class="cls-17" cx="266.02" cy="135.99" rx="3.04" ry="3.84"/><path class="cls-17" d="M247.75,136.11c0,2.06-1.32,3.72-3,3.72s-3-1.66-3-3.72,1.32-3.73,3-3.73S247.75,134.05,247.75,136.11Z"/><path class="cls-16" d="M279.46,145.61c0,1.67-2,3-4.43,3s-4.44-1.36-4.44-3,2-3,4.44-3S279.46,143.93,279.46,145.61Z"/><path class="cls-16" d="M243.25,144.15c0,1.68-2,3-4.43,3s-4.43-1.36-4.43-3,2-3,4.43-3S243.25,142.47,243.25,144.15Z"/><path class="cls-21" d="M359.51,308.84A42.88,42.88,0,0,1,344.17,330a47.57,47.57,0,0,1-14.54,7.27c-20.86,6.33-98.15,5.85-98.15,5.85l2.9-23.35,86.55-19.45s-11.2-35.52-10.7-64.21c.45-26.7,8.41-37.71,17.38-32.51a14.94,14.94,0,0,1,2,1.45s13.67,20.36,27.77,62.19C363.17,284.34,363.07,298.1,359.51,308.84Z"/><path class="cls-10" d="M225.59,322.87l-18.36-3.35a13.28,13.28,0,0,0-6.75.89c-3.37,1.45-7.2,8.57-7.2,8.57a8.5,8.5,0,0,0,5.2-1.85,7,7,0,0,0,2.37-3.53l6.74.52.12,1.57A85.52,85.52,0,0,0,195.92,329c-3.83,1.64-5.83,6.66-5.83,6.66s5-.73,7.57-3.83l10.43-1.19.07,1a29.38,29.38,0,0,0-9.59,2.21c-5.38,2.37-7,5.56-7,5.56s5.38,0,9.16-2.91l2.55-.22c-2.52,1.62-4.69,5.51-4.69,5.51s1.09.27,3.55-.82a6.35,6.35,0,0,0,3.11-2.35l7.17.54h0c3.73.53,9.36,1.05,12.58,0l6.87,1.06L234,322.87Z"/><path class="cls-13" d="M378.45,354.42H33.19a5.65,5.65,0,0,1-5.65-5.65h0a5.65,5.65,0,0,1,5.65-5.65H378.45a5.65,5.65,0,0,1,5.65,5.65h0A5.65,5.65,0,0,1,378.45,354.42Z"/><path class="cls-14" d="M246.1,354.42H30.93c-1.87,0-3.39-2.53-3.39-5.65h0c0-3.12,1.52-5.65,3.39-5.65H246.1c1.87,0,3.39,2.53,3.39,5.65h0C249.49,351.89,248,354.42,246.1,354.42Z"/><path class="cls-14" d="M181,321.35H62.13a8.54,8.54,0,0,1-8.34-6.71l-15.37-69.8a5.48,5.48,0,0,1,5.36-6.66H164a7.56,7.56,0,0,1,7.39,5.94l15.42,70A5.94,5.94,0,0,1,181,321.35Z"/><path class="cls-6" d="M81.63,309.53c-1,5-6.83,8.05-13,6.82s-10.43-6.29-9.44-11.29,6.83-8.05,13-6.82S82.62,304.52,81.63,309.53Z"/><path class="cls-13" d="M186.83,314.14l-15.42-70a7.56,7.56,0,0,0-7.39-5.94h-6.93a7.56,7.56,0,0,1,7.39,5.94l15.42,70a5.94,5.94,0,0,1-5.8,7.21H181A5.94,5.94,0,0,0,186.83,314.14Z"/><path class="cls-13" d="M166.25,340.32a2.8,2.8,0,0,1-2.8,2.8H64.75a5.74,5.74,0,0,1-4.06-1.69,5.71,5.71,0,0,1-.72-7.24l24.43-36.6a3.75,3.75,0,0,1,3.1-1.65h42.71a2,2,0,0,1,1.72,3l-20.62,35.63a2,2,0,0,0,1.7,3h50.44a2.8,2.8,0,0,1,2.8,2.8Z"/><path class="cls-13" d="M137,279.28H76.39A1.28,1.28,0,0,1,75.12,278h0a1.27,1.27,0,0,1,1.27-1.28H137a1.28,1.28,0,0,1,1.28,1.28h0A1.29,1.29,0,0,1,137,279.28Z"/><path class="cls-13" d="M139.87,286.94H79.31A1.29,1.29,0,0,1,78,285.66h0a1.28,1.28,0,0,1,1.28-1.28h60.56a1.27,1.27,0,0,1,1.27,1.28h0A1.28,1.28,0,0,1,139.87,286.94Z"/><path class="cls-6" d="M39.67,242.31H167.9a8.33,8.33,0,0,1,3,.54,7.56,7.56,0,0,0-7-4.67H43.64a5.48,5.48,0,0,0-5.35,4.29A5.67,5.67,0,0,1,39.67,242.31Z"/><ellipse class="cls-6" cx="160.17" cy="307.29" rx="9.23" ry="11.46" transform="translate(-172.43 404.56) rotate(-78.77)"/><path class="cls-22" d="M166.24,340.52a2.9,2.9,0,0,1-2.94,2.6H107.13A4.11,4.11,0,0,1,103,339h0a4.08,4.08,0,0,1,.64-2.19l25.8-40.88h.75a2,2,0,0,1,1.72,3l-20.62,35.63a2,2,0,0,0,1.7,3h50.44a2.8,2.8,0,0,1,2.79,3Z"/><path class="cls-11" d="M329.63,337.27c-20.86,6.33-98.15,5.85-98.15,5.85l99.86-26.57a21.07,21.07,0,0,0,15.39-23.67c-4.39-27.59-12.88-77.09-19.12-89.28a14.94,14.94,0,0,1,2,1.45s13.67,20.36,27.77,62.19S350.51,331,329.63,337.27Z"/><path class="cls-23" d="M323.74,301.29a41.12,41.12,0,0,1,25.88,10.39"/><path class="cls-24" d="M293.87,185.18s18.79,6.38,28,17.34"/><path class="cls-23" d="M200.34,265.25s10.37,13.44,11.7,28.92"/><path class="cls-24" d="M254,186.84s-3.95,11.07,12.53,12.43,34.54-14.81,34.54-14.81"/><polygon class="cls-16" points="231.47 322.87 227.62 339.51 231.85 340.16 234 322.87 231.47 322.87"/><path class="cls-24" d="M265.36,194.93s-4.89,13.92-8.29,49.92"/><path class="cls-25" d="M296.91,110.35s-7.7-1.82-14.66.85"/><path class="cls-25" d="M246.37,106.36s-.78,11.27,13.48,12.88"/><path class="cls-25" d="M298.18,102.92s1.66,4.48.22,7.27"/><path class="cls-25" d="M233.61,98.35A9.68,9.68,0,0,0,240,108"/><path class="cls-25" d="M236.18,111.2s-1.32,5.18,3.57,7.42"/><path class="cls-25" d="M259,93.53s9.12-4,22.07,1.82c11.68,5.25,12.8,11.78,12.8,11.78"/><path class="cls-25" d="M298.18,113.13a5.24,5.24,0,0,1,2.57,4.86,20,20,0,0,1-1.76,7.36"/><path class="cls-25" d="M255.36,111.85s1.82,4.82,12.42,5.35,14,.54,16.93,4a8.52,8.52,0,0,1,1.93,7.18"/><path class="cls-3" d="M251.38,0H154.84a10.12,10.12,0,0,0-10.12,10.12V26.65a10.13,10.13,0,0,0,10.12,10.13h12.79l-3,10.27a2.17,2.17,0,0,0,3.24,2.43l20-12.7h63.47a10.14,10.14,0,0,0,10.13-10.13V10.12A10.13,10.13,0,0,0,251.38,0Z"/><line class="cls-9" x1="157.85" y1="9.89" x2="248.94" y2="9.89"/><line class="cls-9" x1="157.85" y1="17.62" x2="248.94" y2="17.62"/><line class="cls-9" x1="157.85" y1="25.35" x2="248.94" y2="25.35"/><circle class="cls-2" cx="94.1" cy="100.23" r="82.2"/><path class="cls-6" d="M171.08,100.23a76.94,76.94,0,0,1-39.06,67,74.42,74.42,0,0,1-8.11,4,76.82,76.82,0,0,1-29.81,6c-.7,0-1.4,0-2.09,0-.43,0-.85,0-1.28-.05s-.6,0-.91,0-.91-.05-1.35-.09l-.57,0c-.55,0-1.08-.09-1.61-.14s-1.23-.13-1.83-.21l19-27.53L52.92,94.26l-33,26.66c-.34-1.24-.66-2.48-.94-3.74-.11-.47-.21-1-.31-1.43-.13-.63-.25-1.27-.36-1.9-.07-.41-.15-.83-.21-1.25-.1-.6-.19-1.21-.27-1.81-.05-.35-.1-.68-.14-1-.06-.52-.13-1.06-.18-1.59l0-.31c-.06-.57-.12-1.14-.16-1.72s-.09-1.28-.12-1.92v0c0-.66-.07-1.31-.08-2s0-1.32,0-2A76.93,76.93,0,0,1,84.73,23.81a78.32,78.32,0,0,1,9.37-.56,76.53,76.53,0,0,1,35.81,8.83L96.38,59.15,118.76,127l43.4-62.76A76.46,76.46,0,0,1,171.08,100.23Z"/><path class="cls-14" d="M25.54,64.72,52.72,94.19l-33,26.66c-.35-1.24-.66-2.47-.95-3.74l-.3-1.43c-.13-.63-.26-1.27-.36-1.89q-.12-.63-.21-1.26c-.1-.6-.19-1.2-.28-1.81,0-.34-.09-.68-.13-1q-.11-.78-.18-1.59l0-.31c-.05-.57-.11-1.14-.15-1.72s-.09-1.27-.12-1.92v0c0-.65-.07-1.31-.08-2s0-1.33,0-2A76.67,76.67,0,0,1,25.54,64.72Z"/><path class="cls-14" d="M123.71,171.16a76.64,76.64,0,0,1-29.81,6c-.71,0-1.4,0-2.09,0q-.65,0-1.29-.06c-.3,0-.59,0-.9,0l-1.36-.08a5.48,5.48,0,0,1-.57-.05c-.54,0-1.07-.09-1.6-.13l-1.84-.21,19-27.53Z"/><path class="cls-14" d="M129.71,32,96.18,59.09,84.53,23.74a78.2,78.2,0,0,1,9.37-.56A76.71,76.71,0,0,1,129.71,32Z"/><path class="cls-14" d="M170.87,100.16a77,77,0,0,1-39.05,67L118.56,127,162,64.19A76.57,76.57,0,0,1,170.87,100.16Z"/><path class="cls-13" d="M103.29,149l-19,27.53-1.45-.2-1.2-.18-1.33-.23-1.77-.33-1.5-.33c-.31-.06-.63-.14-.94-.22s-.83-.2-1.24-.3c-1.36-.34-2.7-.73-4-1.15-.49-.15-1-.3-1.45-.47-.64-.21-1.28-.43-1.91-.67s-1.18-.44-1.76-.67-1.17-.46-1.74-.71-1.14-.48-1.7-.74h0l-1.69-.79c-1.71-.82-3.37-1.7-5-2.64L54,166c-1.06-.64-2.11-1.31-3.12-2-.52-.34-1-.69-1.52-1.05s-1-.72-1.5-1.1c0,0,0,0-.07,0-.47-.35-.94-.72-1.4-1.08s-.81-.63-1.2-1c-.59-.47-1.17-1-1.74-1.46l-1.3-1.15L40.85,156l-.13-.12-1.26-1.24-1.08-1.1c-.49-.51-1-1-1.46-1.57s-.83-.92-1.23-1.38-.63-.74-.93-1.11c-.19-.21-.36-.41-.53-.63-.31-.37-.6-.74-.9-1.12s-.65-.83-1-1.26-.84-1.12-1.24-1.7-.71-1-1.06-1.52l-.72-1.09c-.15-.22-.29-.45-.43-.68-.65-1-1.28-2-1.88-3.09l-.82-1.49c-.63-1.15-1.23-2.32-1.79-3.51-.25-.49-.48-1-.7-1.5s-.48-1.06-.71-1.59a.65.65,0,0,1,0-.13c-.24-.56-.48-1.13-.71-1.7a.14.14,0,0,0,0-.06c-.22-.58-.44-1.15-.65-1.73s-.41-1.12-.6-1.69-.34-1-.5-1.53l-.36-1.15a.14.14,0,0,1,0-.07c-.13-.45-.26-.9-.38-1.34l33-26.66Z"/><path class="cls-13" d="M162,64.19,118.56,127,96.18,59.09,129.71,32A77.16,77.16,0,0,1,162,64.19Z"/><polygon class="cls-14" points="118.56 126.95 103.29 149.01 52.72 94.19 96.18 59.09 118.56 126.95"/><path class="cls-10" d="M108.15,89.45l.24-4,2.7-1.29A22.26,22.26,0,0,0,123.77,64,35.14,35.14,0,0,0,117,43.28l-3-4.14L88.23,47.77l.23,9.67h-1.7a6.25,6.25,0,0,0-6.25,6.25h0a6.25,6.25,0,0,0,6.25,6.25h2l.3,13.13v4.61A48.45,48.45,0,0,1,75.58,96s9.83,12.35,26.09,13.17,16.89-9,16.89-9A94.18,94.18,0,0,1,108,92.78Z"/><path class="cls-16" d="M108.39,85.4l-.24,4c-.69-.08-1.4-.19-2.15-.32C94.49,87,90,76.62,90.45,71.26,90.45,71.26,94.33,84.16,108.39,85.4Z"/><path class="cls-16" d="M86.57,61.9a2.8,2.8,0,0,1,1.08,1.45,1.64,1.64,0,0,0-1.05,1.4,1.69,1.69,0,0,0,1.05,1.54,1.73,1.73,0,0,1-2.33.67c-1.46-.79-1.21-3.53.23-4.11,0,0-2.3-.26-3.14.59a1.66,1.66,0,0,1,.77-1.6A2.79,2.79,0,0,1,86.57,61.9Z"/><path class="cls-17" d="M107.84,54.28a.55.55,0,0,0-.38.15,3.71,3.71,0,0,1-4.48.39.6.6,0,0,0-.84.16.59.59,0,0,0,.16.83,4.87,4.87,0,0,0,6-.48.59.59,0,0,0,.06-.84A.64.64,0,0,0,107.84,54.28Z"/><path class="cls-17" d="M121.36,55.76a.59.59,0,0,0-.4-.07,3.72,3.72,0,0,1-4.06-1.93.6.6,0,1,0-1.09.5,4.9,4.9,0,0,0,5.37,2.62.6.6,0,0,0,.48-.71A.56.56,0,0,0,121.36,55.76Z"/><path class="cls-18" d="M107.51,61.43s0,2.34-3.07,2.73a3.27,3.27,0,0,1-3.63-2.73,6.76,6.76,0,0,1,4-1.68A2.53,2.53,0,0,1,107.51,61.43Z"/><path class="cls-18" d="M121.51,61.43s0,2.34-3,2.73-3.4-2.73-3.4-2.73a5.94,5.94,0,0,1,3.76-1.68A2.48,2.48,0,0,1,121.51,61.43Z"/><path class="cls-17" d="M115.11,61.43a7.34,7.34,0,0,1,3.32-2.08,2.35,2.35,0,0,1,3.08,2.08A2.21,2.21,0,0,0,119.45,60C117.73,59.83,115.11,61.43,115.11,61.43Z"/><path class="cls-17" d="M100.81,61.43a7.76,7.76,0,0,1,3.48-2.18c1.8-.33,3,.55,3.22,2.18a2.31,2.31,0,0,0-2.16-1.51C103.56,59.75,100.81,61.43,100.81,61.43Z"/><path class="cls-16" d="M112.16,61.5,113.58,70a6.41,6.41,0,0,0,2.68-.55S112.57,62.46,112.16,61.5Z"/><path class="cls-17" d="M102.64,62a2,2,0,1,0,1.92-2.43A2.22,2.22,0,0,0,102.64,62Z"/><path class="cls-17" d="M116.12,62.11A1.93,1.93,0,1,0,118,59.75,2.15,2.15,0,0,0,116.12,62.11Z"/><ellipse class="cls-16" cx="98.87" cy="68.11" rx="2.81" ry="1.92"/><ellipse class="cls-16" cx="121.78" cy="67.19" rx="2.81" ry="1.92"/><path class="cls-18" d="M113.18,73.32s-4.53.15-6.36,1.83,4.94,2.19,6.36,1.53S115.24,73.11,113.18,73.32Z"/><path class="cls-17" d="M102.14,60.51a2,2,0,0,1-1.89-.2s.09.92.56,1.12Z"/><path class="cls-17" d="M120.47,59.88s1.07.89,1.88.61c.3-.1-.83.94-.83.94A3.13,3.13,0,0,0,120.47,59.88Z"/><path class="cls-26" d="M126.66,105.1s14.42,26.35,19.92,48.45l-14.87,8.66s-5.91-11.81-7.94-29.94S126.66,105.1,126.66,105.1Z"/><path class="cls-17" d="M118.56,45.6S104.15,59.23,91,57.74c0,0-1.42,9.57,1,13.24,0,0-1,1-2.44-2.82s-.3-9.13-1-10.72a7,7,0,0,0-7.28,3.43c-2.89,4.47,3.43,9.94,7.57,9.07l.19,8.23a9.28,9.28,0,0,1-8.75-1.63c-4-3.39-2-6.85-2-6.85s-6-6-6.31-14.25S78.46,42,78.46,42s2.27-12.25,17.41-12.39S115.42,34,115.42,34A16.63,16.63,0,0,1,127.94,46C130.7,56.42,123.77,62,123.77,62S121.76,48.66,118.56,45.6Z"/><path class="cls-17" d="M81,40.53s-.73-8.89-9.18-8.52-10.07,10.05-6.4,14.53,8.45,3.46,12,0S81,40.53,81,40.53Z"/><path class="cls-18" d="M92,75.55,86.7,86.63a.68.68,0,0,1-1,.24l-.22-.17L68,73.23a.72.72,0,0,1-.19-.89l6-11,.14-.26a.69.69,0,0,1,1-.2L91.84,74.72A.71.71,0,0,1,92,75.55Z"/><path class="cls-19" d="M128.73,168.92a77.06,77.06,0,0,1-63.62,2.56l-5.69-65.2s1.17-4.5,8.14-7.06c7.93-2.93,8-3.26,8-3.26,30.21,15.2,43,4.2,43,4.2l6.65,3.38a3.1,3.1,0,0,1,1.45,1.56c1.57,3.75,6.77,16.77,7.29,25.75C134.36,138,131,157.2,128.73,168.92Z"/><path class="cls-19" d="M62.75,101.86s-7.36,2.92-10,22.2.18,29.49.18,29.49l14.67-17.41S72.59,109.45,62.75,101.86Z"/><path class="cls-10" d="M84.65,73.66c-1.4.81-5.06,3.37-5.72,4.45a4.12,4.12,0,0,0-.5,1.59l-.92-.46a28.38,28.38,0,0,1,1.32-4,7.62,7.62,0,0,0,2.28-1.93,2.5,2.5,0,0,0,.51-2.08c-.56.32-1.45.91-2.39,1.57l0,0a2.46,2.46,0,0,0,.51-2.08c-1.46.84-5.26,3.5-5.94,4.62a4.28,4.28,0,0,0-.53,1.82L73.05,77a26.48,26.48,0,0,1,1.41-4.34,7.64,7.64,0,0,0,2.27-1.93,2.5,2.5,0,0,0,.51-2.08c-1.46.85-5.26,3.51-5.94,4.63a4.73,4.73,0,0,0-.54,2.57l.54,9.58L71.83,96S52.5,140.22,52.72,151s6.7,15.07,6.7,15.07a17.11,17.11,0,0,0,11.34-7.63c4.41-6.82,8.48-58.76,8.48-58.76A19.28,19.28,0,0,0,82,92.78c.4-3.37-1.15-11.89-1.15-11.89A27,27,0,0,1,82,77.52a7.2,7.2,0,0,0,2.19-1.86A2.35,2.35,0,0,0,84.65,73.66Z"/><path class="cls-3" d="M92,75.55,86.7,86.63a.68.68,0,0,1-1,.24l-.22-.17,5.38-11.56-17-13.81.14-.26a.69.69,0,0,1,1-.2L91.84,74.72A.71.71,0,0,1,92,75.55Z"/><polygon class="cls-3" points="73.83 63.55 73.09 65 76.75 67.95 77.59 66.55 73.83 63.55"/><path class="cls-10" d="M179.84,107.23l-4.11.77-.11-.37c1.19-.4,4-1.5,5.11-3.19a15,15,0,0,0,2-4.29A8.22,8.22,0,0,0,179.2,104l-1.94.36a6.39,6.39,0,0,0,2-1.74,15,15,0,0,0,2-4.29,8.22,8.22,0,0,0-3.49,3.83l-2.45.46a7.92,7.92,0,0,0,2.52-3,14.72,14.72,0,0,0,1-4.6,8.22,8.22,0,0,0-2.6,4.48l-2.7,1.12-11.81,3.69.09-1.7a19.91,19.91,0,0,0,1.69-1.25c1.25-1,2.81-5.05,2.81-5.05s-6.19,2.91-7.7,6.12-2.94,11.13-2.94,11.13-14.19,34.15-16.71,43.56h0s-4.88,1.89-7.2,5.08c0,0,5,9.09,8.89,10,0,0,11.41-2.17,16.84-15.47s7.62-40.18,7.62-40.18l11.4-6.23s3.44-1,4.63-2.77a12.4,12.4,0,0,0,1.6-3.5A6.71,6.71,0,0,0,179.84,107.23Z"/><path class="cls-27" d="M129.07,146A105.53,105.53,0,0,0,111,144.7a141.57,141.57,0,0,0-22.85,2.15"/><path class="cls-25" d="M117,37.56s1.84,3.39,1.69,5.72"/><path class="cls-25" d="M114.21,35s-7.46,2.43-11.57,8.29"/><path class="cls-25" d="M79.61,38.78a19,19,0,0,0-1.29,3.71s-4,3.71-4.49,5.86"/><path class="cls-25" d="M64.61,48.85c.28.21,4.23,3.2,8.27.68"/><path class="cls-25" d="M84.53,37.56s9.25-8.53,24.58-4"/><path class="cls-25" d="M86.39,55.19s4,1.6,12.48,0,16.24-10.31,16.24-10.31"/><path class="cls-27" d="M83,101.86s11.62,4.84,23.53,4.13,13.39-2.86,13.39-2.86"/></g></g></svg>