<svg xmlns="http://www.w3.org/2000/svg" viewBox="0 0 2542.01 2647.09"><defs><style>.cls-1{fill:#b6ac98;}.cls-1,.cls-2,.cls-3,.cls-4,.cls-5,.cls-7,.cls-8,.cls-9{fill-rule:evenodd;}.cls-2{fill:#f3f0ea;}.cls-3{fill:#333;}.cls-4{fill:#1aa1ff;}.cls-5{fill:#ff9e5c;}.cls-6,.cls-7{fill:#ff3131;}.cls-8{fill:#7dd63e;}.cls-9{fill:#c06000;}</style></defs><title>pengadu</title><g id="Layer_2" data-name="Layer 2"><g id="Layer_1-2" data-name="Layer 1"><path class="cls-1" d="M589.62,1766.93c29.86-17.07,62.59-29.53,96.82-37.76l300.39-72.25,13-55.31H967a134.83,134.83,0,0,1-134.78-132.82,134.91,134.91,0,0,1-88.42-126.6V1104a134.89,134.89,0,0,1,78.8-122.64c-4.52-49.77-3.36-99,4.37-146.62a134.42,134.42,0,0,1-158.17,34.43l-329-151.45H183.22A134.85,134.85,0,0,1,48.41,583V134.8A134.84,134.84,0,0,1,183.22,0h728A134.84,134.84,0,0,1,1046,134.8V510.12c62.49-43.76,133.08-81.38,203.45-100.32,182.65-49.16,418.72-32.05,547.52,122.59,32,38.42,47.62,73.11,63.54,119.53,7.61,22.18,13.31,38,28.65,56.29,71.56,85.21,76.85,189.27,55.16,290.43a134.58,134.58,0,0,1,50.79,105.41v238.14A134.84,134.84,0,0,1,1860.34,1477H1771a728.3,728.3,0,0,1-44.88,69.32l26,110.59L2053,1729.27c74.81,18,142.36,56.23,188.45,118.8,22,29.9,44.18,74.72,47.21,112.55L2332,2501.5c6.24,77.76-56.37,145.59-134.38,145.59H541.31c-78,0-140.61-67.83-134.37-145.58l40.2-501h-132a134.84,134.84,0,0,1-134.8-134.81V1714.88A134.16,134.16,0,0,1,198,1648.12a134.22,134.22,0,0,1-17.29-56.43L132.54,965.45c-6-77.61,56.57-145.15,134.4-145.15H503c77.83,0,140.38,67.54,134.41,145.15L589.22,1591.7a134.4,134.4,0,0,1-17.28,56.42,134.16,134.16,0,0,1,17.68,66.76v52ZM861.53,717.77H860v3.55c.52-1.19,1-2.37,1.57-3.55Zm1240.68,423.17a134.09,134.09,0,0,0-17.68,66.75v150.86a134.85,134.85,0,0,0,134.8,134.8H2359a134.83,134.83,0,0,0,134.79-134.8V1207.7a134.25,134.25,0,0,0-17.67-66.76,134.41,134.41,0,0,0,17.29-56.43l48.17-626.25c6-77.6-56.58-145.14-134.4-145.14H2171.16c-77.83,0-140.37,67.54-134.41,145.15l48.18,626.25a134.26,134.26,0,0,0,17.28,56.43ZM486.88,488.69,597.5,539.6a135.19,135.19,0,0,1,47.33-64.88l-.24-.14a134.12,134.12,0,0,1-69.19,19.1H523.34a134.92,134.92,0,0,1-36.46-5Zm747.18,589.18c-17.27,55.51-39.89,112.43-69.56,161.87,6.64,31.41,18.43,63.17,33,92.27H1352a134.91,134.91,0,0,1,127.12,89.85c3.93-3.59,7.45-7,10.48-10.27,29.14-32.52,54.74-71.35,69.39-112.69,3.07-8.66,1.43-4.49,5.06-12.72,9-20.43,14.18-39.15,16.37-60.42-9.84-61.14-25.83-126.21-52.09-182-5.16-10.94-17.48-34.28-29.77-50.42-61,51.85-132.34,89.09-214.75,89.09a267.51,267.51,0,0,1-49.75-4.6Zm5.3,1299.62q-.66-6.7-.67-13.59v-54.29a134,134,0,0,1,15.25-62.31,134,134,0,0,1-15.25-62.31v-54.3a134.22,134.22,0,0,1,18.3-67.85l-189.63-148-318.31,76.55c-7.5,1.81-23.67,7-31.83,14.07l-13.31,165.8H737.6a134.82,134.82,0,0,1,257.53,55.83v150.4Zm268.25,0h236.15v-150.4a134.82,134.82,0,0,1,257.53-55.83h33.77l-13.31-165.87c-8-7-24-12.11-31.39-13.9l-318.75-76.65L1487.4,2058.61a134.17,134.17,0,0,1,20.89,72.08V2185A134.17,134.17,0,0,1,1493,2247.3a134.11,134.11,0,0,1,15.25,62.31v54.29a135.59,135.59,0,0,1-.68,13.59Zm-234.56-644.11,96.43,75.26,96.37-75.2c-64.12,18-128.69,18-192.8-.06ZM1133.33,787.69A183.29,183.29,0,0,1,1170.9,784c24.55,0,47.5,5,70.5,13.23,6.22,2.23,37.73,15.82,43.13,15.75,10.74-.13,41.78-26.81,48.78-33.29,45.46-42.06,102.61-68.08,165.07-68.08a233.47,233.47,0,0,1,107,25.54c-2-5.53-4.12-11-6.41-16.36a61.73,61.73,0,0,0-9.16-15.8c-33.76-40.53-106.2-50.3-155.21-50.3a447.67,447.67,0,0,0-115.09,15.49c-56.46,15.2-120.08,58.61-164.49,95.85A174,174,0,0,0,1133.33,787.69Z"/><path class="cls-2" d="M541.21,1766.93c29.86-17.07,62.58-29.53,96.81-37.76l300.39-72.25,13-55.31H918.6a134.84,134.84,0,0,1-134.79-132.82,134.9,134.9,0,0,1-88.41-126.6V1104A134.89,134.89,0,0,1,774.2,981.4c-4.52-49.77-3.36-99,4.37-146.62a134.43,134.43,0,0,1-158.18,34.43l-329-151.45H134.8A134.85,134.85,0,0,1,0,583V134.8A134.84,134.84,0,0,1,134.81,0h728a134.84,134.84,0,0,1,134.8,134.8V510.12c62.48-43.76,133.07-81.38,203.44-100.32,182.66-49.16,418.72-32.05,547.53,122.59,32,38.42,47.62,73.11,63.54,119.53,7.61,22.18,13.31,38,28.65,56.29,71.55,85.21,76.85,189.27,55.16,290.43a134.58,134.58,0,0,1,50.79,105.41v238.14A134.85,134.85,0,0,1,1811.93,1477h-89.37a732.23,732.23,0,0,1-44.88,69.32l26,110.59,300.84,72.36c74.81,18,142.36,56.23,188.45,118.8,22,29.9,44.17,74.72,47.21,112.55l43.4,540.88c6.24,77.76-56.37,145.59-134.37,145.59H492.89c-78,0-140.61-67.83-134.37-145.58l40.21-501h-132a134.84,134.84,0,0,1-134.8-134.81V1714.88a134.15,134.15,0,0,1,17.67-66.76,134.21,134.21,0,0,1-17.28-56.43L84.12,965.45c-6-77.61,56.58-145.15,134.41-145.15H454.58c77.83,0,140.37,67.54,134.4,145.15L540.81,1591.7a134.27,134.27,0,0,1-17.29,56.42,134.06,134.06,0,0,1,17.69,66.76v52ZM813.12,717.77h-1.57v3.55c.51-1.19,1-2.37,1.57-3.55ZM2053.8,1140.94a134.09,134.09,0,0,0-17.68,66.75v150.86a134.84,134.84,0,0,0,134.8,134.8h139.7a134.84,134.84,0,0,0,134.8-134.8V1207.7a134.16,134.16,0,0,0-17.68-66.76,134.27,134.27,0,0,0,17.29-56.43l48.17-626.25c6-77.6-56.57-145.14-134.4-145.14H2122.75c-77.84,0-140.38,67.54-134.41,145.15l48.18,626.25a134.11,134.11,0,0,0,17.28,56.43ZM438.47,488.69,549.08,539.6a135.21,135.21,0,0,1,47.34-64.88l-.24-.14A134.12,134.12,0,0,1,527,493.68H474.92a134.85,134.85,0,0,1-36.45-5Zm747.17,589.18c-17.27,55.51-39.88,112.43-69.56,161.87,6.65,31.41,18.44,63.17,33,92.27h154.47a134.93,134.93,0,0,1,127.12,89.85c3.92-3.59,7.45-7,10.47-10.27,29.14-32.52,54.75-71.35,69.4-112.69,3.07-8.66,1.42-4.49,5.05-12.72,9-20.43,14.19-39.15,16.38-60.42-9.84-61.14-25.83-126.21-52.1-182-5.15-10.94-17.48-34.28-29.77-50.42-61,51.85-132.33,89.09-214.75,89.09a267.68,267.68,0,0,1-49.75-4.6ZM1191,2377.49a135.59,135.59,0,0,1-.68-13.59v-54.29a134.14,134.14,0,0,1,15.25-62.31,134.17,134.17,0,0,1-15.25-62.31v-54.3a134.13,134.13,0,0,1,18.31-67.85l-189.63-148-318.31,76.55c-7.51,1.81-23.68,7-31.83,14.07l-13.31,165.8h33.69a134.82,134.82,0,0,1,257.53,55.83v150.4Zm268.25,0h236.15v-150.4a134.82,134.82,0,0,1,257.52-55.83h33.77l-13.31-165.87c-8-7-24-12.11-31.38-13.9l-318.75-76.65L1439,2058.61a134.08,134.08,0,0,1,20.89,72.08V2185a134.17,134.17,0,0,1-15.25,62.31,134.11,134.11,0,0,1,15.25,62.31v54.29q0,6.88-.67,13.59Zm-234.57-644.11,96.44,75.26,96.37-75.2c-64.12,18-128.69,18-192.81-.06ZM1084.91,787.69a183.36,183.36,0,0,1,37.57-3.73c24.56,0,47.51,5,70.51,13.23,6.21,2.23,37.73,15.82,43.13,15.75,10.74-.13,41.78-26.81,48.78-33.29,45.46-42.06,102.6-68.08,165.07-68.08a233.5,233.5,0,0,1,107,25.54c-2-5.53-4.12-11-6.41-16.36a61.76,61.76,0,0,0-9.17-15.8c-33.75-40.53-106.19-50.3-155.2-50.3a447.8,447.8,0,0,0-115.1,15.49c-56.45,15.2-120.07,58.61-164.49,95.85A175.37,175.37,0,0,0,1084.91,787.69Z"/><path class="cls-3" d="M770.06,2347.91h-222l-9.84,122.53H770.06V2347.91ZM676.75,788.6a41.79,41.79,0,0,1-17.5-3.83l-347.55-160H134.8A41.85,41.85,0,0,1,93,583V134.8A41.85,41.85,0,0,1,134.81,93h728a41.85,41.85,0,0,1,41.85,41.85V583a41.85,41.85,0,0,1-41.85,41.85H718.6V746.75c0,22.86-19.22,41.85-41.85,41.85ZM176.65,541.11H320.87a41.92,41.92,0,0,1,17.5,3.83L634.9,681.42V583a41.85,41.85,0,0,1,41.85-41.85H821V176.65H176.65V541.11ZM406.41,1623.2H266.7A41.85,41.85,0,0,1,225,1584.56L176.8,958.32c-1.84-24,17.7-45.07,41.73-45.07H454.58c24,0,43.57,21.1,41.73,45.07l-48.18,626.25a41.85,41.85,0,0,1-41.72,38.63Zm-101-83.7h62.19L409.39,997H263.72l41.74,542.54Zm101,368.08H266.71a41.84,41.84,0,0,1-41.85-41.85V1714.88A41.85,41.85,0,0,1,266.71,1673h139.7a41.85,41.85,0,0,1,41.85,41.85v150.86a41.86,41.86,0,0,1-41.85,41.84Zm-97.85-83.69h56v-67.16h-56v67.16ZM2310.62,1116h-139.7a41.85,41.85,0,0,1-41.73-38.64L2081,451.13c-1.84-24,17.69-45.06,41.73-45.06H2358.8c24,0,43.57,21.1,41.73,45.06l-48.17,626.25a41.87,41.87,0,0,1-41.74,38.64Zm-100.94-83.69h62.19l41.74-542.56H2167.94l41.74,542.56Zm100.94,368.07h-139.7a41.85,41.85,0,0,1-41.85-41.85V1207.69a41.85,41.85,0,0,1,41.85-41.85h139.7a41.85,41.85,0,0,1,41.85,41.85v150.85a41.85,41.85,0,0,1-41.85,41.85Zm-97.85-83.7h56v-67.16h-56v67.16Zm-1876.23-916a41.85,41.85,0,0,0,0-83.7H284.48a41.85,41.85,0,0,0,0,83.7Zm190.45,0a41.85,41.85,0,0,0,0-83.7H474.92a41.85,41.85,0,1,0,0,83.7Zm190.44,0a41.85,41.85,0,0,0,0-83.7H665.37a41.85,41.85,0,0,0,0,83.7ZM1811.93,1384H1665.82c-19.53,42.8-47.81,90.88-88.79,140.33l49.31,209.53,356.47,85.74c142.21,33.39,164,139.2,164.74,148.42L2191,2508.94c1.93,24-17.64,45.2-41.72,45.2H492.89c-24.08,0-43.64-21.19-41.71-45.19l43.41-540.88c.73-9.23,22.53-115,165.17-148.53l356-85.63,49.32-209.55q-6.49-7.86-12.55-15.7H918.6a41.85,41.85,0,0,1-41.85-41.85V1384H830.2a41.85,41.85,0,0,1-41.85-41.85V1104a41.85,41.85,0,0,1,41.85-41.85h51.37c-43.14-181.11-5.15-333.68,111.58-431.57,36.23-30.38,131.37-104,232.07-131.07,157.49-42.38,352.8-26.71,451.94,92.33,54.7,65.66,38.47,111.85,92.44,176.1,66.73,79.48,48.71,189.87,11.23,294.22h31.1a41.85,41.85,0,0,1,41.85,41.85v238.14a41.85,41.85,0,0,1-41.85,41.85ZM1598.19,1330a41.52,41.52,0,0,1,2.5-6.3c20.53-52.8,24.21-91,24.85-101.38-32.76-217-114.7-334.07-175.58-334.07-14.8,0-30,7.1-45.1,21.1-58.33,54-113.76,80.21-169.47,80.21-37.49,0-67.42-12-89.28-20.8-6.36-2.55-14.51-5.83-19.76-7.32-3.22,5-9.5,17.39-17,45.63-17.07,64.16-46.27,150.77-90.51,211.52,3.12,31.46,16.84,115.31,76.73,206.41h208a41.85,41.85,0,1,1,0,83.7H1171c36,28.2,92,62.89,149,61.52l5.5,0c90.16,0,176.84-88.18,184.52-96.19,44-52.38,71.26-102.43,88.15-144.07Zm97.92-29.62h74V1145.89H1747L1708.86,1230c-1,12.79-4,37.52-12.75,70.3ZM978.16,1384H960.45V1425h37.67c-7.5-14-14.11-27.64-20-40.92ZM906.58,1145.9H872.05v154.46h76.86c-10.42-39.85-13.46-70.29-14.35-85.1q-15.76-35.16-28-69.35ZM554.79,2264.21l22.94-285.78C581,1968,600.16,1919.07,678.9,1901l361.9-87,254.52,198.65a41.86,41.86,0,0,0,51.5,0L1601.35,1814l362.34,87.14c78.33,18,97.48,66.84,100.73,77.31l22.93,285.79H1872v-37.12a41.85,41.85,0,1,0-83.7,0v243.35H853.77V2227.09a41.86,41.86,0,0,0-83.71,0v37.13Zm542.71-512.14,223.57,174.48,223.56-174.48-38.79-164.82c-124.53,89-245.2,88.83-369.55,0l-38.79,164.85ZM1872,2470.44h231.9l-9.83-122.53H1872v122.53ZM1386.23,561.7A543.82,543.82,0,0,0,1247,580.38c-84.58,22.77-168.07,87.58-200,114.38-135.35,113.5-104.52,297.16-63.1,417.62,16.48-35.17,31.68-78.21,44.63-126.87,9.38-35.25,28.9-108.6,94-108.6,69.41,0,106,81.6,225.55-29,30.65-28.37,65.9-43.36,101.94-43.36,98.27,0,183.93,106.59,232.14,280.54,42.05-99.59,73.29-203.81,23.4-263.23-63.87-76-52-127.52-92.65-176.36-45-54-125.48-83.77-226.63-83.77Zm-61.16,1665.13a41.85,41.85,0,0,0,41.85-41.84v-54.3a41.85,41.85,0,0,0-83.7,0V2185a41.85,41.85,0,0,0,41.85,41.84Zm0,178.92a41.84,41.84,0,0,0,41.85-41.85v-54.29a41.85,41.85,0,0,0-83.7,0v54.29A41.85,41.85,0,0,0,1325.07,2405.75Z"/><path class="cls-4" d="M1366.92,2130.69V2185a41.85,41.85,0,0,1-83.7,0v-54.3a41.85,41.85,0,0,1,83.7,0Zm-513.15,96.4v243.35H1788.3V2227.09a41.85,41.85,0,1,1,83.7,0v37.12h215.35l-22.93-285.79c-3.25-10.47-22.4-59.35-100.73-77.31L1601.35,1814l-254.53,198.65a41.86,41.86,0,0,1-51.5,0L1040.8,1814l-361.9,87c-78.74,18-97.92,66.94-101.17,77.41l-22.94,285.78H770.06v-37.13a41.86,41.86,0,0,1,83.71,0Zm513.15,82.52v54.29a41.85,41.85,0,0,1-83.7,0v-54.29a41.85,41.85,0,0,1,83.7,0Z"/><path class="cls-5" d="M1321.07,1926.55l223.56-174.48-38.79-164.82c-124.53,89-245.2,88.83-369.55,0l-38.79,164.85Z"/><polygon class="cls-5" points="2094.07 2347.91 1872 2347.91 1872 2470.44 2103.9 2470.44 2094.07 2347.91"/><polygon class="cls-5" points="770.07 2470.44 770.07 2347.91 548.07 2347.91 538.23 2470.44 770.07 2470.44"/><rect class="cls-6" x="308.56" y="1756.73" width="56" height="67.16"/><polygon class="cls-7" points="305.46 1539.5 367.65 1539.5 409.39 996.96 263.72 996.96 305.46 1539.5"/><path class="cls-8" d="M338.37,544.94,634.9,681.42V583a41.85,41.85,0,0,1,41.85-41.85H821V176.65H176.65V541.11H320.87a41.92,41.92,0,0,1,17.5,3.83Zm-1.83-144.21H284.48a41.85,41.85,0,0,1,0-83.7h52.06a41.85,41.85,0,0,1,0,83.7Zm190.45,0H474.92a41.85,41.85,0,1,1,0-83.7H527a41.85,41.85,0,0,1,0,83.7Zm190.44,0H665.37a41.85,41.85,0,0,1,0-83.7h52.06a41.85,41.85,0,0,1,0,83.7Z"/><path class="cls-9" d="M1247,580.38c-84.58,22.77-168.07,87.58-200,114.38-135.35,113.5-104.52,297.16-63.1,417.62,16.48-35.17,31.68-78.21,44.63-126.87,9.38-35.25,28.9-108.6,94-108.6,69.41,0,106,81.6,225.55-29,30.65-28.37,65.9-43.36,101.94-43.36,98.27,0,183.93,106.59,232.14,280.54,42.05-99.59,73.29-203.81,23.4-263.23-63.87-76-52-127.52-92.65-176.36-45-54-125.48-83.77-226.63-83.77A543.82,543.82,0,0,0,1247,580.38Z"/><rect class="cls-6" x="2212.77" y="1249.54" width="56" height="67.16"/><polygon class="cls-7" points="2209.68 1032.33 2271.87 1032.33 2313.61 489.77 2167.94 489.77 2209.68 1032.33"/><path class="cls-7" d="M1770.08,1300.35V1145.89H1747L1708.86,1230c-1,12.79-4,37.52-12.75,70.3Z"/><path class="cls-5" d="M1600.69,1323.66c20.53-52.8,24.21-91,24.85-101.38-32.76-217-114.7-334.07-175.58-334.07-14.8,0-30,7.1-45.1,21.1-58.33,54-113.76,80.21-169.47,80.21-37.49,0-67.42-12-89.28-20.8-6.36-2.55-14.51-5.83-19.76-7.32-3.22,5-9.5,17.39-17,45.63-17.07,64.16-46.27,150.77-90.51,211.52,3.12,31.46,16.84,115.31,76.73,206.41h208a41.85,41.85,0,1,1,0,83.7H1171c36,28.2,92,62.89,149,61.52l5.5,0c90.16,0,176.84-88.18,184.52-96.19,44-52.38,71.26-102.43,88.15-144.07A41.52,41.52,0,0,1,1600.69,1323.66Z"/><path class="cls-7" d="M948.91,1300.35c-10.42-39.85-13.46-70.29-14.35-85.1q-15.76-35.16-28-69.35H872.05v154.46Z"/></g></g></svg>